<?xml version="1.0" encoding="UTF-8" standalone="no"?>
<!-- Created with Inkscape (http://www.inkscape.org/) -->

<svg
   xmlns:dc="http://purl.org/dc/elements/1.1/"
   xmlns:cc="http://creativecommons.org/ns#"
   xmlns:rdf="http://www.w3.org/1999/02/22-rdf-syntax-ns#"
   xmlns:svg="http://www.w3.org/2000/svg"
   xmlns="http://www.w3.org/2000/svg"
   xmlns:sodipodi="http://sodipodi.sourceforge.net/DTD/sodipodi-0.dtd"
   xmlns:inkscape="http://www.inkscape.org/namespaces/inkscape"
   width="76.492386mm"
   height="11.959113mm"
   viewBox="0 0 76.492386 11.959113"
   version="1.1"
   id="svg8"
   inkscape:version="0.92.3 (2405546, 2018-03-11)"
   sodipodi:docname="logo.svg"
   inkscape:export-filename="/media/imferal/E/SkillBox/JavaScript/js-graduate-work/src/assets/img/logo.svg.png"
   inkscape:export-xdpi="96"
   inkscape:export-ydpi="96">
  <defs
     id="defs2" />
  <sodipodi:namedview
     id="base"
     pagecolor="#ffffff"
     bordercolor="#666666"
     borderopacity="1.0"
     inkscape:pageopacity="0.0"
     inkscape:pageshadow="2"
     inkscape:zoom="2.8"
     inkscape:cx="137.65898"
     inkscape:cy="8.7178421"
     inkscape:document-units="mm"
     inkscape:current-layer="g952"
     showgrid="false"
     inkscape:window-width="1920"
     inkscape:window-height="1027"
     inkscape:window-x="0"
     inkscape:window-y="0"
     inkscape:window-maximized="1"
     fit-margin-top="0"
     fit-margin-left="0"
     fit-margin-right="0"
     fit-margin-bottom="0" />
  <metadata
     id="metadata5">
    <rdf:RDF>
      <cc:Work
         rdf:about="">
        <dc:format>image/svg+xml</dc:format>
        <dc:type
           rdf:resource="http://purl.org/dc/dcmitype/StillImage" />
        <dc:title />
      </cc:Work>
    </rdf:RDF>
  </metadata>
  <g
     inkscape:label="Layer 1"
     inkscape:groupmode="layer"
     id="layer1"
     transform="translate(-83.785302,-42.95201)">
    <g
       id="g952"
       transform="translate(-9.5438989,-1.889881)">
      <g
         style="fill:#7c74b0;fill-opacity:0.32160806"
         transform="matrix(0.02653537,0.00409425,-0.00406286,0.0232419,157.57544,42.116637)"
         id="g909">
        <path
           style="fill:#7c74b0;fill-opacity:0.32160806"
           inkscape:connector-curvature="0"
           d="m 273.36,69.94 c 4.761,4.76 2.721,10.88 2.04,16.32 -0.68,4.76 0.681,10.199 -2.04,13.6 -2.72,4.08 -8.159,-0.68 -12.92,-0.68 -12.239,0 -11.56,0 -6.12,-10.881 3.4,-7.479 10.2,-11.56 14.28,-18.359 1.36,0 2.72,0 4.76,0 z"
           id="path875" />
        <path
           style="fill:#7c74b0;fill-opacity:0.32160806"
           inkscape:connector-curvature="0"
           d="m 304.64,232.46 c 0,-18.359 4.08,-34.68 6.12,-51.68 0.68,-10.88 0.68,-22.44 0.68,-33.32 0,-8.16 2.04,-15.64 4.76,-23.12 7.48,-17 25.16,-18.359 41.48,-10.199 14.28,7.479 23.12,20.399 29.92,34.68 8.84,17.68 20.4,35.36 21.76,55.08 2.04,29.24 -2.72,57.8 -29.92,75.479 -14.28,9.521 -31.96,12.921 -48.96,4.761 -7.479,-3.4 -10.88,-10.88 -14.96,-17 -7.481,-10.881 -10.88,-23.121 -10.88,-34.681 z"
           id="path877" />
        <path
           style="fill:#7c74b0;fill-opacity:0.32160806"
           inkscape:connector-curvature="0"
           d="m 135.32,231.1 c 1.36,-9.521 0.681,-21.761 9.521,-30.601 2.72,-2.04 4.76,-6.12 8.16,-4.76 4.08,1.36 2.72,4.76 3.399,8.16 1.36,8.84 3.4,17 8.16,24.479 1.36,2.04 2.04,4.08 0.681,6.12 -1.36,2.04 -3.4,0 -4.761,-0.68 -7.479,-1.36 -14.96,-4.08 -21.08,4.08 -0.68,1.36 -2.72,1.36 -3.399,0 -1.361,-1.358 -0.681,-3.398 -0.681,-6.798 z"
           id="path879" />
        <path
           style="fill:#7c74b0;fill-opacity:0.32160806"
           inkscape:connector-curvature="0"
           d="m 342.72,102.58 c -6.8,1.36 -9.521,-1.359 -9.521,-8.16 0,-5.439 -1.359,-10.88 -0.68,-16.319 1.36,-6.801 4.08,-8.16 9.52,-3.4 4.08,3.4 6.12,7.48 8.841,12.24 2.72,4.08 4.76,8.84 7.479,12.92 0.68,1.36 2.04,2.72 0.68,4.08 -1.359,1.359 -2.72,1.359 -4.079,0.68 -4.08,-0.681 -8.16,-2.721 -12.24,-2.041 z"
           id="path881" />
        <path
           style="fill:#7c74b0;fill-opacity:0.32160806"
           inkscape:connector-curvature="0"
           d="m 446.079,199.14 c 1.36,1.359 2.721,2.04 4.08,3.399 6.801,6.8 9.521,16.32 14.28,24.48 2.04,3.399 -0.68,4.76 -3.4,4.08 -6.119,-1.36 -11.56,-1.36 -17,0 -2.72,0.68 -5.439,-0.681 -4.76,-3.4 0.681,-8.16 2.04,-16.32 3.4,-23.8 -1.359,-2.719 0.001,-4.759 3.4,-4.759 z"
           id="path883" />
        <path
           style="fill:#7c74b0;fill-opacity:0.32160806"
           inkscape:connector-curvature="0"
           d="m 286.28,176.7 c -1.359,-16.32 -4.76,-31.96 -8.84,-47.6 -3.399,-12.92 -10.88,-17.681 -10.88,-17.681 -3.399,-3.399 -7.479,-5.439 -12.24,-4.08 -8.84,2.721 -17,7.48 -24.479,12.921 -13.6,9.52 -23.8,22.439 -34,35.359 -6.12,7.48 -10.88,17.68 -11.561,27.88 -1.359,21.08 -0.68,41.48 8.841,61.2 6.8,14.96 19.72,24.48 33.319,31.96 6.801,4.08 15.641,1.36 23.12,0 14.96,-1.359 31.28,-8.84 34.681,-30.6 0.68,-3.4 0.68,-6.12 0.68,-9.521 C 289,216.14 288.32,196.42 286.28,176.7 Z"
           id="path885" />
        <path
           style="fill:#7c74b0;fill-opacity:0.32160806"
           inkscape:connector-curvature="0"
           d="m 204,295.7 c -6.8,-12.24 -17,-23.12 -24.48,-34.68 -4.08,-6.8 -9.52,-11.561 -14.96,-15.641 -6.12,-4.76 -12.24,-4.76 -18.359,-0.68 -5.44,2.72 -9.521,7.48 -12.921,12.24 -14.96,23.12 -26.52,48.28 -29.239,76.84 0,2.04 0,12.92 0.68,14.96 0.68,6.12 2.72,11.561 4.76,17 6.8,21.76 21.08,34 44.2,36.04 5.44,1.36 10.88,0.68 17,0 0,0 5.44,-0.68 9.521,-4.76 v 0 c 13.6,-7.48 20.399,-21.08 28.56,-33.32 3.4,-4.76 5.44,-10.2 6.8,-15.64 C 216.24,329.02 212.84,312.02 204,295.7 Z"
           id="path887" />
        <path
           style="fill:#7c74b0;fill-opacity:0.32160806"
           inkscape:connector-curvature="0"
           d="m 505.92,369.82 c 0.68,-2.72 2.04,-5.44 2.72,-8.16 8.84,-34 -2.04,-51.68 -2.04,-51.68 v 0 c 0,-0.68 -0.68,-1.36 -0.68,-1.36 -4.08,-7.479 -7.48,-16.319 -10.881,-24.479 -5.439,-12.92 -12.239,-25.16 -22.439,-34 -16.32,-14.96 -34,-17.681 -46.92,4.76 -2.72,4.08 -4.76,8.16 -7.48,12.24 -11.56,19.04 -17.68,40.12 -27.88,59.84 -14.96,27.88 4.76,79.56 34.681,87.04 21.079,4.76 39.439,2.04 55.76,-10.88 6.12,-4.761 12.24,-10.2 16.319,-16.32 2.72,-3.401 6.119,-8.841 8.84,-17.001 z"
           id="path889" />
        <path
           style="fill:#7c74b0;fill-opacity:0.32160806"
           inkscape:connector-curvature="0"
           d="m 448.8,455.5 c -3.4,-4.079 -15.641,-21.079 -16.32,-21.76 -6.12,-6.12 -11.56,-9.52 -16.32,-10.88 -6.8,-2.72 -12.92,-6.12 -18.359,-10.88 -3.4,-4.08 -7.48,-7.48 -10.2,-12.24 -9.521,-14.28 -18.36,-29.24 -27.2,-43.52 -6.12,-10.2 -12.92,-18.36 -22.439,-25.16 -18.36,-11.561 -38.08,-17 -59.16,-10.2 -19.04,6.12 -35.36,17.68 -47.6,34 -13.601,17.68 -28.561,34.68 -43.521,51 -12.24,12.92 -26.52,23.8 -37.4,38.76 -14.279,19.721 -16.319,40.801 -13.6,63.24 1.36,14.96 7.48,27.88 18.36,38.08 10.2,9.521 23.8,14.96 36.72,19.72 4.76,1.36 10.2,3.4 14.96,3.4 v 0 h 0.68 c 0.681,0 17,-0.68 26.521,-3.4 4.76,-0.68 9.52,-2.04 13.6,-4.76 v 0 0 c 12.24,-8.84 25.16,-10.88 39.44,-12.92 21.079,-2.72 40.8,0 59.84,6.12 27.2,8.16 53.04,12.92 79.56,-1.36 16.32,-8.84 28.561,-20.399 31.96,-38.08 4.757,-20.4 3.398,-41.48 -9.522,-59.16 z"
           id="path891" />
      </g>
      <g
         transform="translate(5.4806548,-0.28348217)"
         style="fill:#b32e00;fill-opacity:1"
         id="g871">
        <g
           id="g915">
          <g
             style="fill:#fff600;fill-opacity:1"
             id="g929">
            <text
               xml:space="preserve"
               style="font-style:normal;font-variant:normal;font-weight:normal;font-stretch:normal;font-size:10.58333302px;line-height:643.40002441;font-family:'Liberation Sans';-inkscape-font-specification:'Liberation Sans';letter-spacing:0px;word-spacing:0px;fill:#00ccff;fill-opacity:1;stroke:none;stroke-width:0.26458332"
               x="87.636673"
               y="54.390076"
               id="text4520"><tspan
                 sodipodi:role="line"
                 id="tspan4518"
                 x="87.636673"
                 y="54.390076"
                 style="font-style:normal;font-variant:normal;font-weight:normal;font-stretch:normal;line-height:1000;font-family:'HERMAN(RUS BY LYAJKA)';-inkscape-font-specification:'HERMAN(RUS BY LYAJKA)';fill:#00ccff;fill-opacity:1;stroke-width:0.26458332">КОТО</tspan></text>
            <text
               xml:space="preserve"
               style="font-style:normal;font-variant:normal;font-weight:normal;font-stretch:normal;font-size:10.58333302px;line-height:1.25;font-family:'Liberation Sans';-inkscape-font-specification:'Liberation Sans';letter-spacing:0px;word-spacing:0px;fill:#fff600;fill-opacity:1;stroke:none;stroke-width:0.26458332"
               x="122.66425"
               y="54.422493"
               id="text4524"><tspan
                 sodipodi:role="line"
                 id="tspan4522"
                 x="122.66425"
                 y="54.422493"
                 style="font-style:normal;font-variant:normal;font-weight:normal;font-stretch:normal;font-family:'HERMAN(RUS BY LYAJKA)';-inkscape-font-specification:'HERMAN(RUS BY LYAJKA)';fill:#fff600;fill-opacity:1;stroke-width:0.26458332">ФOTO</tspan></text>
          </g>
          <flowRoot
             style="font-style:normal;font-variant:normal;font-weight:normal;font-stretch:normal;font-size:40px;line-height:1000;font-family:'Liberation Sans';-inkscape-font-specification:'Liberation Sans';letter-spacing:0px;word-spacing:0px;fill:#000000;fill-opacity:1;stroke:none"
             id="flowRoot917"
             xml:space="preserve"><flowRegion
               id="flowRegion919"><rect
                 y="269.66254"
                 x="318.57144"
                 height="131.78572"
                 width="277.14285"
                 id="rect921" /></flowRegion><flowPara
               id="flowPara923" /></flowRoot>        </g>
      </g>
    </g>
  </g>
</svg>
