<?xml version="1.0" standalone="no"?>
<!DOCTYPE svg PUBLIC "-//W3C//DTD SVG 1.1//EN" "http://www.w3.org/Graphics/SVG/1.1/DTD/svg11.dtd" >
<svg>
<metadata>
Created by FontForge 20090914 at Sun Jul  5 19:48:34 2020
 By www-data
Digitized data copyright 2012-2016, The Mozilla Foundation and Telefonica S.A.
</metadata>
<defs>
<font id="FiraSansCondensed-Medium" horiz-adv-x="504" >
  <font-face 
    font-family="Fira Sans Condensed Medium"
    font-weight="500"
    font-stretch="condensed"
    units-per-em="1000"
    panose-1="2 11 6 3 5 0 0 2 0 4"
    ascent="800"
    descent="-200"
    x-height="529"
    cap-height="691"
    bbox="-701 -353 1360 1148"
    underline-thickness="50"
    underline-position="-50"
    unicode-range="U+000D-U+FEFF"
  />
<missing-glyph horiz-adv-x="666" 
d="M543 1050v-1400h-420v1400h420zM489 998h-311v-1296h311v1296zM409.5 419c17 -21.333 25.4961 -49.002 25.4961 -83.002c0 -35.333 -7.5 -62.666 -22.5 -81.999s-39.167 -31.333 -72.5 -36v-45c0 -7.33301 -2.5 -13.166 -7.5 -17.499s-10.833 -6.5 -17.5 -6.5
s-12.5 2.16699 -17.5 6.5s-7.5 10.166 -7.5 17.499v84c35.333 2 59.333 8.5 72 19.5s19 30.167 19 57.5c0 22 -4.33301 39 -13 51s-24.667 18 -48 18c-19.333 0 -36.666 -3.66699 -51.999 -11c-5.33301 -2 -9.66602 -3 -12.999 -3c-7.33301 0 -13.166 2.16699 -17.499 6.5
s-6.5 9.83301 -6.5 16.5c0 12.667 9.83301 22.334 29.5 29.001s40.834 10 63.501 10c40 0 68.5 -10.667 85.5 -32zM339.996 109.998c6.66699 -6.66699 10 -15 10 -25c0 -10.667 -3.33301 -19.5 -10 -26.5s-15 -10.5 -25 -10.5s-18.333 3.5 -25 10.5s-10 15.833 -10 26.5
c0 10 3.33301 18.333 10 25s15 10 25 10s18.333 -3.33301 25 -10z" />
    <glyph glyph-name="fi" unicode="fi" horiz-adv-x="536" 
d="M420 716l-37.001 -81c-33.333 16 -67.666 24 -102.999 24c-27.333 0 -46.5 -5.5 -57.5 -16.5s-16.5 -28.833 -16.5 -53.5v-60h264v-529h-125v439h-139v-439h-125v439h-75v90h75v63c0 48 15.333 87 46 117s77.667 45 141 45c54 0 104.667 -12.667 152 -38z" />
    <glyph glyph-name="fl" unicode="fl" horiz-adv-x="562" 
d="M556 4c-25.333 -12.667 -52.666 -19 -81.999 -19c-38 0 -67.5 11.167 -88.5 33.5s-31.5 53.833 -31.5 94.5v536c-28.667 8 -55.334 12 -80.001 12c-26 0 -43.833 -5.33301 -53.5 -16s-14.5 -28 -14.5 -52v-64h97l-14 -90h-83v-439h-125v439h-75v90h75v65
c0 47.333 15 85.833 45 115.5s73.667 44.5 131 44.5c35.333 0 71 -6 107 -18l115 13v-629c0 -22.667 8.66699 -34 26 -34c8.66699 0 17 1.33301 25 4z" />
    <glyph glyph-name=".notdef" horiz-adv-x="666" 
d="M543 1050v-1400h-420v1400h420zM489 998h-311v-1296h311v1296zM409.5 419c17 -21.333 25.4961 -49.002 25.4961 -83.002c0 -35.333 -7.5 -62.666 -22.5 -81.999s-39.167 -31.333 -72.5 -36v-45c0 -7.33301 -2.5 -13.166 -7.5 -17.499s-10.833 -6.5 -17.5 -6.5
s-12.5 2.16699 -17.5 6.5s-7.5 10.166 -7.5 17.499v84c35.333 2 59.333 8.5 72 19.5s19 30.167 19 57.5c0 22 -4.33301 39 -13 51s-24.667 18 -48 18c-19.333 0 -36.666 -3.66699 -51.999 -11c-5.33301 -2 -9.66602 -3 -12.999 -3c-7.33301 0 -13.166 2.16699 -17.499 6.5
s-6.5 9.83301 -6.5 16.5c0 12.667 9.83301 22.334 29.5 29.001s40.834 10 63.501 10c40 0 68.5 -10.667 85.5 -32zM339.996 109.998c6.66699 -6.66699 10 -15 10 -25c0 -10.667 -3.33301 -19.5 -10 -26.5s-15 -10.5 -25 -10.5s-18.333 3.5 -25 10.5s-10 15.833 -10 26.5
c0 10 3.33301 18.333 10 25s15 10 25 10s18.333 -3.33301 25 -10z" />
    <glyph glyph-name="nonmarkingreturn" unicode="&#xd;" horiz-adv-x="221" 
 />
    <glyph glyph-name="space" unicode=" " horiz-adv-x="221" 
 />
    <glyph glyph-name="exclam" unicode="!" horiz-adv-x="229" 
d="M181 691l-16 -448h-101l-17 448h134zM170.5 120c15 -15.333 22.5 -34 22.5 -56c0 -21.333 -7.5 -39.833 -22.5 -55.5s-33.833 -23.5 -56.5 -23.5c-22 0 -40.5 7.83301 -55.5 23.5s-22.5 34.167 -22.5 55.5c0 22 7.5 40.667 22.5 56s33.5 23 55.5 23
c22.667 0 41.5 -7.66699 56.5 -23z" />
    <glyph glyph-name="quotedbl" unicode="&#x22;" horiz-adv-x="406" 
d="M65 421l-15 270h115l-16 -270h-84zM257 421l-15 270h115l-16 -270h-84z" />
    <glyph glyph-name="numbersign" unicode="#" horiz-adv-x="491" 
d="M477 444h-63l-27 -204h57v-86h-68l-20 -154h-102l20 154h-108l-20 -154h-101l20 154h-52v86h63l27 204h-57v86h68l19 143h102l-19 -143h108l19 143h101l-19 -143h52v-86zM286 240l27 204h-108l-27 -204h108z" />
    <glyph glyph-name="dollar" unicode="$" horiz-adv-x="490" 
d="M419 65.5c-29.333 -35.667 -69.998 -58.835 -121.998 -69.502v-154h-93v148c-76.667 5.33301 -141 35.333 -193 90l64 70c23.333 -21.333 47.166 -37.5 71.499 -48.5s51.166 -16.5 80.499 -16.5c33.333 0 59.5 9 78.5 27s28.5 42.667 28.5 74
c0 28 -8.16699 50.167 -24.5 66.5s-47.166 32.5 -92.499 48.5c-64 22.667 -110.167 49.334 -138.5 80.001s-42.5 70.334 -42.5 119.001c0 46.667 15.5 86.334 46.5 119.001s71.5 53 121.5 61v147h93v-148c56 -8 105.667 -33.667 149 -77l-61 -69
c-20.667 18.667 -41.5 32.5 -62.5 41.5s-43.833 13.5 -68.5 13.5c-28 0 -50.167 -7.16699 -66.5 -21.5s-24.5 -33.833 -24.5 -58.5c0 -16.667 3.5 -30.834 10.5 -42.501s19.167 -22.5 36.5 -32.5s42.666 -20.667 75.999 -32c60 -22 104.5 -48.167 133.5 -78.5
s43.5 -73.5 43.5 -129.5c0 -49.333 -14.667 -91.833 -44 -127.5z" />
    <glyph glyph-name="percent" unicode="%" horiz-adv-x="772" 
d="M557 715l78 -47l-418 -703l-78 47zM302.5 638.5c29 -31 43.5 -73.833 43.5 -128.5c0 -54 -14.5 -96.5 -43.5 -127.5s-66.5 -46.5 -112.5 -46.5c-44.667 0 -81.667 15.5 -111 46.5s-44 73.5 -44 127.5c0 54.667 14.667 97.5 44 128.5s66.333 46.5 111 46.5
c46 0 83.5 -15.5 112.5 -46.5zM141 581.5c-9.33301 -17 -14.002 -40.833 -14.002 -71.5c0 -30 4.83301 -53.667 14.5 -71s25.834 -26 48.501 -26c23.333 0 39.5 8.33301 48.5 25s13.5 40.667 13.5 72c0 30.667 -4.5 54.5 -13.5 71.5s-25.167 25.5 -48.5 25.5
s-39.666 -8.5 -48.999 -25.5zM693.498 287.5c29 -31 43.5 -73.833 43.5 -128.5c0 -54 -14.5 -96.5 -43.5 -127.5s-66.167 -46.5 -111.5 -46.5s-82.833 15.5 -112.5 46.5s-44.5 73.5 -44.5 127.5c0 54.667 14.833 97.5 44.5 128.5s67.167 46.5 112.5 46.5
s82.5 -15.5 111.5 -46.5zM532.998 231c-9.33301 -16.667 -14 -40.668 -14 -72.001c0 -30 4.66699 -53.5 14 -70.5s25.666 -25.5 48.999 -25.5c22.667 0 38.667 8.33301 48 25s14 40.334 14 71.001s-4.66699 54.5 -14 71.5s-25.333 25.5 -48 25.5
c-23.333 0 -39.666 -8.33301 -48.999 -25z" />
    <glyph glyph-name="ampersand" unicode="&#x26;" horiz-adv-x="678" 
d="M416.5 662c33.667 -29.333 50.4971 -67.332 50.4971 -113.999c0 -38.667 -10.667 -72.5 -32 -101.5s-52 -56.833 -92 -83.5l136 -147c20 49.333 35.667 100.666 47 153.999l104 -29c-22 -74 -49.333 -138 -82 -192l107 -106l-100 -58l-79 86
c-55.333 -57.333 -121.666 -86 -198.999 -86c-42 0 -79.333 8 -112 24s-58 38.5 -76 67.5s-27 62.167 -27 99.5c0 40.667 10.167 76 30.5 106s51.833 60.333 94.5 91c-32.667 33.333 -55.667 62.333 -69 87s-20 53 -20 85c0 46 15.833 84.333 47.5 115s76.834 46 135.501 46
c56.667 0 101.834 -14.667 135.501 -44zM234.997 601.501c-11.333 -13 -17 -31.833 -17 -56.5c0 -21.333 4.33301 -40.5 13 -57.5s23.667 -37.5 45 -61.5c24.667 20 42.667 38.833 54 56.5s17 38.5 17 62.5c0 25.333 -5.5 44.333 -16.5 57s-26.833 19 -47.5 19
s-36.667 -6.5 -48 -19.5zM207.497 248.501c-10.333 -19.667 -15.5 -42.167 -15.5 -67.5c0 -32.667 9.33301 -58 28 -76s44 -27 76 -27c44.667 0 83.667 18.667 117 56l-157 171c-22 -18 -38.167 -36.833 -48.5 -56.5z" />
    <glyph glyph-name="quotesingle" unicode="'" horiz-adv-x="215" 
d="M65 421l-15 270h115l-16 -270h-84z" />
    <glyph glyph-name="parenleft" unicode="(" horiz-adv-x="296" 
d="M275 798c-44.667 -71.333 -76.834 -139.497 -96.501 -204.497s-29.5 -146.167 -29.5 -243.5c0 -96.667 9.83301 -177.667 29.5 -243s51.834 -133.666 96.501 -204.999l-80 -54c-37.333 55.333 -67.666 105.166 -90.999 149.499s-42.666 95.666 -57.999 153.999
s-23 124.5 -23 198.5s7.66699 140.167 23 198.5s34.666 109.666 57.999 153.999s53.666 94.166 90.999 149.499z" />
    <glyph glyph-name="parenright" unicode=")" horiz-adv-x="296" 
d="M193.5 700c23 -43.333 42 -94 57 -152s22.5 -124 22.5 -198s-7.5 -140 -22.5 -198s-34 -108.667 -57 -152s-53.833 -94 -92.5 -152l-80 54c44 72 76 140.667 96 206s30 146 30 242s-10 176.667 -30 242s-52 134 -96 206l80 54c38.667 -58 69.5 -108.667 92.5 -152z" />
    <glyph glyph-name="asterisk" unicode="*" horiz-adv-x="413" 
d="M397 548l-131 -27l95 -110l-91 -61l-64 127l-63 -127l-90 60l94 110l-131 28l34 98l120 -58l-18 153h109l-18 -154l120 60z" />
    <glyph glyph-name="plus" unicode="+" horiz-adv-x="470" 
d="M287 532v-151h136v-99h-136v-151h-105v151h-135v99h135v151h105z" />
    <glyph glyph-name="comma" unicode="," horiz-adv-x="223" 
d="M166.5 121.5c14.333 -15 21.5 -33.832 21.5 -56.499c0 -11.333 -1.83301 -23.333 -5.5 -36s-10.167 -30.334 -19.5 -53.001l-59 -147h-73l39 170c-11.333 7.33301 -20 16.833 -26 28.5s-9 24.167 -9 37.5c0 22.667 7.16699 41.5 21.5 56.5s32.5 22.5 54.5 22.5
c22.667 0 41.167 -7.5 55.5 -22.5z" />
    <glyph glyph-name="hyphen" unicode="-" horiz-adv-x="371" 
d="M47 263v100h277v-100h-277z" />
    <glyph glyph-name="period" unicode="." horiz-adv-x="226" 
d="M168.5 120c15 -15.333 22.5 -34 22.5 -56c0 -21.333 -7.5 -39.833 -22.5 -55.5s-33.833 -23.5 -56.5 -23.5c-22 0 -40.333 7.83301 -55 23.5s-22 34.167 -22 55.5c0 22 7.33301 40.667 22 56s33 23 55 23c22.667 0 41.5 -7.66699 56.5 -23z" />
    <glyph glyph-name="slash" unicode="/" horiz-adv-x="468" 
d="M288 812l106 -24l-213 -896l-107 24z" />
    <glyph glyph-name="zero" unicode="0" horiz-adv-x="533" 
d="M432 596.5c37.333 -59 56 -145.832 56 -260.499c0 -116.667 -18.667 -204.334 -56 -263.001s-92.333 -88 -165 -88s-127.834 29.5 -165.501 88.5s-56.5 146.5 -56.5 262.5s18.833 203.167 56.5 261.5s92.834 87.5 165.501 87.5s127.667 -29.5 165 -88.5zM214 566.501
c-13.333 -15.667 -23.333 -41.998 -30 -78.998s-10 -87.5 -10 -151.5c0 -65.333 3.33301 -116.5 10 -153.5s16.667 -63.333 30 -79s31 -23.5 53 -23.5s39.667 7.66699 53 23s23.333 41.666 30 78.999s10 88.666 10 153.999s-3.33301 116.333 -10 153s-16.667 62.667 -30 78
s-31 23 -53 23s-39.667 -7.83301 -53 -23.5z" />
    <glyph glyph-name="one" unicode="1" horiz-adv-x="409" 
d="M326 673v-673h-123v547l-133 -90l-55 82l200 134h111z" />
    <glyph glyph-name="two" unicode="2" horiz-adv-x="455" 
d="M315.5 660.5c30.333 -16.333 53.5 -38.501 69.5 -66.501s24 -59.667 24 -95c0 -38 -7.33301 -74.5 -22 -109.5s-39.167 -74.167 -73.5 -117.5s-84.833 -101 -151.5 -173h260l-13 -99h-384v92c74 84 128.167 147.833 162.5 191.5s58.333 80.834 72 111.501
s20.5 62.667 20.5 96c0 30.667 -7.5 54.167 -22.5 70.5s-35.5 24.5 -61.5 24.5c-22 0 -41.5 -5.33301 -58.5 -16s-35.5 -28 -55.5 -52l-75 58c51.333 72.667 118 109 200 109c42 0 78.167 -8.16699 108.5 -24.5z" />
    <glyph glyph-name="three" unicode="3" horiz-adv-x="463" 
d="M315.5 662c29.667 -15.333 52.333 -36.0049 68 -62.0049s23.5 -54.667 23.5 -86c0 -41.333 -11 -75.166 -33 -101.499s-53.667 -45.166 -95 -56.499c44.667 -5.33301 80.5 -21.666 107.5 -48.999s40.5 -65.666 40.5 -114.999c0 -38 -9 -72.667 -27 -104
s-43.833 -56.333 -77.5 -75s-73.5 -28 -119.5 -28c-42 0 -79.5 8.16699 -112.5 24.5s-62.833 40.5 -89.5 72.5l71 63c21.333 -22 41.5 -38 60.5 -48s40.167 -15 63.5 -15c31.333 0 56.333 10.167 75 30.5s28 48.5 28 84.5c0 39.333 -9.33301 67.5 -28 84.5
s-46.667 25.5 -84 25.5h-46l14 89h31c30.667 0 55.167 9 73.5 27s27.5 43.667 27.5 77c0 28.667 -8 50.834 -24 66.501s-38 23.5 -66 23.5c-42.667 0 -82 -18.667 -118 -56l-64 65c56 57.333 121.333 86 196 86c40 0 74.833 -7.66699 104.5 -23z" />
    <glyph glyph-name="four" unicode="4" horiz-adv-x="500" 
d="M479 251v-96h-71v-155h-120l-1 155h-259v86l175 445l106 -39l-154 -396h133l14 170h106v-170h71z" />
    <glyph glyph-name="five" unicode="5" horiz-adv-x="476" 
d="M401 580h-226v-170c31.333 16.667 62.333 25 93 25c52 0 94 -19.167 126 -57.5s48 -91.166 48 -158.499c0 -46 -9.5 -86.667 -28.5 -122s-45.833 -62.833 -80.5 -82.5s-75 -29.5 -121 -29.5c-42 0 -78.667 8.16699 -110 24.5s-60 39.5 -86 69.5l71 65
c18 -20.667 36.5 -36.167 55.5 -46.5s40.5 -15.5 64.5 -15.5c34 0 60.333 11.667 79 35s28 57.333 28 102c0 84.667 -30.667 127 -92 127c-13.333 0 -26 -1.83301 -38 -5.5s-25.333 -9.83398 -40 -18.501h-87v351h359z" />
    <glyph glyph-name="six" unicode="6" horiz-adv-x="510" 
d="M396 422c26 -16.667 46.499 -41.498 61.499 -74.498s22.5 -72.5 22.5 -118.5c0 -48.667 -8.83301 -91.334 -26.5 -128.001s-42.5 -65.167 -74.5 -85.5s-69 -30.5 -111 -30.5c-76 0 -132.167 28.5 -168.5 85.5s-54.5 137.167 -54.5 240.5c0 76 10.333 142.167 31 198.5
s50.167 99.666 88.5 129.999s83.5 45.5 135.5 45.5c50.667 0 95.334 -14.333 134.001 -43l-46 -76c-28 17.333 -56.333 26 -85 26c-38 0 -68.333 -18.667 -91 -56s-35.667 -91.333 -39 -162c34.667 48.667 80 73 136 73c32 0 61 -8.33301 87 -25zM334.499 328.502
c-13.667 19.667 -33.1621 29.501 -58.4951 29.501c-18.667 0 -36.834 -6.5 -54.501 -19.5s-33.834 -30.833 -48.501 -53.5c1.33301 -74.667 9.16602 -127.834 23.499 -159.501s38.166 -47.5 71.499 -47.5c29.333 0 51.166 13 65.499 39s21.5 64 21.5 114
c0 45.333 -6.83301 77.833 -20.5 97.5z" />
    <glyph glyph-name="seven" unicode="7" horiz-adv-x="415" 
d="M396 673v-88l-224 -598l-112 37l209 552h-254v97h381z" />
    <glyph glyph-name="eight" unicode="8" horiz-adv-x="515" 
d="M453.5 285c21 -29.333 31.502 -64.002 31.502 -104.002c0 -38 -9.33301 -71.833 -28 -101.5s-45.334 -52.834 -80.001 -69.501s-75.334 -25 -122.001 -25c-46 0 -85.833 8.33301 -119.5 25s-59.5 39.5 -77.5 68.5s-27 62.167 -27 99.5
c0 40.667 10.167 74.834 30.5 102.501s50.5 50.5 90.5 68.5c-34 20 -58.667 43 -74 69s-23 56 -23 90c0 36.667 8.83301 68.334 26.5 95.001s41.834 47 72.501 61s65 21 103 21c59.333 0 108.166 -15 146.499 -45s57.5 -72.333 57.5 -127c0 -32 -8.5 -60.5 -25.5 -85.5
s-43.833 -47.167 -80.5 -66.5c44.667 -21.333 77.5 -46.666 98.5 -75.999zM175.002 505.998c0 -27.333 6.66797 -48.668 20.001 -64.001s35.333 -29.666 66 -42.999l17 -7c23.333 16 39.666 33 48.999 51s14 39.333 14 64c0 30 -7 52.667 -21 68s-34.667 23 -62 23
c-55.333 0 -83 -30.667 -83 -92zM334.003 104.496c17.333 17.667 26 43.167 26 76.5c0 31.333 -7.83301 55.833 -23.5 73.5s-43.5 34.5 -83.5 50.5l-26 11c-47.333 -28 -71 -72.667 -71 -134c0 -34.667 8.83301 -60.667 26.5 -78s42.834 -26 75.501 -26
c33.333 0 58.666 8.83301 75.999 26.5z" />
    <glyph glyph-name="nine" unicode="9" horiz-adv-x="501" 
d="M408 615.5c37.333 -46.333 56.001 -110.498 56.001 -192.498c0 -91.333 -12.833 -165.833 -38.5 -223.5s-64.5 -103.834 -116.5 -138.501s-121.333 -63.334 -208 -86.001l-26 89c80 22.667 140.333 52.334 181 89.001s65.667 87.667 75 153
c-33.333 -44.667 -76 -67 -128 -67c-31.333 0 -60.333 8.83301 -87 26.5s-47.834 43 -63.501 76s-23.5 71.5 -23.5 115.5c0 47.333 9.5 88.166 28.5 122.499s45 60.5 78 78.5s69.833 27 110.5 27c70.667 0 124.667 -23.167 162 -69.5zM336.001 400.002
c0.666992 71.333 -5.83301 121.333 -19.5 150s-37.167 43 -70.5 43c-28.667 0 -51 -11 -67 -33s-24 -55.667 -24 -101c0 -44.667 7.5 -77.5 22.5 -98.5s35.167 -31.5 60.5 -31.5c39.333 0 72 23.667 98 71z" />
    <glyph glyph-name="colon" unicode=":" horiz-adv-x="226" 
d="M168.5 120c15 -15.333 22.5 -34 22.5 -56c0 -21.333 -7.5 -39.833 -22.5 -55.5s-33.833 -23.5 -56.5 -23.5c-22 0 -40.333 7.83301 -55 23.5s-22 34.167 -22 55.5c0 22 7.33301 40.667 22 56s33 23 55 23c22.667 0 41.5 -7.66699 56.5 -23zM168.5 476
c15 -15.333 22.5 -34 22.5 -56c0 -21.333 -7.5 -39.833 -22.5 -55.5s-33.833 -23.5 -56.5 -23.5c-22 0 -40.333 7.83301 -55 23.5s-22 34.167 -22 55.5c0 22 7.33301 40.667 22 56s33 23 55 23c22.667 0 41.5 -7.66699 56.5 -23z" />
    <glyph glyph-name="semicolon" unicode=";" horiz-adv-x="226" 
d="M166.5 121.5c14.333 -15 21.5 -33.832 21.5 -56.499c0 -11.333 -1.83301 -23.333 -5.5 -36s-10.167 -30.334 -19.5 -53.001l-59 -147h-73l39 170c-11.333 7.33301 -20 16.833 -26 28.5s-9 24.167 -9 37.5c0 22.667 7.16699 41.5 21.5 56.5s32.5 22.5 54.5 22.5
c22.667 0 41.167 -7.5 55.5 -22.5zM168.5 476.001c15 -15.333 22.5 -34 22.5 -56c0 -21.333 -7.5 -39.833 -22.5 -55.5s-33.833 -23.5 -56.5 -23.5c-22 0 -40.333 7.83301 -55 23.5s-22 34.167 -22 55.5c0 22 7.33301 40.667 22 56s33 23 55 23
c22.667 0 41.5 -7.66699 56.5 -23z" />
    <glyph glyph-name="less" unicode="&#x3c;" horiz-adv-x="462" 
d="M385 560l43 -90l-292 -137l292 -136l-43 -91l-351 170v114z" />
    <glyph glyph-name="equal" unicode="=" horiz-adv-x="462" 
d="M47 383v98h368v-98h-368zM47 181v98h368v-98h-368z" />
    <glyph glyph-name="greater" unicode="&#x3e;" horiz-adv-x="462" 
d="M77 560l351 -170v-114l-351 -170l-43 91l292 136l-292 137z" />
    <glyph glyph-name="question" unicode="?" horiz-adv-x="434" 
d="M327 683.5c28.667 -15 50.165 -34.665 64.498 -58.998s21.5 -50.833 21.5 -79.5c0 -26 -4.16699 -48.167 -12.5 -66.5s-18.166 -33.5 -29.499 -45.5s-26.666 -25.333 -45.999 -40c-24.667 -18.667 -43.167 -36 -55.5 -52s-18.5 -37 -18.5 -63v-35h-116v40
c0 29.333 4.16699 54.166 12.5 74.499s18.5 36.666 30.5 48.999s27.333 25.833 46 40.5c20.667 15.333 36 29.333 46 42s15 29 15 49c0 21.333 -6.5 38 -19.5 50s-31.167 18 -54.5 18c-40.667 0 -78.334 -21.333 -113.001 -64l-78 61c52 68.667 119.667 103 203 103
c40.667 0 75.334 -7.5 104.001 -22.5zM250.998 120.002c14.667 -15.333 22 -34 22 -56c0 -21.333 -7.33301 -39.833 -22 -55.5s-33.334 -23.5 -56.001 -23.5c-22 0 -40.5 7.83301 -55.5 23.5s-22.5 34.167 -22.5 55.5c0 22 7.5 40.667 22.5 56s33.5 23 55.5 23
c22.667 0 41.334 -7.66699 56.001 -23z" />
    <glyph glyph-name="at" unicode="@" horiz-adv-x="924" 
d="M629 454l0.00292969 -251.999c0 -42 3.66699 -71 11 -87s19.666 -24 36.999 -24c54 0 81 73 81 219c0 95.333 -23.667 169.333 -71 222s-117.333 79 -210 79c-64.667 0 -120.334 -15.333 -167.001 -46s-82.167 -74 -106.5 -130s-36.5 -120.667 -36.5 -194
c0 -114.667 26.667 -203.834 80 -267.501s130 -95.5 230 -95.5c30.667 0 61.334 3.16699 92.001 9.5s58.667 14.5 84 24.5l30 -88c-66 -27.333 -135 -41 -207 -41c-85.333 0 -160 18.5 -224 55.5s-113.333 90 -148 159s-52 150.167 -52 243.5
c0 89.333 18 169.166 54 239.499s86.333 125.5 151 165.5s138 60 220 60s152.833 -17.667 212.5 -53s105 -83 136 -143s46.5 -126 46.5 -198c0 -58 -7.83301 -110.167 -23.5 -156.5s-37.834 -82.833 -66.501 -109.5s-62.334 -40 -101.001 -40
c-32 0 -58.167 9.83301 -78.5 29.5s-33.5 42.834 -39.5 69.501c-11.333 -28 -27.833 -51 -49.5 -69s-48.167 -27 -79.5 -27c-52.667 0 -93 20 -121 60s-42 94.333 -42 163c0 84.667 18.167 150 54.5 196s86.5 69 150.5 69c55.333 0 106.333 -14.333 153 -43z
M522.003 147.001v259c-16.667 6.66699 -32.667 10 -48 10c-29.333 0 -51.333 -14.333 -66 -43s-22 -75.667 -22 -141c0 -50.667 5 -86.667 15 -108s26.333 -32 49 -32c28.667 0 52.667 18.333 72 55z" />
    <glyph glyph-name="A" unicode="A" horiz-adv-x="535" 
d="M404 0l-38 161h-200l-38 -161h-131l192 691h158l191 -691h-134zM188 259h156l-78 333z" />
    <glyph glyph-name="B" unicode="B" horiz-adv-x="554" 
d="M485 314c27.333 -25.333 41.001 -63.668 41.001 -115.001c0 -69.333 -23.833 -119.833 -71.5 -151.5s-113.167 -47.5 -196.5 -47.5h-189v691h165c85.333 0 150.833 -14.5 196.5 -43.5s68.5 -73.167 68.5 -132.5c0 -40 -11.5 -72.5 -34.5 -97.5s-52.5 -42.167 -88.5 -51.5
c45.333 -9.33301 81.666 -26.666 108.999 -51.999zM199.001 595.998v-190h59c36 0 63.333 8.33301 82 25s28 41 28 73c0 32.667 -9.83301 56.167 -29.5 70.5s-50.5 21.5 -92.5 21.5h-47zM358.001 120.998c22.667 16 34 43.667 34 83c0 74.667 -41.667 112 -125 112h-68v-219
h60c43.333 0 76.333 8 99 24z" />
    <glyph glyph-name="C" unicode="C" horiz-adv-x="517" 
d="M414.5 688c29 -12 57.499 -30.001 85.499 -54.001l-64 -75c-37.333 31.333 -75.666 47 -114.999 47c-45.333 0 -81 -20.333 -107 -61s-39 -106.667 -39 -198c0 -89.333 13 -154.666 39 -195.999s62 -62 108 -62c24 0 45 4.5 63 13.5s38 22.167 60 39.5l62 -74
c-23.333 -24 -51 -43.833 -83 -59.5s-68 -23.5 -108 -23.5c-55.333 0 -103.833 13.5 -145.5 40.5s-74 67.667 -97 122s-34.5 120.833 -34.5 199.5c0 77.333 12 143 36 197s56.667 94.5 98 121.5s88.333 40.5 141 40.5c38 0 71.5 -6 100.5 -18z" />
    <glyph glyph-name="D" unicode="D" horiz-adv-x="589" 
d="M393.5 664c46.333 -18 84 -52.168 113 -102.501s43.5 -121.166 43.5 -212.499c0 -129.333 -28.5 -219.833 -85.5 -271.5s-130.167 -77.5 -219.5 -77.5h-176v691h161c62.667 0 117.167 -9 163.5 -27zM199 593.999l0.000976562 -497h55c51.333 0 91.166 18 119.499 54
s42.5 102 42.5 198c0 66.667 -7.16699 118 -21.5 154s-33.333 60.167 -57 72.5s-52.5 18.5 -86.5 18.5h-52z" />
    <glyph glyph-name="E" unicode="E" horiz-adv-x="476" 
d="M438 691l-14 -96h-225v-196h197v-95h-197v-207h241v-97h-371v691h369z" />
    <glyph glyph-name="F" unicode="F" horiz-adv-x="441" 
d="M69 0v691h359l-13 -96h-216v-210h188v-96h-188v-289h-130z" />
    <glyph glyph-name="G" unicode="G" horiz-adv-x="582" 
d="M439.5 685.5c32.333 -13.667 62.832 -33.835 91.499 -60.502l-67 -69c-22.667 18.667 -43.834 32 -63.501 40s-42.167 12 -67.5 12c-48 0 -86.5 -20.5 -115.5 -61.5s-43.5 -107.833 -43.5 -200.5c0 -65.333 5.16699 -117.166 15.5 -155.499s25.833 -65.666 46.5 -81.999
s47 -24.5 79 -24.5c34.667 0 66.334 8.66699 95.001 26v184h-90l-13 96h228v-337c-32 -21.333 -66.667 -38 -104 -50s-75.333 -18 -114 -18c-185.333 0 -278 120.333 -278 361c0 78 12.833 144 38.5 198s60.334 94.5 104.001 121.5s92.834 40.5 147.501 40.5
c41.333 0 78.166 -6.83301 110.499 -20.5z" />
    <glyph glyph-name="H" unicode="H" horiz-adv-x="606" 
d="M407 0v310h-208v-310h-130v691h130v-278h208v278h130v-691h-130z" />
    <glyph glyph-name="I" unicode="I" horiz-adv-x="268" 
d="M199 691v-691h-130v691h130z" />
    <glyph glyph-name="J" unicode="J" horiz-adv-x="283" 
d="M218 101c0 -73.333 -16.5 -128.668 -49.5 -166.001s-79.833 -66.666 -140.5 -87.999l-34 92c26.667 12 46.667 25 60 39s22.333 30.667 27 50s7 45.333 7 78v585h130v-590z" />
    <glyph glyph-name="K" unicode="K" horiz-adv-x="561" 
d="M199 691v-691h-130v691h130zM551 691l-212 -313l228 -378h-147l-217 369l212 322h136z" />
    <glyph glyph-name="L" unicode="L" horiz-adv-x="456" 
d="M199 691v-585h246l-14 -106h-362v691h130z" />
    <glyph glyph-name="M" unicode="M" horiz-adv-x="717" 
d="M674 0h-124l-15 291c-5.33301 112 -8 191.667 -8 239l1 42l-109 -497h-121l-115 498c0.666992 -20.667 1 -51.667 1 -93c0 -70 -1.33301 -134.333 -4 -193l-14 -287h-123l48 691h165l105 -486l98 486h167z" />
    <glyph glyph-name="N" unicode="N" horiz-adv-x="605" 
d="M536 0h-166l-202 563l3 -27c9.33301 -93.333 14 -176.333 14 -249v-287h-116v691h164l204 -563c-4 26 -7.83301 60.833 -11.5 104.5s-5.5 87.167 -5.5 130.5v328h116v-691z" />
    <glyph glyph-name="O" unicode="O" horiz-adv-x="628" 
d="M517 614.5c48.667 -61 73 -150.499 73 -268.499c0 -116.667 -24.333 -206 -73 -268s-116.334 -93 -203.001 -93c-86 0 -153.333 30.667 -202 92s-73 150.666 -73 267.999c0 116 24.333 205.167 73 267.5s116 93.5 202 93.5c86.667 0 154.334 -30.5 203.001 -91.5z
M210 546.001c-23.333 -40.667 -35 -107.667 -35 -201c0 -92.667 11.833 -159.334 35.5 -200.001s58.167 -61 103.5 -61c47.333 0 82.5 20.167 105.5 60.5s34.5 107.5 34.5 201.5c0 92.667 -11.5 159.334 -34.5 200.001s-58.167 61 -105.5 61c-46 0 -80.667 -20.333 -104 -61
z" />
    <glyph glyph-name="P" unicode="P" horiz-adv-x="534" 
d="M445.5 635.5c45.667 -37 68.5 -91.833 68.5 -164.5c0 -76 -22.833 -133.167 -68.5 -171.5s-108.5 -57.5 -188.5 -57.5h-58v-242h-130v691h179c86 0 151.833 -18.5 197.5 -55.5zM348 368.5c21.333 19.667 32 53.833 32 102.5c0 43.333 -10.667 75 -32 95
s-54.333 30 -99 30h-50v-257h50c44.667 0 77.667 9.83301 99 29.5z" />
    <glyph glyph-name="Q" unicode="Q" horiz-adv-x="628" 
d="M542.5 24.5c29 -11 56.832 -27.165 83.499 -48.498l-81 -101c-33.333 38.667 -67.833 67.167 -103.5 85.5s-80.5 27.5 -134.5 27.5s-101.167 13.5 -141.5 40.5s-71.5 67.167 -93.5 120.5s-33 118.666 -33 195.999c0 115.333 24.5 204.333 73.5 267s116.167 94 201.5 94
c86.667 0 154.334 -30.667 203.001 -92s73 -150.666 73 -267.999c0 -80.667 -13.167 -144.834 -39.5 -192.501s-62.833 -84.834 -109.5 -111.501c38.667 -0.666992 72.5 -6.5 101.5 -17.5zM210.499 145.002c23.667 -40.667 58.167 -60.998 103.5 -60.998
c47.333 0 82.5 20.167 105.5 60.5s34.5 107.5 34.5 201.5c0 93.333 -11.5 160.166 -34.5 200.499s-58.167 60.5 -105.5 60.5c-46 0 -80.667 -20.333 -104 -61s-35 -107.667 -35 -201c0 -92.667 11.833 -159.334 35.5 -200.001z" />
    <glyph glyph-name="R" unicode="R" horiz-adv-x="555" 
d="M270 278l-71 0.000976562v-278h-130v691h182c174 0 261 -67.667 261 -203c0 -44 -10.333 -81.833 -31 -113.5s-51.667 -55.834 -93 -72.501l161 -302h-143zM258 371.001c41.333 0 71.667 9.33301 91 28s29 48.334 29 89.001c0 37.333 -10.167 64.666 -30.5 81.999
s-52.833 26 -97.5 26h-51v-225h59z" />
    <glyph glyph-name="S" unicode="S" horiz-adv-x="507" 
d="M370.5 685c33 -14 63.5 -35.333 91.5 -64l-62 -71c-22 19.333 -44 33.666 -66 42.999s-45.667 14 -71 14c-28 0 -50.5 -7.33301 -67.5 -22s-25.5 -35 -25.5 -61c0 -17.333 3.5 -32 10.5 -44s19.5 -23.167 37.5 -33.5s44 -21.5 78 -33.5
c62 -22.667 108.167 -49.667 138.5 -81s45.5 -76.333 45.5 -135c0 -40.667 -9.66699 -77 -29 -109s-47.166 -57.167 -83.499 -75.5s-78.833 -27.5 -127.5 -27.5c-91.333 0 -167.666 31.333 -228.999 94l66 73c25.333 -22 50.5 -38.667 75.5 -50s52.5 -17 82.5 -17
c34 0 60.833 9.33301 80.5 28s29.5 44.334 29.5 77.001c0 29.333 -8.33301 52.5 -25 69.5s-48.334 33.5 -95.001 49.5c-66.667 23.333 -114.667 51 -144 83s-44 73 -44 123c0 36.667 9.33301 69.5 28 98.5s44.667 51.667 78 68s70.666 24.5 111.999 24.5
c44 0 82.5 -7 115.5 -21z" />
    <glyph glyph-name="T" unicode="T" horiz-adv-x="480" 
d="M477 691l-14 -102h-159v-589h-129v589h-166v102h468z" />
    <glyph glyph-name="U" unicode="U" horiz-adv-x="590" 
d="M531 208c0 -42.667 -9 -80.833 -27 -114.5s-44.667 -60.167 -80 -79.5s-78.333 -29 -129 -29c-76.667 0 -135.167 20.333 -175.5 61s-60.5 94.667 -60.5 162v483h130v-477c0 -43.333 8.5 -75.5 25.5 -96.5s43.833 -31.5 80.5 -31.5c36 0 62.667 10.667 80 32
s26 53.333 26 96v477h130v-483z" />
    <glyph glyph-name="V" unicode="V" horiz-adv-x="518" 
d="M521 691l-181 -691h-157l-186 691h134l133 -577l127 577h130z" />
    <glyph glyph-name="W" unicode="W" horiz-adv-x="762" 
d="M747 691l-111 -691h-168l-88 554l-91 -554h-165l-109 691h127l75 -588l96 588h137l94 -588l82 588h121z" />
    <glyph glyph-name="X" unicode="X" horiz-adv-x="512" 
d="M331 373l182 -373h-139l-121 286l-120 -286h-135l178 368l-163 323h139l103 -242l107 242h134z" />
    <glyph glyph-name="Y" unicode="Y" horiz-adv-x="523" 
d="M526 691l-200 -429v-262h-130v261l-199 430h139l128 -323l128 323h134z" />
    <glyph glyph-name="Z" unicode="Z" horiz-adv-x="481" 
d="M452 691v-100l-289 -485h292l-13 -106h-423v99l291 489h-262v103h404z" />
    <glyph glyph-name="bracketleft" unicode="[" horiz-adv-x="292" 
d="M262 819v-96h-104v-747h104v-96h-222v939h222z" />
    <glyph glyph-name="backslash" unicode="\" horiz-adv-x="468" 
d="M180 810l214 -894l-107 -24l-213 895z" />
    <glyph glyph-name="bracketright" unicode="]" horiz-adv-x="292" 
d="M252 819v-939h-222v96h105v747h-105v96h222z" />
    <glyph glyph-name="asciicircum" unicode="^" horiz-adv-x="499" 
d="M306 842l170 -315h-124l-104 216l-100 -216h-125l170 315h113z" />
    <glyph glyph-name="underscore" unicode="_" horiz-adv-x="471" 
d="M12 -156v101h447v-101h-447z" />
    <glyph glyph-name="grave" unicode="`" horiz-adv-x="301" 
d="M84 815l190 -122l-35 -63l-206 90z" />
    <glyph glyph-name="a" unicode="a" horiz-adv-x="495" 
d="M436 91.5c5.33301 -9 14.0029 -16.165 26.0029 -21.498l-26 -83c-28.667 3.33301 -51.834 10.666 -69.501 21.999s-30.834 29 -39.501 53c-32.667 -51.333 -80 -77 -142 -77c-47.333 0 -85 15 -113 45s-42 69.333 -42 118c0 57.333 19 101.166 57 131.499
s93 45.5 165 45.5h53v33c0 33.333 -6.66699 57 -20 71s-35 21 -65 21c-34.667 0 -77.334 -9 -128.001 -27l-29 83c60.667 25.333 119.667 38 177 38c125.333 0 188 -59.667 188 -179v-232c0 -18.667 2.66699 -32.5 8 -41.5zM305.003 141.002l-0.000976562 110.001h-40
c-73.333 0 -110 -31.333 -110 -94c0 -26.667 5.66699 -46.834 17 -60.501s27 -20.5 47 -20.5c36.667 0 65.334 21.667 86.001 65z" />
    <glyph glyph-name="b" unicode="b" horiz-adv-x="539" 
d="M452 472c30.667 -48 45.998 -117 45.998 -207c0 -56 -7.66699 -105.167 -23 -147.5s-37.166 -75 -65.499 -98s-61.5 -34.5 -99.5 -34.5c-51.333 0 -93.333 22.333 -126 67l-7 -52h-111v740l125 14v-283c15.333 22.667 34.333 40.5 57 53.5s47.334 19.5 74.001 19.5
c56 0 99.333 -24 130 -72zM367.998 265c0 69.333 -7.33496 117.333 -22.002 144s-35.667 40 -63 40c-35.333 0 -66 -23.333 -92 -70v-242c10.667 -18 23.334 -32.167 38.001 -42.5s30.334 -15.5 47.001 -15.5c61.333 0 92 62 92 186z" />
    <glyph glyph-name="c" unicode="c" horiz-adv-x="433" 
d="M351 529c25.333 -10 49.334 -25.333 72.001 -46l-55 -73c-30 24 -61.333 36 -94 36c-34 0 -59.833 -14.5 -77.5 -43.5s-26.5 -75.833 -26.5 -140.5c0 -64 8.83301 -109.333 26.5 -136s43.5 -40 77.5 -40c16.667 0 32 2.83301 46 8.5s29.667 14.5 47 26.5l56 -75
c-46 -40.667 -97.667 -61 -155 -61c-72 0 -128.333 23.833 -169 71.5s-61 115.5 -61 203.5c0 57.333 9.33301 107.5 28 150.5s45.167 76 79.5 99s74.5 34.5 120.5 34.5c31.333 0 59.666 -5 84.999 -15z" />
    <glyph glyph-name="d" unicode="d" horiz-adv-x="542" 
d="M476 741v-740.997h-111l-7 64c-34.667 -52.667 -79.667 -79 -135 -79c-58.667 0 -103.667 24.667 -135 74s-47 117.666 -47 204.999c0 55.333 8 104.166 24 146.499s38.5 75.166 67.5 98.499s62.5 35 100.5 35c46.667 0 86 -18.667 118 -56v266zM309 95.5029
c14.667 11 28.668 27.5 42.001 49.5v249c-12.667 18.667 -25.834 32.667 -39.501 42s-29.167 14 -46.5 14c-29.333 0 -52.333 -14.833 -69 -44.5s-25 -76.5 -25 -140.5c0 -66 7.5 -113.5 22.5 -142.5s36.5 -43.5 64.5 -43.5c19.333 0 36.333 5.5 51 16.5z" />
    <glyph glyph-name="e" unicode="e" horiz-adv-x="501" 
d="M465 226h-299c4 -53.333 15.333 -91 34 -113s44.667 -33 78 -33c21.333 0 41.333 3.66699 60 11s38.667 18.666 60 33.999l52 -71c-52.667 -46 -113 -69 -181 -69c-74 0 -131 24.333 -171 73s-60 116.334 -60 203.001c0 85.333 19.167 153.833 57.5 205.5
s91.833 77.5 160.5 77.5c66.667 0 118.667 -23 156 -69s56 -112 56 -198c0 -6 -1 -23 -3 -51zM345 313c0 48 -7 83.833 -21 107.5s-36.333 35.5 -67 35.5c-28 0 -49.5 -11.5 -64.5 -34.5s-23.833 -61.167 -26.5 -114.5h179v6z" />
    <glyph glyph-name="f" unicode="f" horiz-adv-x="318" 
d="M221 643.5c-9.33301 -10.333 -14 -27.168 -14 -50.501v-64h112l-14 -90h-98v-439h-125v439h-76v90h76v63c0 48.667 14.833 87.834 44.5 117.501s72.167 44.5 127.5 44.5c44 0 86 -10 126 -30l-35 -83c-26 12 -51.667 18 -77 18c-22 0 -37.667 -5.16699 -47 -15.5z" />
    <glyph glyph-name="g" unicode="g" horiz-adv-x="486" 
d="M487 502c-30.667 -12.667 -76.3311 -19 -136.998 -19c30 -13.333 52.333 -31.166 67 -53.499s22 -49.5 22 -81.5c0 -53.333 -17.667 -96.333 -53 -129s-83 -49 -143 -49c-22 0 -40.667 2.66699 -56 8c-6 -4.66699 -10.833 -10.5 -14.5 -17.5s-5.5 -14.5 -5.5 -22.5
c0 -12 4.16699 -21.5 12.5 -28.5s23.166 -10.5 44.499 -10.5h67c56 0 100.333 -14 133 -42s49 -63.667 49 -107c0 -51.333 -20.667 -92 -62 -122s-101 -45 -179 -45c-82 0 -139.5 13.833 -172.5 41.5s-49.5 68.834 -49.5 123.501h112c0 -28 7.66699 -48 23 -60
s44.666 -18 87.999 -18c42 0 71.667 6.16699 89 18.5s26 30.166 26 53.499c0 43.333 -27.667 65 -83 65h-56c-50.667 0 -88 9.33301 -112 28s-36 43 -36 73c0 18.667 5 36.334 15 53.001s24 31 42 43c-29.333 17.333 -50.833 38 -64.5 62s-20.5 53.333 -20.5 88
c0 57.333 18.5 103.166 55.5 137.499s85.833 51.5 146.5 51.5c50 0 90.5 4.66699 121.5 14s63.833 23.666 98.5 42.999zM177.503 433c-13.667 -17.333 -20.499 -43.001 -20.499 -77.001c0 -33.333 7 -59.166 21 -77.499s33.667 -27.5 59 -27.5
c27.333 0 47.666 8.5 60.999 25.5s20 43.833 20 80.5c0 68 -27 102 -81 102c-26 0 -45.833 -8.66699 -59.5 -26z" />
    <glyph glyph-name="h" unicode="h" horiz-adv-x="525" 
d="M427.5 502c24.333 -28 36.501 -66 36.501 -114v-388h-125v371c0 28 -4.5 47.833 -13.5 59.5s-22.167 17.5 -39.5 17.5c-33.333 0 -65 -26.333 -95 -79v-369h-125v740l125 13v-287c18.667 26 39 45.5 61 58.5s47.667 19.5 77 19.5c41.333 0 74.166 -14 98.499 -42z" />
    <glyph glyph-name="i" unicode="i" horiz-adv-x="257" 
d="M191 529v-529h-125v529h125zM184.5 773.5c14.333 -14.333 21.5 -32.5 21.5 -54.5s-7.16699 -40.167 -21.5 -54.5s-32.833 -21.5 -55.5 -21.5s-41.167 7.16699 -55.5 21.5s-21.5 32.5 -21.5 54.5s7.16699 40.167 21.5 54.5s32.833 21.5 55.5 21.5
s41.167 -7.16699 55.5 -21.5z" />
    <glyph glyph-name="j" unicode="j" horiz-adv-x="257" 
d="M190 35c0 -48 -7.16699 -87.667 -21.5 -119s-34.166 -56.833 -59.499 -76.5s-58.333 -38.5 -99 -56.5l-41 91c23.333 12 41.666 23.833 54.999 35.5s23.5 27 30.5 46s10.5 43.833 10.5 74.5v499h125v-494zM183.5 773.5c14.333 -14.333 21.5 -32.5 21.5 -54.5
s-7.16699 -40.167 -21.5 -54.5s-32.833 -21.5 -55.5 -21.5s-41.167 7.16699 -55.5 21.5s-21.5 32.5 -21.5 54.5s7.16699 40.167 21.5 54.5s32.833 21.5 55.5 21.5s41.167 -7.16699 55.5 -21.5z" />
    <glyph glyph-name="k" unicode="k" horiz-adv-x="489" 
d="M191 754v-754h-125v741zM480 529l-156 -233l170 -296h-138l-160 289l158 240h126z" />
    <glyph glyph-name="l" unicode="l" horiz-adv-x="270" 
d="M93.5 19c-21.667 22.667 -32.499 54.333 -32.499 95v627l125 13v-636c0 -21.333 9 -32 27 -32c8.66699 0 17 1.33301 25 4l25 -86c-22 -12.667 -48.333 -19 -79 -19c-38.667 0 -68.834 11.333 -90.501 34z" />
    <glyph glyph-name="m" unicode="m" horiz-adv-x="767" 
d="M670 501.5c23.333 -28.333 34.999 -66.167 34.999 -113.5v-388h-124v372c0 51.333 -15.667 77 -47 77c-16.667 0 -32 -6.5 -46 -19.5s-27.667 -32.167 -41 -57.5v-372h-123v372c0 51.333 -15.667 77 -47 77c-17.333 0 -33 -6.66699 -47 -20s-27.333 -32.333 -40 -57v-372
h-124v529h109l9 -68c36.667 55.333 82.334 83 137.001 83c27.333 0 51 -7.83301 71 -23.5s34.667 -37.5 44 -65.5c18.667 28.667 39.5 50.667 62.5 66s49.5 23 79.5 23c38 0 68.667 -14.167 92 -42.5z" />
    <glyph glyph-name="n" unicode="n" horiz-adv-x="525" 
d="M428 502c24 -28 36 -65.999 36 -113.999v-388h-125v371c0 28 -4.5 47.833 -13.5 59.5s-22.167 17.5 -39.5 17.5c-18 0 -34.667 -6.66699 -50 -20s-30.333 -33 -45 -59v-369h-125v529h109l9 -69c19.333 27.333 40.833 48.166 64.5 62.499s50.5 21.5 80.5 21.5
c42 0 75 -14 99 -42z" />
    <glyph glyph-name="o" unicode="o" horiz-adv-x="532" 
d="M433 472c40 -48 60 -116.999 60 -206.999c0 -86.667 -20.167 -155 -60.5 -205s-95.833 -75 -166.5 -75c-71.333 0 -127.166 24.5 -167.499 73.5s-60.5 117.833 -60.5 206.5c0 87.333 20.167 155.666 60.5 204.999s96.166 74 167.499 74s127 -24 167 -72zM193 405.501
c-16 -29 -24 -75.833 -24 -140.5c0 -65.333 8 -112.5 24 -141.5s40.333 -43.5 73 -43.5s57 14.667 73 44s24 76.333 24 141c0 65.333 -8 112.333 -24 141s-40.333 43 -73 43s-57 -14.5 -73 -43.5z" />
    <glyph glyph-name="p" unicode="p" horiz-adv-x="539" 
d="M454.5 471.5c29 -48.333 43.501 -116.833 43.501 -205.5c0 -85.333 -16.667 -153.5 -50 -204.5s-79.333 -76.5 -138 -76.5c-48.667 0 -88.334 19 -119.001 57v-245l-125 -14v746h110l6 -64c37.333 52.667 84.333 79 141 79c58.667 0 102.5 -24.167 131.5 -72.5z
M344.001 124.5c16 29 24 75.833 24 140.5c0 66.667 -7 114 -21 142s-35 42 -63 42c-36 0 -67 -23 -93 -69v-246c22.667 -35.333 50.667 -53 84 -53c30 0 53 14.5 69 43.5z" />
    <glyph glyph-name="q" unicode="q" horiz-adv-x="542" 
d="M476 529v-745.998l-125 14v260c-32 -48 -74.667 -72 -128 -72c-58.667 0 -103.667 24.5 -135 73.5s-47 117.5 -47 205.5c0 55.333 8 104.166 24 146.499s38.5 75.166 67.5 98.499s62.833 35 101.5 35c48.667 0 91 -22 127 -66l6 51h109zM308.5 96.002
c14.333 11.333 28.502 28.332 42.502 50.999v247c-12.667 18 -25.834 31.833 -39.501 41.5s-29.167 14.5 -46.5 14.5c-28.667 0 -51.5 -15 -68.5 -45s-25.5 -76.667 -25.5 -140c0 -67.333 7.5 -115.166 22.5 -143.499s36.5 -42.5 64.5 -42.5
c19.333 0 36.166 5.66699 50.499 17z" />
    <glyph glyph-name="r" unicode="r" horiz-adv-x="359" 
d="M358 536l-21 -121c-14 4 -28 6 -42 6c-28 0 -50.167 -11 -66.5 -33s-28.833 -55.333 -37.5 -100v-288h-125v529h109l10 -98c12.667 36.667 29.667 64.5 51 83.5s46.333 28.5 75 28.5c14 0 29.667 -2.33301 47 -7z" />
    <glyph glyph-name="s" unicode="s" horiz-adv-x="433" 
d="M394 481l-48.999 -70.9971c-39.333 28 -78.333 42 -117 42c-22 0 -39 -5 -51 -15s-18 -23.667 -18 -41c0 -12.667 2.83301 -23 8.5 -31s15.5 -15.833 29.5 -23.5s35 -16.167 63 -25.5c50.667 -16.667 88.334 -37.334 113.001 -62.001s37 -58.667 37 -102
c0 -52 -19.5 -92.833 -58.5 -122.5s-88.167 -44.5 -147.5 -44.5c-39.333 0 -75.333 6.5 -108 19.5s-61 31.167 -85 54.5l62 69c41.333 -33.333 83.666 -50 126.999 -50c25.333 0 45.166 5.66699 59.499 17s21.5 27.333 21.5 48c0 15.333 -2.83301 27.666 -8.5 36.999
s-15.834 18 -30.501 26s-37 16.667 -67 26c-49.333 16.667 -85.166 37.667 -107.499 63s-33.5 56.666 -33.5 93.999c0 29.333 7.66699 55.833 23 79.5s37.333 42.167 66 55.5s61.667 20 99 20c66 0 123.333 -21 172 -63z" />
    <glyph glyph-name="t" unicode="t" horiz-adv-x="342" 
d="M348 25c-17.333 -13.333 -36.5 -23.333 -57.5 -30s-42.5 -10 -64.5 -10c-48.667 0 -85.834 14 -111.501 42s-38.5 67 -38.5 117v295h-71v90h71v117l125 15v-132h111l-13 -90h-98v-294c0 -20 3.83301 -34.833 11.5 -44.5s19.834 -14.5 36.501 -14.5
c18 0 36.333 5.66699 55 17z" />
    <glyph glyph-name="u" unicode="u" horiz-adv-x="521" 
d="M455 0h-107.999l-7 70c-18 -28.667 -38.5 -50 -61.5 -64s-50.167 -21 -81.5 -21c-42.667 0 -75.834 14 -99.501 42s-35.5 65.667 -35.5 113v389h125v-378c0 -24.667 4.16699 -42.667 12.5 -54s21.5 -17 39.5 -17c34.667 0 65 24 91 72v377h125v-529z" />
    <glyph glyph-name="v" unicode="v" horiz-adv-x="461" 
d="M459 529l-153 -529h-148l-156 529h131l100 -429l101 429h125z" />
    <glyph glyph-name="w" unicode="w" horiz-adv-x="673" 
d="M661 529l-101 -529h-155l-68 416l-69 -416h-152l-104 529h123l63 -436l78 436h128l73 -436l66 436h118z" />
    <glyph glyph-name="x" unicode="x" horiz-adv-x="457" 
d="M302 283l159 -283h-138l-98 212l-95 -212h-133l157 279l-141 250h135l81 -182l79 182h130z" />
    <glyph glyph-name="y" unicode="y" horiz-adv-x="465" 
d="M309 -2c-18.667 -64.667 -48.5 -115.333 -89.5 -152s-96.167 -58 -165.5 -64l-13 91c45.333 7.33301 79 20.333 101 39s40 48 54 88h-45l-149 529h129l101 -446l105 446h126z" />
    <glyph glyph-name="z" unicode="z" horiz-adv-x="408" 
d="M385 529v-91l-231 -340h235l-12 -98h-362v90l231 341h-211v98h350z" />
    <glyph glyph-name="braceleft" unicode="{" horiz-adv-x="292" 
d="M263 748c-27.333 0 -46.502 -4.66504 -57.502 -13.998s-16.5 -26 -16.5 -50v-213c0 -38 -6.83301 -65.667 -20.5 -83s-35.5 -30.333 -65.5 -39c30 -8 52 -20.5 66 -37.5s21 -44.5 21 -82.5v-213c0 -24 5.33301 -40.667 16 -50s29.667 -14 57 -14v-90
c-48.667 0 -86.667 5.66699 -114 17s-46.666 28.166 -57.999 50.499s-17 51.833 -17 88.5v204c0 28 -4.16699 47.667 -12.5 59s-24.166 17 -47.499 17v103c22.667 0 38.334 5.83301 47.001 17.5s13 31.5 13 59.5v204c0 36.667 5.66699 66.167 17 88.5
s30.666 39.166 57.999 50.499s65.333 17 114 17v-90z" />
    <glyph glyph-name="bar" unicode="|" horiz-adv-x="345" 
d="M231 809v-913h-116v913h116z" />
    <glyph glyph-name="braceright" unicode="}" horiz-adv-x="292" 
d="M142 821c27.333 -11.333 46.666 -28.1689 57.999 -50.502s17 -51.833 17 -88.5v-204c0 -28 4.33301 -47.833 13 -59.5s24.334 -17.5 47.001 -17.5v-103c-22.667 0 -38.334 -5.66699 -47.001 -17s-13 -31 -13 -59v-204c0 -36.667 -5.66699 -66.167 -17 -88.5
s-30.666 -39.166 -57.999 -50.499s-65.333 -17 -114 -17v90c27.333 0 46.5 4.66699 57.5 14s16.5 26 16.5 50v213c0 38 6.83301 65.333 20.5 82s35.834 29.334 66.501 38.001c-30.667 9.33301 -52.834 22.5 -66.501 39.5s-20.5 44.5 -20.5 82.5v213
c0 24 -5.33301 40.667 -16 50s-29.667 14 -57 14l-1 90c48.667 0 86.667 -5.66699 114 -17z" />
    <glyph glyph-name="asciitilde" unicode="~" horiz-adv-x="459" 
d="M252.5 252.5c-14.333 6.33301 -29.834 15.168 -46.501 26.501c-13.333 8 -23.5 13.833 -30.5 17.5s-14.833 5.5 -23.5 5.5c-14 0 -25.5 -4.33301 -34.5 -13s-18.833 -21.334 -29.5 -38.001l-67 34c16 32.667 34.833 59.167 56.5 79.5s48.5 30.5 80.5 30.5
c18 0 34.167 -3 48.5 -9s29.5 -14.333 45.5 -25c12.667 -8 23 -14 31 -18s16.333 -6 25 -6c13.333 0 24.5 4 33.5 12s18.833 19.667 29.5 35l66 -35c-34 -70.667 -78.667 -106 -134 -106c-19.333 0 -36.166 3.16699 -50.499 9.5z" />
    <glyph glyph-name="uni00A0" unicode="&#xa0;" horiz-adv-x="221" 
 />
    <glyph glyph-name="exclamdown" unicode="&#xa1;" horiz-adv-x="229" 
d="M170.5 478.5c15 -15.667 22.5 -34.167 22.5 -55.5c0 -22 -7.5 -40.667 -22.5 -56s-33.5 -23 -55.5 -23c-22.667 0 -41.5 7.66699 -56.5 23s-22.5 34 -22.5 56c0 21.333 7.5 39.833 22.5 55.5s33.833 23.5 56.5 23.5c22 0 40.5 -7.83301 55.5 -23.5zM165 243l17 -449h-133
l16 449h100z" />
    <glyph glyph-name="cent" unicode="&#xa2;" horiz-adv-x="433" 
d="M423 46c-35.333 -31.333 -74.333 -50.667 -117 -58v-146h-93v148c-55.333 12 -98.333 41 -129 87s-46 107 -46 183c0 75.333 15.667 137.5 47 186.5s74.333 79.5 129 91.5v150h92v-147c43.333 -6.66699 82.333 -26 117 -58l-55 -73c-30 24 -61.333 36 -94 36
c-34 0 -59.833 -14.5 -77.5 -43.5s-26.5 -75.833 -26.5 -140.5c0 -64 8.83301 -109.333 26.5 -136s43.5 -40 77.5 -40c16.667 0 32 2.83301 46 8.5s29.667 14.5 47 26.5z" />
    <glyph glyph-name="sterling" unicode="&#xa3;" horiz-adv-x="482" 
d="M213 146.5c-8.66699 -18.333 -25.334 -34.501 -50.001 -48.501h285l-14 -98h-406v93c22 8 38.333 17 49 27s17.667 22.333 21 37s5 35 5 61v98h-61v71h61v106c0 56.667 16.333 102.834 49 138.501s78.334 53.5 137.001 53.5c37.333 0 70.5 -7.5 99.5 -22.5
s54.5 -37.833 76.5 -68.5l-76 -57c-14 18 -27.667 31.167 -41 39.5s-29 12.5 -47 12.5c-50 0 -75 -31.667 -75 -95v-107h172v-71h-172v-94c0 -32 -4.33301 -57.167 -13 -75.5z" />
    <glyph glyph-name="currency" unicode="&#xa4;" 
d="M426 83l-68.001 75.999c-31.333 -20 -67 -30 -107 -30s-75 10.333 -105 31l-70 -77l-60 58l73 80c-20.667 34 -31 74 -31 120c0 44.667 10 84.334 30 119.001l-74 83l64 57l69 -77c30.667 20 65.334 30 104.001 30c40.667 0 76.667 -10 108 -30l69 77l61 -57l-73 -81
c20.667 -34 31 -74.333 31 -121c0 -45.333 -10 -85.333 -30 -120l73 -81zM345.999 341.999c0 83.333 -31.333 125 -94 125s-94 -41.667 -94 -125s31.333 -125 94 -125s94 41.667 94 125z" />
    <glyph glyph-name="yen" unicode="&#xa5;" horiz-adv-x="503" 
d="M506 673l-165 -324h94v-72h-121v-81h121v-71h-121v-125h-125v125h-120v71h120v81h-120v72h93l-165 324h130l127 -289l126 289h126z" />
    <glyph glyph-name="brokenbar" unicode="&#xa6;" horiz-adv-x="345" 
d="M231 809v-366h-116v366h116zM231 262v-366h-116v366h116z" />
    <glyph glyph-name="section" unicode="&#xa7;" horiz-adv-x="491" 
d="M406 133c8 -16 11.999 -34.9971 11.999 -56.9971c0 -46 -17.5 -83 -52.5 -111s-80.833 -42 -137.5 -42c-66 0 -122.333 17.333 -169 52l44 75c36.667 -24.667 76.334 -37 119.001 -37c24 0 42.833 5 56.5 15s20.5 24 20.5 42c0 13.333 -2.66699 24.166 -8 32.499
s-15.666 16.5 -30.999 24.5s-38.666 17.667 -69.999 29c-48 17.333 -83 36.666 -105 57.999s-33 51.333 -33 90c0 25.333 6.5 48.5 19.5 69.5s30.833 38.833 53.5 53.5c-17.333 13.333 -30 28.333 -38 45s-12 36.334 -12 59.001c0 45.333 17 82 51 110s78.667 42 134 42
c64.667 0 120.667 -18.333 168 -55l-44 -71c-38.667 24.667 -77.334 37 -116.001 37c-24 0 -42.5 -5 -55.5 -15s-19.5 -24 -19.5 -42c0 -13.333 2.66699 -24.333 8 -33s15.5 -17.334 30.5 -26.001s38.167 -18.667 69.5 -30c47.333 -17.333 82.166 -36.833 104.499 -58.5
s33.5 -50.834 33.5 -87.501c0 -50 -24 -91.667 -72 -125c18 -13.333 31 -28 39 -44zM300.999 215.003c18.667 23.333 28 46.332 28 68.999c0 20 -6.33301 35.833 -19 47.5s-37 24.5 -73 38.5c-24.667 9.33301 -41 16 -49 20c-16.667 -20.667 -25 -43 -25 -67
c0 -21.333 5.33301 -37.666 16 -48.999s31.667 -23 63 -35c23.333 -8.66699 43 -16.667 59 -24z" />
    <glyph glyph-name="dieresis" unicode="&#xa8;" horiz-adv-x="397" 
d="M148 763.5c12.667 -13 19 -28.833 19 -47.5c0 -19.333 -6.33301 -35.5 -19 -48.5s-28.667 -19.5 -48 -19.5s-35.333 6.5 -48 19.5s-19 29.167 -19 48.5c0 18.667 6.5 34.5 19.5 47.5s28.833 19.5 47.5 19.5c19.333 0 35.333 -6.5 48 -19.5zM351 763.5
c12.667 -13 19 -28.833 19 -47.5c0 -19.333 -6.33301 -35.5 -19 -48.5s-28.667 -19.5 -48 -19.5s-35.5 6.5 -48.5 19.5s-19.5 29.167 -19.5 48.5c0 18.667 6.66699 34.5 20 47.5s29.333 19.5 48 19.5c19.333 0 35.333 -6.5 48 -19.5z" />
    <glyph glyph-name="copyright" unicode="&#xa9;" horiz-adv-x="729" 
d="M515.5 716.5c45 -27 80.667 -65.167 107 -114.5s39.5 -105.666 39.5 -168.999s-13.167 -119.5 -39.5 -168.5s-62 -87 -107 -114s-95.167 -40.5 -150.5 -40.5c-54.667 0 -104.834 13.5 -150.501 40.5s-81.667 65 -108 114s-39.5 105.167 -39.5 168.5
s13.167 119.666 39.5 168.999s62.333 87.5 108 114.5s95.834 40.5 150.501 40.5c55.333 0 105.5 -13.5 150.5 -40.5zM250.5 659.5c-33.667 -21 -60.167 -51 -79.5 -90s-29 -84.5 -29 -136.5c0 -51.333 9.66699 -96.333 29 -135s45.833 -68.5 79.5 -89.5
s71.834 -31.5 114.501 -31.5s80.834 10.5 114.501 31.5s60.167 50.833 79.5 89.5s29 83.667 29 135c0 52 -9.66699 97.5 -29 136.5s-45.833 69 -79.5 90s-71.834 31.5 -114.501 31.5s-80.834 -10.5 -114.501 -31.5zM481 582l-39 -52.001
c-12 8.66699 -23.167 14.834 -33.5 18.501s-21.5 5.5 -33.5 5.5c-21.333 0 -38.5 -9.5 -51.5 -28.5s-19.5 -49.5 -19.5 -91.5c0 -78.667 24 -118 72 -118c13.333 0 25.5 2.33301 36.5 7s22.5 11.667 34.5 21l37 -54c-33.333 -33.333 -72 -50 -116 -50
c-47.333 0 -85 16.833 -113 50.5s-42 81.5 -42 143.5c0 60.667 14.333 108 43 142s66.334 51 113.001 51c41.333 0 78.666 -15 111.999 -45z" />
    <glyph glyph-name="ordfeminine" unicode="&#xaa;" horiz-adv-x="455" 
d="M265 527l-0.000976562 20.999c0 22 -4.83301 37.333 -14.5 46s-26.167 13 -49.5 13c-26 0 -59.333 -7 -100 -21l-27 76c48 19.333 96.333 29 145 29c104.667 0 157 -45 157 -135v-167c0 -12.667 2 -22.167 6 -28.5s10.667 -11.166 20 -14.499l-23 -77
c-45.333 4 -76.333 22.333 -93 55c-12.667 -19.333 -28.667 -33.666 -48 -42.999s-40.666 -14 -63.999 -14c-38.667 0 -69.5 11.667 -92.5 35s-34.5 53.333 -34.5 90c0 43.333 15.333 76.666 46 99.999s74.667 35 132 35h40zM264.999 387.999l-0.000976562 74h-31
c-25.333 0 -43.666 -4.83301 -54.999 -14.5s-17 -25.167 -17 -46.5c0 -34 14.667 -51 44 -51c25.333 0 45 12.667 59 38zM50.998 98.999h362v-98h-362v98z" />
    <glyph glyph-name="guillemotleft" unicode="&#xab;" horiz-adv-x="563" 
d="M209 545l76 -50l-121 -209l121 -209l-76 -51l-167 219v81zM445 545l76 -50l-121 -209l121 -209l-76 -51l-167 219v81z" />
    <glyph glyph-name="logicalnot" unicode="&#xac;" horiz-adv-x="470" 
d="M423 374v-246h-105v149h-271v97h376z" />
    <glyph glyph-name="uni00AD" unicode="&#xad;" horiz-adv-x="371" 
d="M47 263v100h277v-100h-277z" />
    <glyph glyph-name="registered" unicode="&#xae;" horiz-adv-x="575" 
d="M411 720c36.667 -22.667 65.5 -54.167 86.5 -94.5s31.5 -85.833 31.5 -136.5s-10.5 -96.167 -31.5 -136.5s-49.833 -71.666 -86.5 -93.999s-78 -33.5 -124 -33.5c-45.333 0 -86.333 11.167 -123 33.5s-65.5 53.5 -86.5 93.5s-31.5 85.333 -31.5 136
c0 51.333 10.5 97.166 31.5 137.499s49.833 71.833 86.5 94.5s77.667 34 123 34c46 0 87.333 -11.333 124 -34zM416 339c32.667 37.333 49 87.333 49 150c0 42 -7.5 78.5 -22.5 109.5s-36 55 -63 72s-57.833 25.5 -92.5 25.5c-34 0 -64.5 -8.5 -91.5 -25.5
s-48 -41.167 -63 -72.5s-22.5 -68 -22.5 -110c0 -41.333 7.5 -77.5 22.5 -108.5s36 -54.833 63 -71.5s57.5 -25 91.5 -25c53.333 0 96.333 18.667 129 56zM373 501.5c-10 -13 -23 -22.833 -39 -29.5l66 -117h-69l-52 105h-22v-105h-60v279h74c78 0 117 -28.667 117 -86
c0 -18 -5 -33.5 -15 -46.5zM257 511h26.999c12.667 0 22.834 3.16699 30.501 9.5s11.5 15.833 11.5 28.5c0 24.667 -14.333 37 -43 37h-26v-75z" />
    <glyph glyph-name="macron" unicode="&#xaf;" horiz-adv-x="326" 
d="M299 662h-266v88h266v-88z" />
    <glyph glyph-name="degree" unicode="&#xb0;" horiz-adv-x="469" 
d="M120 395.5c-24 13 -43.333 31.8311 -58 56.498s-22 54.334 -22 89.001s7.33301 64.334 22 89.001s34 43.5 58 56.5s49.333 19.5 76 19.5c27.333 0 53 -6.33301 77 -19s43.333 -31.5 58 -56.5s22 -54.833 22 -89.5s-7.33301 -64.5 -22 -89.5s-34 -43.833 -58 -56.5
s-49.667 -19 -77 -19c-26.667 0 -52 6.5 -76 19.5zM245.5 473.998c12.333 14.667 18.5 37 18.5 67c0 29.333 -6.16699 51.5 -18.5 66.5s-28.833 22.5 -49.5 22.5c-20 0 -36.167 -7.5 -48.5 -22.5s-18.5 -37.167 -18.5 -66.5s6.16699 -51.5 18.5 -66.5s28.5 -22.5 48.5 -22.5
c20.667 0 37.167 7.33301 49.5 22z" />
    <glyph glyph-name="plusminus" unicode="&#xb1;" horiz-adv-x="470" 
d="M51 0v98h368v-98h-368zM287 582v-151h136v-99h-136v-151h-105v151h-135v99h135v151h105z" />
    <glyph glyph-name="uni00B2" unicode="&#xb2;" horiz-adv-x="362" 
d="M277 713c24.667 -23.333 37 -52.333 37 -87c0 -22 -4.5 -43 -13.5 -63s-24.667 -42.667 -47 -68s-54.833 -58.333 -97.5 -99h166l-10 -75h-260v70c47.333 48.667 82 85.667 104 111s37.5 46.833 46.5 64.5s13.5 35.5 13.5 53.5c0 16.667 -4.5 29.834 -13.5 39.501
s-21.167 14.5 -36.5 14.5c-14 0 -26.667 -3.33301 -38 -10s-23 -17.334 -35 -32.001l-55 44c36 48 82.333 72 139 72c42 0 75.333 -11.667 100 -35z" />
    <glyph glyph-name="uni00B3" unicode="&#xb3;" horiz-adv-x="362" 
d="M277 718c23.333 -20.667 34.999 -46.999 34.999 -78.999c0 -50 -28.333 -82 -85 -96c30 -2.66699 54 -12.5 72 -29.5s27 -41.167 27 -72.5c0 -37.333 -13.667 -68.5 -41 -93.5s-65 -37.5 -113 -37.5c-56.667 0 -102.667 21.333 -138 64l52 49
c13.333 -13.333 26.333 -23.166 39 -29.499s26.334 -9.5 41.001 -9.5c18.667 0 33.5 5.66699 44.5 17s16.5 26.666 16.5 45.999c0 20.667 -5.5 35.667 -16.5 45s-27.5 14 -49.5 14h-31l11 67h21c18 0 32 4.66699 42 14s15 22.666 15 39.999c0 16 -4.66699 28.5 -14 37.5
s-22 13.5 -38 13.5c-25.333 0 -51.333 -11.667 -78 -35l-46 49c37.333 38 82.333 57 135 57c42.667 0 75.667 -10.333 99 -31z" />
    <glyph glyph-name="acute" unicode="&#xb4;" horiz-adv-x="301" 
d="M223 815l51 -95l-206 -90l-35 63z" />
    <glyph glyph-name="uni00B5" unicode="&#xb5;" horiz-adv-x="528" 
d="M364 -15c-6 14.667 -10.499 29.3311 -13.499 43.998s-5.83301 30.334 -8.5 47.001c-12.667 -26 -28.167 -46.833 -46.5 -62.5s-38.5 -23.5 -60.5 -23.5c-17.333 0 -32.333 3.66699 -45 11s-24.334 19.333 -35.001 36c10.667 -22 18.334 -43.333 23.001 -64s7 -47 7 -79
v-98l-119 -13v746h125v-371c0 -48 17.667 -72 53 -72s64.666 26.333 87.999 79v364h125v-348c0 -69.333 7.33301 -129.666 22 -180.999z" />
    <glyph glyph-name="paragraph" unicode="&#xb6;" horiz-adv-x="695" 
d="M585 691v-894.001l-109 -16v819h-90v-803l-109 -16v492c-69.333 2.66699 -122 22.834 -158 60.501s-54 87.167 -54 148.5c0 66 20.5 117.333 61.5 154s98.833 55 173.5 55h285z" />
    <glyph glyph-name="periodcentered" unicode="&#xb7;" horiz-adv-x="226" 
d="M168.5 364c15 -15.333 22.5 -34 22.5 -56c0 -21.333 -7.5 -39.833 -22.5 -55.5s-33.833 -23.5 -56.5 -23.5c-22 0 -40.333 7.83301 -55 23.5s-22 34.167 -22 55.5c0 22 7.33301 40.667 22 56s33 23 55 23c22.667 0 41.5 -7.66699 56.5 -23z" />
    <glyph glyph-name="cedilla" unicode="&#xb8;" horiz-adv-x="283" 
d="M165 -54c30 -4 52.667 -13.832 68 -29.499s23 -36.167 23 -61.5c0 -32.667 -11.667 -58.5 -35 -77.5s-54 -28.5 -92 -28.5s-70 9 -96 27l30 59c21.333 -9.33301 40.333 -14 57 -14c13.333 0 23.833 2.83301 31.5 8.5s11.5 14.167 11.5 25.5
c0 13.333 -6.5 23.166 -19.5 29.499s-33.833 9.5 -62.5 9.5l14 122h70v-70z" />
    <glyph glyph-name="uni00B9" unicode="&#xb9;" horiz-adv-x="362" 
d="M263 740v-419h-94v326l-84 -55l-43 62l135 86h86z" />
    <glyph glyph-name="ordmasculine" unicode="&#xba;" horiz-adv-x="454" 
d="M365 636.5c32.667 -36.333 49 -88.834 49 -157.501c0 -66 -16.5 -117.833 -49.5 -155.5s-78.5 -56.5 -136.5 -56.5c-58.667 0 -104.667 18.333 -138 55s-50 89.334 -50 158.001c0 66 16.667 117.667 50 155s79 56 137 56c59.333 0 105.333 -18.167 138 -54.5z
M174.5 577.999c-11.667 -19.333 -17.5 -52 -17.5 -98c0 -46.667 5.66699 -79.667 17 -99s29.333 -29 54 -29c24 0 41.667 9.66699 53 29s17 52 17 98c0 47.333 -5.66699 80.5 -17 99.5s-29 28.5 -53 28.5s-41.833 -9.66699 -53.5 -29zM43 -0.000976562v98h368v-98h-368z" />
    <glyph glyph-name="guillemotright" unicode="&#xbb;" horiz-adv-x="561" 
d="M119 545l166 -219v-81l-166 -219l-77 51l121 209l-121 209zM353 545l166 -219v-81l-166 -219l-77 51l121 209l-121 209z" />
    <glyph glyph-name="onequarter" unicode="&#xbc;" horiz-adv-x="866" 
d="M263 691v-419h-94v326l-84 -55l-43 62l135 86h86zM580 755l75 -35l-368 -802l-75 35zM838 162v-72h-44v-90h-90l-1 90h-171v66l110 272l81 -31l-95 -235h76l16 101h74v-101h44z" />
    <glyph glyph-name="onehalf" unicode="&#xbd;" horiz-adv-x="866" 
d="M263 691v-419h-94v326l-84 -55l-43 62l135 86h86zM580 755l75 -35l-368 -802l-75 35zM781 392c24.667 -23.333 37 -52.333 37 -87c0 -22 -4.5 -43 -13.5 -63s-24.667 -42.667 -47 -68s-54.833 -58.333 -97.5 -99h166l-10 -75h-260v70c47.333 48.667 82 85.667 104 111
s37.5 46.833 46.5 64.5s13.5 35.5 13.5 53.5c0 16.667 -4.5 29.834 -13.5 39.501s-21.167 14.5 -36.5 14.5c-14 0 -26.667 -3.33301 -38 -10s-23 -17.334 -35 -32.001l-55 44c36 48 82.333 72 139 72c42 0 75.333 -11.667 100 -35z" />
    <glyph glyph-name="threequarters" unicode="&#xbe;" horiz-adv-x="866" 
d="M277 669c23.333 -20.667 34.999 -46.999 34.999 -78.999c0 -50 -28.333 -82 -85 -96c30 -2.66699 54 -12.5 72 -29.5s27 -41.167 27 -72.5c0 -37.333 -13.667 -68.5 -41 -93.5s-65 -37.5 -113 -37.5c-56.667 0 -102.667 21.333 -138 64l52 49
c13.333 -13.333 26.333 -23.166 39 -29.499s26.334 -9.5 41.001 -9.5c18.667 0 33.5 5.66699 44.5 17s16.5 26.666 16.5 45.999c0 20.667 -5.5 35.667 -16.5 45s-27.5 14 -49.5 14h-31l11 67h21c18 0 32 4.66699 42 14s15 22.666 15 39.999c0 16 -4.66699 28.5 -14 37.5
s-22 13.5 -38 13.5c-25.333 0 -51.333 -11.667 -78 -35l-46 49c37.333 38 82.333 57 135 57c42.667 0 75.667 -10.333 99 -31zM579.999 755.001l75 -35l-368 -802l-75 35zM837.999 162.001v-72h-44v-90h-90l-1 90h-171v66l110 272l81 -31l-95 -235h76l16 101h74v-101h44z
" />
    <glyph glyph-name="questiondown" unicode="&#xbf;" horiz-adv-x="434" 
d="M182.5 366.5c-15 15.667 -22.5 34.167 -22.5 55.5c0 22 7.5 40.667 22.5 56s33.833 23 56.5 23c22 0 40.333 -7.66699 55 -23s22 -34 22 -56c0 -21.333 -7.33301 -39.833 -22 -55.5s-33 -23.5 -55 -23.5c-22.667 0 -41.5 7.83301 -56.5 23.5zM107 -197
c-28.667 14.667 -50.3311 34.332 -64.998 58.999s-22 51.334 -22 80.001c0 26 4.16699 48.167 12.5 66.5s18.333 33.5 30 45.5s27.167 25.333 46.5 40c24.667 18.667 43.167 36 55.5 52s18.5 37 18.5 63v32h115v-38c0 -29.333 -4.16699 -54 -12.5 -74s-18.333 -36 -30 -48
s-26.834 -25 -45.501 -39c-20.667 -16 -36 -30.5 -46 -43.5s-15 -29.5 -15 -49.5c0 -22 6.5 -39 19.5 -51s31.167 -18 54.5 -18c39.333 0 77 21.333 113 64l77 -61c-52.667 -68 -120 -102 -202 -102c-40.667 0 -75.334 7.33301 -104.001 22z" />
    <glyph glyph-name="Agrave" unicode="&#xc0;" horiz-adv-x="535" 
d="M404 0l-38 161h-200l-38 -161h-131l192 691h158l191 -691h-134zM188 259h156l-78 333zM192 932l192 -115l-32 -64l-209 82z" />
    <glyph glyph-name="Aacute" unicode="&#xc1;" horiz-adv-x="535" 
d="M404 0l-38 161h-200l-38 -161h-131l192 691h158l191 -691h-134zM188 259h156l-78 333zM339 932l49 -96l-209 -83l-32 64z" />
    <glyph glyph-name="Acircumflex" unicode="&#xc2;" horiz-adv-x="535" 
d="M404 0l-38 161h-200l-38 -161h-131l192 691h158l191 -691h-134zM188 259h156l-78 333zM149 759l-46 51l126 121h77l126 -121l-47 -51l-118 82z" />
    <glyph glyph-name="Atilde" unicode="&#xc3;" horiz-adv-x="535" 
d="M404 0l-38 161h-200l-38 -161h-131l192 691h158l191 -691h-134zM188 259h156l-78 333zM289.5 780.5c-9 4.33301 -20.1689 10.834 -33.502 19.501c-15.333 12 -28.333 18 -39 18c-10 0 -18.5 -3.5 -25.5 -10.5s-14.5 -18.167 -22.5 -33.5l-64 31
c12 30.667 27.333 55.167 46 73.5s40 27.5 64 27.5c12.667 0 23.834 -2.33301 33.501 -7s20.5 -11 32.5 -19c1.33301 -1.33301 4.83301 -3.83301 10.5 -7.5s11 -6.33398 16 -8.00098s9.5 -2.5 13.5 -2.5c9.33301 0 17.333 3.33301 24 10s14.334 17.667 23.001 33l64 -31
c-11.333 -32 -26.5 -56.667 -45.5 -74s-40.5 -26 -64.5 -26c-12.667 0 -23.5 2.16699 -32.5 6.5z" />
    <glyph glyph-name="Adieresis" unicode="&#xc4;" horiz-adv-x="535" 
d="M404 0l-38 161h-200l-38 -161h-131l192 691h158l191 -691h-134zM188 259h156l-78 333zM217 889.5c12.667 -13 19 -28.833 19 -47.5c0 -19.333 -6.33301 -35.5 -19 -48.5s-28.667 -19.5 -48 -19.5s-35.333 6.5 -48 19.5s-19 29.167 -19 48.5c0 18.667 6.5 34.5 19.5 47.5
s28.833 19.5 47.5 19.5c19.333 0 35.333 -6.5 48 -19.5zM420 889.5c12.667 -13 19 -28.833 19 -47.5c0 -19.333 -6.33301 -35.5 -19 -48.5s-28.667 -19.5 -48 -19.5s-35.5 6.5 -48.5 19.5s-19.5 29.167 -19.5 48.5c0 18.667 6.66699 34.5 20 47.5s29.333 19.5 48 19.5
c19.333 0 35.333 -6.5 48 -19.5z" />
    <glyph glyph-name="Aring" unicode="&#xc5;" horiz-adv-x="535" 
d="M404 0l-38 161h-200l-38 -161h-131l192 691h158l191 -691h-134zM188 259h156l-78 333zM354.5 944c21.667 -22 32.5 -50.333 32.5 -85s-10.833 -63.167 -32.5 -85.5s-50.5 -33.5 -86.5 -33.5c-35.333 0 -63.833 11.167 -85.5 33.5s-32.5 50.833 -32.5 85.5
s10.833 63 32.5 85s50.167 33 85.5 33c36 0 64.833 -11 86.5 -33zM225 859c0 -36 14.333 -54 43 -54c13.333 0 24 4.5 32 13.5s12 22.5 12 40.5c0 36 -14.667 54 -44 54c-28.667 0 -43 -18 -43 -54z" />
    <glyph glyph-name="AE" unicode="&#xc6;" horiz-adv-x="753" 
d="M512 97h207v-97h-315l-27 161h-208l-50 -161h-136l245 691h456l-14 -96h-253l38 -197h221v-96h-203zM199 258h161l-57 336z" />
    <glyph glyph-name="Ccedilla" unicode="&#xc7;" horiz-adv-x="517" 
d="M347 -13l-0.000976562 -41c30 -4 52.667 -13.833 68 -29.5s23 -36.167 23 -61.5c0 -32.667 -11.667 -58.5 -35 -77.5s-54 -28.5 -92 -28.5s-70 9 -96 27l30 59c21.333 -9.33301 40.333 -14 57 -14c13.333 0 23.833 2.83301 31.5 8.5s11.5 14.167 11.5 25.5
c0 13.333 -6.5 23.166 -19.5 29.499s-33.833 9.5 -62.5 9.5l11 94c-72.667 10 -130 45.5 -172 106.5s-63 145.167 -63 252.5c0 77.333 12 143 36 197s56.667 94.5 98 121.5s88.333 40.5 141 40.5c38 0 71.5 -6 100.5 -18s57.5 -30 85.5 -54l-64 -75
c-37.333 31.333 -75.666 47 -114.999 47c-45.333 0 -81 -20.333 -107 -61s-39 -106.667 -39 -198c0 -89.333 13 -154.666 39 -195.999s62 -62 108 -62c24 0 45 4.5 63 13.5s38 22.167 60 39.5l62 -74c-44.667 -46.667 -98 -73.667 -160 -81z" />
    <glyph glyph-name="Egrave" unicode="&#xc8;" horiz-adv-x="476" 
d="M438 691l-14 -96h-225v-196h197v-95h-197v-207h241v-97h-371v691h369zM179 932l192 -115l-32 -64l-209 82z" />
    <glyph glyph-name="Eacute" unicode="&#xc9;" horiz-adv-x="476" 
d="M438 691l-14 -96h-225v-196h197v-95h-197v-207h241v-97h-371v691h369zM326 932l49 -96l-209 -83l-32 64z" />
    <glyph glyph-name="Ecircumflex" unicode="&#xca;" horiz-adv-x="476" 
d="M438 691l-14 -96h-225v-196h197v-95h-197v-207h241v-97h-371v691h369zM136 759l-46 51l126 121h77l126 -121l-47 -51l-118 82z" />
    <glyph glyph-name="Edieresis" unicode="&#xcb;" horiz-adv-x="476" 
d="M438 691l-14 -96h-225v-196h197v-95h-197v-207h241v-97h-371v691h369zM204 889.5c12.667 -13 19 -28.833 19 -47.5c0 -19.333 -6.33301 -35.5 -19 -48.5s-28.667 -19.5 -48 -19.5s-35.333 6.5 -48 19.5s-19 29.167 -19 48.5c0 18.667 6.5 34.5 19.5 47.5
s28.833 19.5 47.5 19.5c19.333 0 35.333 -6.5 48 -19.5zM407 889.5c12.667 -13 19 -28.833 19 -47.5c0 -19.333 -6.33301 -35.5 -19 -48.5s-28.667 -19.5 -48 -19.5s-35.5 6.5 -48.5 19.5s-19.5 29.167 -19.5 48.5c0 18.667 6.66699 34.5 20 47.5s29.333 19.5 48 19.5
c19.333 0 35.333 -6.5 48 -19.5z" />
    <glyph glyph-name="Igrave" unicode="&#xcc;" horiz-adv-x="268" 
d="M199 691v-691h-130v691h130zM57 932l192 -115l-32 -64l-209 82z" />
    <glyph glyph-name="Iacute" unicode="&#xcd;" horiz-adv-x="268" 
d="M199 691v-691h-130v691h130zM204 932l49 -96l-209 -83l-32 64z" />
    <glyph glyph-name="Icircumflex" unicode="&#xce;" horiz-adv-x="268" 
d="M199 691v-691h-130v691h130zM14 759l-46 51l126 121h77l126 -121l-47 -51l-118 82z" />
    <glyph glyph-name="Idieresis" unicode="&#xcf;" horiz-adv-x="268" 
d="M199 691v-691h-130v691h130zM82 889.5c12.667 -13 19 -28.833 19 -47.5c0 -19.333 -6.33301 -35.5 -19 -48.5s-28.667 -19.5 -48 -19.5s-35.333 6.5 -48 19.5s-19 29.167 -19 48.5c0 18.667 6.5 34.5 19.5 47.5s28.833 19.5 47.5 19.5c19.333 0 35.333 -6.5 48 -19.5z
M285 889.5c12.667 -13 19 -28.833 19 -47.5c0 -19.333 -6.33301 -35.5 -19 -48.5s-28.667 -19.5 -48 -19.5s-35.5 6.5 -48.5 19.5s-19.5 29.167 -19.5 48.5c0 18.667 6.66699 34.5 20 47.5s29.333 19.5 48 19.5c19.333 0 35.333 -6.5 48 -19.5z" />
    <glyph glyph-name="Eth" unicode="&#xd0;" horiz-adv-x="604" 
d="M408.5 664c46.333 -18 84 -52.168 113 -102.501s43.5 -121.166 43.5 -212.499c0 -129.333 -28.5 -219.833 -85.5 -271.5s-130.167 -77.5 -219.5 -77.5h-176v311h-67v84h67v296h161c62.667 0 117.167 -9 163.5 -27zM388.5 150.999c28.333 36 42.501 102 42.501 198
c0 66.667 -7.16699 118 -21.5 154s-33.333 60.167 -57 72.5s-52.5 18.5 -86.5 18.5h-52v-199h118v-84h-118v-214h55c51.333 0 91.166 18 119.499 54z" />
    <glyph glyph-name="Ntilde" unicode="&#xd1;" horiz-adv-x="605" 
d="M536 0h-166l-202 563l3 -27c9.33301 -93.333 14 -176.333 14 -249v-287h-116v691h164l204 -563c-4 26 -7.83301 60.833 -11.5 104.5s-5.5 87.167 -5.5 130.5v328h116v-691zM329.5 780.5c-9 4.33301 -20.1689 10.834 -33.502 19.501c-15.333 12 -28.333 18 -39 18
c-10 0 -18.5 -3.5 -25.5 -10.5s-14.5 -18.167 -22.5 -33.5l-64 31c12 30.667 27.333 55.167 46 73.5s40 27.5 64 27.5c12.667 0 23.834 -2.33301 33.501 -7s20.5 -11 32.5 -19c1.33301 -1.33301 4.83301 -3.83301 10.5 -7.5s11 -6.33398 16 -8.00098s9.5 -2.5 13.5 -2.5
c9.33301 0 17.333 3.33301 24 10s14.334 17.667 23.001 33l64 -31c-11.333 -32 -26.5 -56.667 -45.5 -74s-40.5 -26 -64.5 -26c-12.667 0 -23.5 2.16699 -32.5 6.5z" />
    <glyph glyph-name="Ograve" unicode="&#xd2;" horiz-adv-x="628" 
d="M517 614.5c48.667 -61 73 -150.499 73 -268.499c0 -116.667 -24.333 -206 -73 -268s-116.334 -93 -203.001 -93c-86 0 -153.333 30.667 -202 92s-73 150.666 -73 267.999c0 116 24.333 205.167 73 267.5s116 93.5 202 93.5c86.667 0 154.334 -30.5 203.001 -91.5z
M210 546.001c-23.333 -40.667 -35 -107.667 -35 -201c0 -92.667 11.833 -159.334 35.5 -200.001s58.167 -61 103.5 -61c47.333 0 82.5 20.167 105.5 60.5s34.5 107.5 34.5 201.5c0 92.667 -11.5 159.334 -34.5 200.001s-58.167 61 -105.5 61c-46 0 -80.667 -20.333 -104 -61
zM238 932.001l192 -115l-32 -64l-209 82z" />
    <glyph glyph-name="Oacute" unicode="&#xd3;" horiz-adv-x="628" 
d="M517 614.5c48.667 -61 73 -150.499 73 -268.499c0 -116.667 -24.333 -206 -73 -268s-116.334 -93 -203.001 -93c-86 0 -153.333 30.667 -202 92s-73 150.666 -73 267.999c0 116 24.333 205.167 73 267.5s116 93.5 202 93.5c86.667 0 154.334 -30.5 203.001 -91.5z
M210 546.001c-23.333 -40.667 -35 -107.667 -35 -201c0 -92.667 11.833 -159.334 35.5 -200.001s58.167 -61 103.5 -61c47.333 0 82.5 20.167 105.5 60.5s34.5 107.5 34.5 201.5c0 92.667 -11.5 159.334 -34.5 200.001s-58.167 61 -105.5 61c-46 0 -80.667 -20.333 -104 -61
zM385 932.001l49 -96l-209 -83l-32 64z" />
    <glyph glyph-name="Ocircumflex" unicode="&#xd4;" horiz-adv-x="628" 
d="M517 614.5c48.667 -61 73 -150.499 73 -268.499c0 -116.667 -24.333 -206 -73 -268s-116.334 -93 -203.001 -93c-86 0 -153.333 30.667 -202 92s-73 150.666 -73 267.999c0 116 24.333 205.167 73 267.5s116 93.5 202 93.5c86.667 0 154.334 -30.5 203.001 -91.5z
M210 546.001c-23.333 -40.667 -35 -107.667 -35 -201c0 -92.667 11.833 -159.334 35.5 -200.001s58.167 -61 103.5 -61c47.333 0 82.5 20.167 105.5 60.5s34.5 107.5 34.5 201.5c0 92.667 -11.5 159.334 -34.5 200.001s-58.167 61 -105.5 61c-46 0 -80.667 -20.333 -104 -61
zM195 759.001l-46 51l126 121h77l126 -121l-47 -51l-118 82z" />
    <glyph glyph-name="Otilde" unicode="&#xd5;" horiz-adv-x="628" 
d="M517 614.5c48.667 -61 73 -150.499 73 -268.499c0 -116.667 -24.333 -206 -73 -268s-116.334 -93 -203.001 -93c-86 0 -153.333 30.667 -202 92s-73 150.666 -73 267.999c0 116 24.333 205.167 73 267.5s116 93.5 202 93.5c86.667 0 154.334 -30.5 203.001 -91.5z
M210 546.001c-23.333 -40.667 -35 -107.667 -35 -201c0 -92.667 11.833 -159.334 35.5 -200.001s58.167 -61 103.5 -61c47.333 0 82.5 20.167 105.5 60.5s34.5 107.5 34.5 201.5c0 92.667 -11.5 159.334 -34.5 200.001s-58.167 61 -105.5 61c-46 0 -80.667 -20.333 -104 -61
zM335.5 780.501c-9 4.33301 -20.1689 10.834 -33.502 19.501c-15.333 12 -28.333 18 -39 18c-10 0 -18.5 -3.5 -25.5 -10.5s-14.5 -18.167 -22.5 -33.5l-64 31c12 30.667 27.333 55.167 46 73.5s40 27.5 64 27.5c12.667 0 23.834 -2.33301 33.501 -7s20.5 -11 32.5 -19
c1.33301 -1.33301 4.83301 -3.83301 10.5 -7.5s11 -6.33398 16 -8.00098s9.5 -2.5 13.5 -2.5c9.33301 0 17.333 3.33301 24 10s14.334 17.667 23.001 33l64 -31c-11.333 -32 -26.5 -56.667 -45.5 -74s-40.5 -26 -64.5 -26c-12.667 0 -23.5 2.16699 -32.5 6.5z" />
    <glyph glyph-name="Odieresis" unicode="&#xd6;" horiz-adv-x="628" 
d="M517 614.5c48.667 -61 73 -150.499 73 -268.499c0 -116.667 -24.333 -206 -73 -268s-116.334 -93 -203.001 -93c-86 0 -153.333 30.667 -202 92s-73 150.666 -73 267.999c0 116 24.333 205.167 73 267.5s116 93.5 202 93.5c86.667 0 154.334 -30.5 203.001 -91.5z
M210 546.001c-23.333 -40.667 -35 -107.667 -35 -201c0 -92.667 11.833 -159.334 35.5 -200.001s58.167 -61 103.5 -61c47.333 0 82.5 20.167 105.5 60.5s34.5 107.5 34.5 201.5c0 92.667 -11.5 159.334 -34.5 200.001s-58.167 61 -105.5 61c-46 0 -80.667 -20.333 -104 -61
zM263 889.501c12.667 -13 19 -28.833 19 -47.5c0 -19.333 -6.33301 -35.5 -19 -48.5s-28.667 -19.5 -48 -19.5s-35.333 6.5 -48 19.5s-19 29.167 -19 48.5c0 18.667 6.5 34.5 19.5 47.5s28.833 19.5 47.5 19.5c19.333 0 35.333 -6.5 48 -19.5zM466 889.501
c12.667 -13 19 -28.833 19 -47.5c0 -19.333 -6.33301 -35.5 -19 -48.5s-28.667 -19.5 -48 -19.5s-35.5 6.5 -48.5 19.5s-19.5 29.167 -19.5 48.5c0 18.667 6.66699 34.5 20 47.5s29.333 19.5 48 19.5c19.333 0 35.333 -6.5 48 -19.5z" />
    <glyph glyph-name="multiply" unicode="&#xd7;" horiz-adv-x="462" 
d="M338 498l73 -65l-111 -125l111 -127l-73 -65l-106 125l-108 -125l-74 65l111 125l-111 127l74 65l106 -126z" />
    <glyph glyph-name="Oslash" unicode="&#xd8;" horiz-adv-x="628" 
d="M555.5 547c23 -54 34.502 -121 34.502 -201c0 -116.667 -24.333 -206 -73 -268s-116.334 -93 -203.001 -93c-18.667 0 -34.667 1.33301 -48 4l-32 -120l-99 27l36 127c-42.667 27.333 -75.334 68 -98.001 122s-34 120.667 -34 200c0 116 24.333 205.167 73 267.5
s116 93.5 202 93.5c16.667 0 32.667 -1 48 -3l33 120l99 -26l-37 -129c42.667 -26.667 75.5 -67 98.5 -121zM207.502 546.5c-23.667 -41 -35.5 -108.167 -35.5 -201.5c0 -58.667 4 -106.167 12 -142.5s20.333 -63.833 37 -82.5l126 485c-10 2 -21 3 -33 3
c-47.333 0 -82.833 -20.5 -106.5 -61.5zM408.002 571l-127 -485.001c11.333 -2 22.333 -3 33 -3c49.333 0 85.333 20.833 108 62.5s34 111.834 34 210.501c0 106 -16 177.667 -48 215z" />
    <glyph glyph-name="Ugrave" unicode="&#xd9;" horiz-adv-x="590" 
d="M531 208c0 -42.667 -9 -80.833 -27 -114.5s-44.667 -60.167 -80 -79.5s-78.333 -29 -129 -29c-76.667 0 -135.167 20.333 -175.5 61s-60.5 94.667 -60.5 162v483h130v-477c0 -43.333 8.5 -75.5 25.5 -96.5s43.833 -31.5 80.5 -31.5c36 0 62.667 10.667 80 32
s26 53.333 26 96v477h130v-483zM219 932.001l192 -115l-32 -64l-209 82z" />
    <glyph glyph-name="Uacute" unicode="&#xda;" horiz-adv-x="590" 
d="M531 208c0 -42.667 -9 -80.833 -27 -114.5s-44.667 -60.167 -80 -79.5s-78.333 -29 -129 -29c-76.667 0 -135.167 20.333 -175.5 61s-60.5 94.667 -60.5 162v483h130v-477c0 -43.333 8.5 -75.5 25.5 -96.5s43.833 -31.5 80.5 -31.5c36 0 62.667 10.667 80 32
s26 53.333 26 96v477h130v-483zM366 932.001l49 -96l-209 -83l-32 64z" />
    <glyph glyph-name="Ucircumflex" unicode="&#xdb;" horiz-adv-x="590" 
d="M531 208c0 -42.667 -9 -80.833 -27 -114.5s-44.667 -60.167 -80 -79.5s-78.333 -29 -129 -29c-76.667 0 -135.167 20.333 -175.5 61s-60.5 94.667 -60.5 162v483h130v-477c0 -43.333 8.5 -75.5 25.5 -96.5s43.833 -31.5 80.5 -31.5c36 0 62.667 10.667 80 32
s26 53.333 26 96v477h130v-483zM176 759.001l-46 51l126 121h77l126 -121l-47 -51l-118 82z" />
    <glyph glyph-name="Udieresis" unicode="&#xdc;" horiz-adv-x="590" 
d="M531 208c0 -42.667 -9 -80.833 -27 -114.5s-44.667 -60.167 -80 -79.5s-78.333 -29 -129 -29c-76.667 0 -135.167 20.333 -175.5 61s-60.5 94.667 -60.5 162v483h130v-477c0 -43.333 8.5 -75.5 25.5 -96.5s43.833 -31.5 80.5 -31.5c36 0 62.667 10.667 80 32
s26 53.333 26 96v477h130v-483zM244 889.501c12.667 -13 19 -28.833 19 -47.5c0 -19.333 -6.33301 -35.5 -19 -48.5s-28.667 -19.5 -48 -19.5s-35.333 6.5 -48 19.5s-19 29.167 -19 48.5c0 18.667 6.5 34.5 19.5 47.5s28.833 19.5 47.5 19.5c19.333 0 35.333 -6.5 48 -19.5z
M447 889.501c12.667 -13 19 -28.833 19 -47.5c0 -19.333 -6.33301 -35.5 -19 -48.5s-28.667 -19.5 -48 -19.5s-35.5 6.5 -48.5 19.5s-19.5 29.167 -19.5 48.5c0 18.667 6.66699 34.5 20 47.5s29.333 19.5 48 19.5c19.333 0 35.333 -6.5 48 -19.5z" />
    <glyph glyph-name="Yacute" unicode="&#xdd;" horiz-adv-x="523" 
d="M526 691l-200 -429v-262h-130v261l-199 430h139l128 -323l128 323h134zM332 932l49 -96l-209 -83l-32 64z" />
    <glyph glyph-name="Thorn" unicode="&#xde;" horiz-adv-x="534" 
d="M446 522c45.333 -37.333 68 -92.999 68 -166.999c0 -78.667 -22.5 -137.334 -67.5 -176.001s-107.167 -58 -186.5 -58h-61v-121h-130v691h130v-113h53c84 0 148.667 -18.667 194 -56zM348.5 248.001c21.667 20.667 32.5 56.333 32.5 107c0 44.667 -11 77.167 -33 97.5
s-54.667 30.5 -98 30.5h-51v-266h51c44 0 76.833 10.333 98.5 31z" />
    <glyph glyph-name="germandbls" unicode="&#xdf;" horiz-adv-x="544" 
d="M365.5 734.5c27 -13 47.501 -30.3369 61.501 -52.0039s21 -45.834 21 -72.501c0 -25.333 -4.66699 -46 -14 -62s-22.666 -33.667 -39.999 -53c-12.667 -14 -21.834 -25.5 -27.501 -34.5s-8.5 -19.5 -8.5 -31.5c0 -14 4.66699 -26.5 14 -37.5s24 -24.5 44 -40.5
c22 -18 40 -34.333 54 -49s26.167 -33.5 36.5 -56.5s15.5 -50.167 15.5 -81.5c0 -36 -7.83301 -67.667 -23.5 -95s-36.834 -48.166 -63.501 -62.499s-56 -21.5 -88 -21.5c-39.333 0 -73.333 8.33301 -102 25l37 84c14.667 -7.33301 30.667 -11 48 -11c20 0 35.833 7 47.5 21
s17.5 34.333 17.5 61s-6.16699 48.834 -18.5 66.501s-30.833 37.167 -55.5 58.5c-24 20.667 -42.167 39.834 -54.5 57.501s-18.5 39.5 -18.5 65.5c0 20.667 3.66699 37.667 11 51s18 28 32 44c13.333 14.667 23.5 28.5 30.5 41.5s10.5 28.833 10.5 47.5
c0 20.667 -6 36.834 -18 48.501s-27.667 17.5 -47 17.5c-24.667 0 -43.5 -9.16699 -56.5 -27.5s-19.5 -45.166 -19.5 -80.499v-555h-125v551c0 62 17.833 111.333 53.5 148s85.5 55 149.5 55c37.333 0 69.5 -6.5 96.5 -19.5z" />
    <glyph glyph-name="agrave" unicode="&#xe0;" horiz-adv-x="495" 
d="M436 91.5c5.33301 -9 14.0029 -16.165 26.0029 -21.498l-26 -83c-28.667 3.33301 -51.834 10.666 -69.501 21.999s-30.834 29 -39.501 53c-32.667 -51.333 -80 -77 -142 -77c-47.333 0 -85 15 -113 45s-42 69.333 -42 118c0 57.333 19 101.166 57 131.499
s93 45.5 165 45.5h53v33c0 33.333 -6.66699 57 -20 71s-35 21 -65 21c-34.667 0 -77.334 -9 -128.001 -27l-29 83c60.667 25.333 119.667 38 177 38c125.333 0 188 -59.667 188 -179v-232c0 -18.667 2.66699 -32.5 8 -41.5zM305.003 141.002l-0.000976562 110.001h-40
c-73.333 0 -110 -31.333 -110 -94c0 -26.667 5.66699 -46.834 17 -60.501s27 -20.5 47 -20.5c36.667 0 65.334 21.667 86.001 65zM180.002 815.003l190 -122l-35 -63l-206 90z" />
    <glyph glyph-name="aacute" unicode="&#xe1;" horiz-adv-x="495" 
d="M436 91.5c5.33301 -9 14.0029 -16.165 26.0029 -21.498l-26 -83c-28.667 3.33301 -51.834 10.666 -69.501 21.999s-30.834 29 -39.501 53c-32.667 -51.333 -80 -77 -142 -77c-47.333 0 -85 15 -113 45s-42 69.333 -42 118c0 57.333 19 101.166 57 131.499
s93 45.5 165 45.5h53v33c0 33.333 -6.66699 57 -20 71s-35 21 -65 21c-34.667 0 -77.334 -9 -128.001 -27l-29 83c60.667 25.333 119.667 38 177 38c125.333 0 188 -59.667 188 -179v-232c0 -18.667 2.66699 -32.5 8 -41.5zM305.003 141.002l-0.000976562 110.001h-40
c-73.333 0 -110 -31.333 -110 -94c0 -26.667 5.66699 -46.834 17 -60.501s27 -20.5 47 -20.5c36.667 0 65.334 21.667 86.001 65zM306.002 815.003l51 -95l-206 -90l-35 63z" />
    <glyph glyph-name="acircumflex" unicode="&#xe2;" horiz-adv-x="495" 
d="M436 91.5c5.33301 -9 14.0029 -16.165 26.0029 -21.498l-26 -83c-28.667 3.33301 -51.834 10.666 -69.501 21.999s-30.834 29 -39.501 53c-32.667 -51.333 -80 -77 -142 -77c-47.333 0 -85 15 -113 45s-42 69.333 -42 118c0 57.333 19 101.166 57 131.499
s93 45.5 165 45.5h53v33c0 33.333 -6.66699 57 -20 71s-35 21 -65 21c-34.667 0 -77.334 -9 -128.001 -27l-29 83c60.667 25.333 119.667 38 177 38c125.333 0 188 -59.667 188 -179v-232c0 -18.667 2.66699 -32.5 8 -41.5zM305.003 141.002l-0.000976562 110.001h-40
c-73.333 0 -110 -31.333 -110 -94c0 -26.667 5.66699 -46.834 17 -60.501s27 -20.5 47 -20.5c36.667 0 65.334 21.667 86.001 65zM123.002 629.003l-46 51l126 127h77l126 -127l-47 -51l-118 88z" />
    <glyph glyph-name="atilde" unicode="&#xe3;" horiz-adv-x="495" 
d="M436 91.5c5.33301 -9 14.0029 -16.165 26.0029 -21.498l-26 -83c-28.667 3.33301 -51.834 10.666 -69.501 21.999s-30.834 29 -39.501 53c-32.667 -51.333 -80 -77 -142 -77c-47.333 0 -85 15 -113 45s-42 69.333 -42 118c0 57.333 19 101.166 57 131.499
s93 45.5 165 45.5h53v33c0 33.333 -6.66699 57 -20 71s-35 21 -65 21c-34.667 0 -77.334 -9 -128.001 -27l-29 83c60.667 25.333 119.667 38 177 38c125.333 0 188 -59.667 188 -179v-232c0 -18.667 2.66699 -32.5 8 -41.5zM305.003 141.002l-0.000976562 110.001h-40
c-73.333 0 -110 -31.333 -110 -94c0 -26.667 5.66699 -46.834 17 -60.501s27 -20.5 47 -20.5c36.667 0 65.334 21.667 86.001 65zM261.502 654.503c-9 4.33301 -20.1689 10.834 -33.502 19.501c-15.333 12 -28.333 18 -39 18c-10 0 -18.5 -3.5 -25.5 -10.5
s-14.5 -18.167 -22.5 -33.5l-64 31c12 30.667 27.333 55.167 46 73.5s40 27.5 64 27.5c12.667 0 23.834 -2.33301 33.501 -7s20.5 -11 32.5 -19c1.33301 -1.33301 4.83301 -3.83301 10.5 -7.5s11 -6.33398 16 -8.00098s9.5 -2.5 13.5 -2.5c9.33301 0 17.333 3.33301 24 10
s14.334 17.667 23.001 33l64 -31c-11.333 -32 -26.5 -56.667 -45.5 -74s-40.5 -26 -64.5 -26c-12.667 0 -23.5 2.16699 -32.5 6.5z" />
    <glyph glyph-name="adieresis" unicode="&#xe4;" horiz-adv-x="495" 
d="M436 91.5c5.33301 -9 14.0029 -16.165 26.0029 -21.498l-26 -83c-28.667 3.33301 -51.834 10.666 -69.501 21.999s-30.834 29 -39.501 53c-32.667 -51.333 -80 -77 -142 -77c-47.333 0 -85 15 -113 45s-42 69.333 -42 118c0 57.333 19 101.166 57 131.499
s93 45.5 165 45.5h53v33c0 33.333 -6.66699 57 -20 71s-35 21 -65 21c-34.667 0 -77.334 -9 -128.001 -27l-29 83c60.667 25.333 119.667 38 177 38c125.333 0 188 -59.667 188 -179v-232c0 -18.667 2.66699 -32.5 8 -41.5zM305.003 141.002l-0.000976562 110.001h-40
c-73.333 0 -110 -31.333 -110 -94c0 -26.667 5.66699 -46.834 17 -60.501s27 -20.5 47 -20.5c36.667 0 65.334 21.667 86.001 65zM187.002 763.503c12.667 -13 19 -28.833 19 -47.5c0 -19.333 -6.33301 -35.5 -19 -48.5s-28.667 -19.5 -48 -19.5s-35.333 6.5 -48 19.5
s-19 29.167 -19 48.5c0 18.667 6.5 34.5 19.5 47.5s28.833 19.5 47.5 19.5c19.333 0 35.333 -6.5 48 -19.5zM390.002 763.503c12.667 -13 19 -28.833 19 -47.5c0 -19.333 -6.33301 -35.5 -19 -48.5s-28.667 -19.5 -48 -19.5s-35.5 6.5 -48.5 19.5s-19.5 29.167 -19.5 48.5
c0 18.667 6.66699 34.5 20 47.5s29.333 19.5 48 19.5c19.333 0 35.333 -6.5 48 -19.5z" />
    <glyph glyph-name="aring" unicode="&#xe5;" horiz-adv-x="495" 
d="M436 91.5c5.33301 -9 14.0029 -16.165 26.0029 -21.498l-26 -83c-28.667 3.33301 -51.834 10.666 -69.501 21.999s-30.834 29 -39.501 53c-32.667 -51.333 -80 -77 -142 -77c-47.333 0 -85 15 -113 45s-42 69.333 -42 118c0 57.333 19 101.166 57 131.499
s93 45.5 165 45.5h53v33c0 33.333 -6.66699 57 -20 71s-35 21 -65 21c-34.667 0 -77.334 -9 -128.001 -27l-29 83c60.667 25.333 119.667 38 177 38c125.333 0 188 -59.667 188 -179v-232c0 -18.667 2.66699 -32.5 8 -41.5zM305.003 141.002l-0.000976562 110.001h-40
c-73.333 0 -110 -31.333 -110 -94c0 -26.667 5.66699 -46.834 17 -60.501s27 -20.5 47 -20.5c36.667 0 65.334 21.667 86.001 65zM327.502 818.003c21.667 -22 32.5 -50.333 32.5 -85s-10.833 -63.167 -32.5 -85.5s-50.5 -33.5 -86.5 -33.5
c-35.333 0 -63.833 11.167 -85.5 33.5s-32.5 50.833 -32.5 85.5s10.833 63 32.5 85s50.167 33 85.5 33c36 0 64.833 -11 86.5 -33zM198.002 733.003c0 -36 14.333 -54 43 -54c13.333 0 24 4.5 32 13.5s12 22.5 12 40.5c0 36 -14.667 54 -44 54c-28.667 0 -43 -18 -43 -54z
" />
    <glyph glyph-name="ae" unicode="&#xe6;" horiz-adv-x="772" 
d="M736 226l-299.001 0.00195312c4 -52 15.833 -89.333 35.5 -112s46.167 -34 79.5 -34c20 0 39.167 3.66699 57.5 11s37.833 18.666 58.5 33.999l53 -69c-52.667 -47.333 -112.667 -71 -180 -71c-40.667 0 -76.667 8.16699 -108 24.5s-56.666 39.166 -75.999 68.499
c-22 -32.667 -46.667 -56.334 -74 -71.001s-58.333 -22 -93 -22c-48.667 0 -87.5 15 -116.5 45s-43.5 69.333 -43.5 118c0 56.667 19.5 100 58.5 130s95.167 45 168.5 45h52v32c0 34.667 -6.66699 59.167 -20 73.5s-35.333 21.5 -66 21.5c-34 0 -76 -9.33301 -126 -28
l-29 84c60.667 25.333 119 38 175 38c36 0 65.667 -6.16699 89 -18.5s42 -30.5 56 -54.5c36 48.667 85.333 73 148 73s112.167 -23.167 148.5 -69.5s54.5 -112.166 54.5 -197.499c0 -6 -1 -23 -3 -51zM615.999 313.002c0 47.333 -7.00195 82.833 -21.002 106.5
s-36 35.5 -66 35.5c-27.333 0 -48.666 -11.5 -63.999 -34.5s-24.666 -60.833 -27.999 -113.5h179v6zM278.497 95.502c15.667 13 30.5 32.833 44.5 59.5c-7.33301 28 -11.333 58.333 -12 91v2h-40c-37.333 0 -65 -7.5 -83 -22.5s-27 -38.167 -27 -69.5
c0 -53.333 21.333 -80 64 -80c20 0 37.833 6.5 53.5 19.5z" />
    <glyph glyph-name="ccedilla" unicode="&#xe7;" horiz-adv-x="433" 
d="M290 -14l0.000976562 -39.999c30 -4 52.667 -13.833 68 -29.5s23 -36.167 23 -61.5c0 -32.667 -11.667 -58.5 -35 -77.5s-54 -28.5 -92 -28.5s-70 9 -96 27l30 59c21.333 -9.33301 40.333 -14 57 -14c13.333 0 23.833 2.83301 31.5 8.5s11.5 14.167 11.5 25.5
c0 13.333 -6.5 23.166 -19.5 29.499s-33.833 9.5 -62.5 9.5l11 96c-56.667 10.667 -100.667 39 -132 85s-47 107.667 -47 185c0 57.333 9.33301 107.5 28 150.5s45.167 76 79.5 99s74.5 34.5 120.5 34.5c31.333 0 59.666 -5 84.999 -15s49.333 -25.333 72 -46l-55 -73
c-30 24 -61.333 36 -94 36c-34 0 -59.833 -14.5 -77.5 -43.5s-26.5 -75.833 -26.5 -140.5c0 -64 8.83301 -109.333 26.5 -136s43.5 -40 77.5 -40c16.667 0 32 2.83301 46 8.5s29.667 14.5 47 26.5l56 -75c-40.667 -35.333 -85 -55.333 -133 -60z" />
    <glyph glyph-name="egrave" unicode="&#xe8;" horiz-adv-x="501" 
d="M465 226h-299c4 -53.333 15.333 -91 34 -113s44.667 -33 78 -33c21.333 0 41.333 3.66699 60 11s38.667 18.666 60 33.999l52 -71c-52.667 -46 -113 -69 -181 -69c-74 0 -131 24.333 -171 73s-60 116.334 -60 203.001c0 85.333 19.167 153.833 57.5 205.5
s91.833 77.5 160.5 77.5c66.667 0 118.667 -23 156 -69s56 -112 56 -198c0 -6 -1 -23 -3 -51zM345 313c0 48 -7 83.833 -21 107.5s-36.333 35.5 -67 35.5c-28 0 -49.5 -11.5 -64.5 -34.5s-23.833 -61.167 -26.5 -114.5h179v6zM196 815l190 -122l-35 -63l-206 90z" />
    <glyph glyph-name="eacute" unicode="&#xe9;" horiz-adv-x="501" 
d="M465 226h-299c4 -53.333 15.333 -91 34 -113s44.667 -33 78 -33c21.333 0 41.333 3.66699 60 11s38.667 18.666 60 33.999l52 -71c-52.667 -46 -113 -69 -181 -69c-74 0 -131 24.333 -171 73s-60 116.334 -60 203.001c0 85.333 19.167 153.833 57.5 205.5
s91.833 77.5 160.5 77.5c66.667 0 118.667 -23 156 -69s56 -112 56 -198c0 -6 -1 -23 -3 -51zM345 313c0 48 -7 83.833 -21 107.5s-36.333 35.5 -67 35.5c-28 0 -49.5 -11.5 -64.5 -34.5s-23.833 -61.167 -26.5 -114.5h179v6zM322 815l51 -95l-206 -90l-35 63z" />
    <glyph glyph-name="ecircumflex" unicode="&#xea;" horiz-adv-x="501" 
d="M465 226h-299c4 -53.333 15.333 -91 34 -113s44.667 -33 78 -33c21.333 0 41.333 3.66699 60 11s38.667 18.666 60 33.999l52 -71c-52.667 -46 -113 -69 -181 -69c-74 0 -131 24.333 -171 73s-60 116.334 -60 203.001c0 85.333 19.167 153.833 57.5 205.5
s91.833 77.5 160.5 77.5c66.667 0 118.667 -23 156 -69s56 -112 56 -198c0 -6 -1 -23 -3 -51zM345 313c0 48 -7 83.833 -21 107.5s-36.333 35.5 -67 35.5c-28 0 -49.5 -11.5 -64.5 -34.5s-23.833 -61.167 -26.5 -114.5h179v6zM139 629l-46 51l126 127h77l126 -127l-47 -51
l-118 88z" />
    <glyph glyph-name="edieresis" unicode="&#xeb;" horiz-adv-x="501" 
d="M465 226h-299c4 -53.333 15.333 -91 34 -113s44.667 -33 78 -33c21.333 0 41.333 3.66699 60 11s38.667 18.666 60 33.999l52 -71c-52.667 -46 -113 -69 -181 -69c-74 0 -131 24.333 -171 73s-60 116.334 -60 203.001c0 85.333 19.167 153.833 57.5 205.5
s91.833 77.5 160.5 77.5c66.667 0 118.667 -23 156 -69s56 -112 56 -198c0 -6 -1 -23 -3 -51zM345 313c0 48 -7 83.833 -21 107.5s-36.333 35.5 -67 35.5c-28 0 -49.5 -11.5 -64.5 -34.5s-23.833 -61.167 -26.5 -114.5h179v6zM203 763.5c12.667 -13 19 -28.833 19 -47.5
c0 -19.333 -6.33301 -35.5 -19 -48.5s-28.667 -19.5 -48 -19.5s-35.333 6.5 -48 19.5s-19 29.167 -19 48.5c0 18.667 6.5 34.5 19.5 47.5s28.833 19.5 47.5 19.5c19.333 0 35.333 -6.5 48 -19.5zM406 763.5c12.667 -13 19 -28.833 19 -47.5
c0 -19.333 -6.33301 -35.5 -19 -48.5s-28.667 -19.5 -48 -19.5s-35.5 6.5 -48.5 19.5s-19.5 29.167 -19.5 48.5c0 18.667 6.66699 34.5 20 47.5s29.333 19.5 48 19.5c19.333 0 35.333 -6.5 48 -19.5z" />
    <glyph glyph-name="igrave" unicode="&#xec;" horiz-adv-x="257" 
d="M191 529v-529h-125v529h125zM68 815l190 -122l-35 -63l-206 90z" />
    <glyph glyph-name="iacute" unicode="&#xed;" horiz-adv-x="257" 
d="M191 529v-529h-125v529h125zM194 815l51 -95l-206 -90l-35 63z" />
    <glyph glyph-name="icircumflex" unicode="&#xee;" horiz-adv-x="257" 
d="M191 529v-529h-125v529h125zM11 629l-46 51l126 127h77l126 -127l-47 -51l-118 88z" />
    <glyph glyph-name="idieresis" unicode="&#xef;" horiz-adv-x="257" 
d="M191 529v-529h-125v529h125zM75 763.5c12.667 -13 19 -28.833 19 -47.5c0 -19.333 -6.33301 -35.5 -19 -48.5s-28.667 -19.5 -48 -19.5s-35.333 6.5 -48 19.5s-19 29.167 -19 48.5c0 18.667 6.5 34.5 19.5 47.5s28.833 19.5 47.5 19.5c19.333 0 35.333 -6.5 48 -19.5z
M278 763.5c12.667 -13 19 -28.833 19 -47.5c0 -19.333 -6.33301 -35.5 -19 -48.5s-28.667 -19.5 -48 -19.5s-35.5 6.5 -48.5 19.5s-19.5 29.167 -19.5 48.5c0 18.667 6.66699 34.5 20 47.5s29.333 19.5 48 19.5c19.333 0 35.333 -6.5 48 -19.5z" />
    <glyph glyph-name="eth" unicode="&#xf0;" horiz-adv-x="525" 
d="M445 503c24.667 -63.333 36.999 -140.331 36.999 -230.998c0 -56.667 -9 -106.667 -27 -150s-44 -77 -78 -101s-74.333 -36 -121 -36c-41.333 0 -78.5 9.66699 -111.5 29s-59 47.833 -78 85.5s-28.5 82.5 -28.5 134.5c0 45.333 7.83301 86.5 23.5 123.5
s37.5 66.167 65.5 87.5s60 32 96 32c26 0 49 -4.5 69 -13.5s38.333 -22.5 55 -40.5c-8 36.667 -19.5 68.667 -34.5 96s-35.5 52.666 -61.5 75.999l-58 -63l-80 39l63 70c-26.667 11.333 -57 20.666 -91 27.999l25 85c44.667 -9.33301 89 -23.333 133 -42l66 75l68 -55
l-57 -65c58.667 -46 100.334 -100.667 125.001 -164zM329.999 123.502c16.667 29.667 25 74.5 25 134.5l-1 70c-25.333 38.667 -58.333 58 -99 58c-60 0 -90 -49.667 -90 -149c0 -105.333 30.667 -158 92 -158c32 0 56.333 14.833 73 44.5z" />
    <glyph glyph-name="ntilde" unicode="&#xf1;" horiz-adv-x="525" 
d="M428 502c24 -28 36 -65.999 36 -113.999v-388h-125v371c0 28 -4.5 47.833 -13.5 59.5s-22.167 17.5 -39.5 17.5c-18 0 -34.667 -6.66699 -50 -20s-30.333 -33 -45 -59v-369h-125v529h109l9 -69c19.333 27.333 40.833 48.166 64.5 62.499s50.5 21.5 80.5 21.5
c42 0 75 -14 99 -42zM287.5 654.501c-9 4.33301 -20.1689 10.834 -33.502 19.501c-15.333 12 -28.333 18 -39 18c-10 0 -18.5 -3.5 -25.5 -10.5s-14.5 -18.167 -22.5 -33.5l-64 31c12 30.667 27.333 55.167 46 73.5s40 27.5 64 27.5c12.667 0 23.834 -2.33301 33.501 -7
s20.5 -11 32.5 -19c1.33301 -1.33301 4.83301 -3.83301 10.5 -7.5s11 -6.33398 16 -8.00098s9.5 -2.5 13.5 -2.5c9.33301 0 17.333 3.33301 24 10s14.334 17.667 23.001 33l64 -31c-11.333 -32 -26.5 -56.667 -45.5 -74s-40.5 -26 -64.5 -26
c-12.667 0 -23.5 2.16699 -32.5 6.5z" />
    <glyph glyph-name="ograve" unicode="&#xf2;" horiz-adv-x="532" 
d="M433 472c40 -48 60 -116.999 60 -206.999c0 -86.667 -20.167 -155 -60.5 -205s-95.833 -75 -166.5 -75c-71.333 0 -127.166 24.5 -167.499 73.5s-60.5 117.833 -60.5 206.5c0 87.333 20.167 155.666 60.5 204.999s96.166 74 167.499 74s127 -24 167 -72zM193 405.501
c-16 -29 -24 -75.833 -24 -140.5c0 -65.333 8 -112.5 24 -141.5s40.333 -43.5 73 -43.5s57 14.667 73 44s24 76.333 24 141c0 65.333 -8 112.333 -24 141s-40.333 43 -73 43s-57 -14.5 -73 -43.5zM205 815.001l190 -122l-35 -63l-206 90z" />
    <glyph glyph-name="oacute" unicode="&#xf3;" horiz-adv-x="532" 
d="M433 472c40 -48 60 -116.999 60 -206.999c0 -86.667 -20.167 -155 -60.5 -205s-95.833 -75 -166.5 -75c-71.333 0 -127.166 24.5 -167.499 73.5s-60.5 117.833 -60.5 206.5c0 87.333 20.167 155.666 60.5 204.999s96.166 74 167.499 74s127 -24 167 -72zM193 405.501
c-16 -29 -24 -75.833 -24 -140.5c0 -65.333 8 -112.5 24 -141.5s40.333 -43.5 73 -43.5s57 14.667 73 44s24 76.333 24 141c0 65.333 -8 112.333 -24 141s-40.333 43 -73 43s-57 -14.5 -73 -43.5zM331 815.001l51 -95l-206 -90l-35 63z" />
    <glyph glyph-name="ocircumflex" unicode="&#xf4;" horiz-adv-x="532" 
d="M433 472c40 -48 60 -116.999 60 -206.999c0 -86.667 -20.167 -155 -60.5 -205s-95.833 -75 -166.5 -75c-71.333 0 -127.166 24.5 -167.499 73.5s-60.5 117.833 -60.5 206.5c0 87.333 20.167 155.666 60.5 204.999s96.166 74 167.499 74s127 -24 167 -72zM193 405.501
c-16 -29 -24 -75.833 -24 -140.5c0 -65.333 8 -112.5 24 -141.5s40.333 -43.5 73 -43.5s57 14.667 73 44s24 76.333 24 141c0 65.333 -8 112.333 -24 141s-40.333 43 -73 43s-57 -14.5 -73 -43.5zM148 629.001l-46 51l126 127h77l126 -127l-47 -51l-118 88z" />
    <glyph glyph-name="otilde" unicode="&#xf5;" horiz-adv-x="532" 
d="M433 472c40 -48 60 -116.999 60 -206.999c0 -86.667 -20.167 -155 -60.5 -205s-95.833 -75 -166.5 -75c-71.333 0 -127.166 24.5 -167.499 73.5s-60.5 117.833 -60.5 206.5c0 87.333 20.167 155.666 60.5 204.999s96.166 74 167.499 74s127 -24 167 -72zM193 405.501
c-16 -29 -24 -75.833 -24 -140.5c0 -65.333 8 -112.5 24 -141.5s40.333 -43.5 73 -43.5s57 14.667 73 44s24 76.333 24 141c0 65.333 -8 112.333 -24 141s-40.333 43 -73 43s-57 -14.5 -73 -43.5zM286.5 654.501c-9 4.33301 -20.1689 10.834 -33.502 19.501
c-15.333 12 -28.333 18 -39 18c-10 0 -18.5 -3.5 -25.5 -10.5s-14.5 -18.167 -22.5 -33.5l-64 31c12 30.667 27.333 55.167 46 73.5s40 27.5 64 27.5c12.667 0 23.834 -2.33301 33.501 -7s20.5 -11 32.5 -19c1.33301 -1.33301 4.83301 -3.83301 10.5 -7.5
s11 -6.33398 16 -8.00098s9.5 -2.5 13.5 -2.5c9.33301 0 17.333 3.33301 24 10s14.334 17.667 23.001 33l64 -31c-11.333 -32 -26.5 -56.667 -45.5 -74s-40.5 -26 -64.5 -26c-12.667 0 -23.5 2.16699 -32.5 6.5z" />
    <glyph glyph-name="odieresis" unicode="&#xf6;" horiz-adv-x="532" 
d="M433 472c40 -48 60 -116.999 60 -206.999c0 -86.667 -20.167 -155 -60.5 -205s-95.833 -75 -166.5 -75c-71.333 0 -127.166 24.5 -167.499 73.5s-60.5 117.833 -60.5 206.5c0 87.333 20.167 155.666 60.5 204.999s96.166 74 167.499 74s127 -24 167 -72zM193 405.501
c-16 -29 -24 -75.833 -24 -140.5c0 -65.333 8 -112.5 24 -141.5s40.333 -43.5 73 -43.5s57 14.667 73 44s24 76.333 24 141c0 65.333 -8 112.333 -24 141s-40.333 43 -73 43s-57 -14.5 -73 -43.5zM212 763.501c12.667 -13 19 -28.833 19 -47.5
c0 -19.333 -6.33301 -35.5 -19 -48.5s-28.667 -19.5 -48 -19.5s-35.333 6.5 -48 19.5s-19 29.167 -19 48.5c0 18.667 6.5 34.5 19.5 47.5s28.833 19.5 47.5 19.5c19.333 0 35.333 -6.5 48 -19.5zM415 763.501c12.667 -13 19 -28.833 19 -47.5
c0 -19.333 -6.33301 -35.5 -19 -48.5s-28.667 -19.5 -48 -19.5s-35.5 6.5 -48.5 19.5s-19.5 29.167 -19.5 48.5c0 18.667 6.66699 34.5 20 47.5s29.333 19.5 48 19.5c19.333 0 35.333 -6.5 48 -19.5z" />
    <glyph glyph-name="divide" unicode="&#xf7;" horiz-adv-x="462" 
d="M286.5 153c15 -15.333 22.5 -34 22.5 -56c0 -21.333 -7.5 -39.833 -22.5 -55.5s-33.833 -23.5 -56.5 -23.5c-22 0 -40.333 7.83301 -55 23.5s-22 34.167 -22 55.5c0 22 7.33301 40.667 22 56s33 23 55 23c22.667 0 41.5 -7.66699 56.5 -23zM286.5 622
c15 -15.333 22.5 -34 22.5 -56c0 -21.333 -7.5 -39.833 -22.5 -55.5s-33.833 -23.5 -56.5 -23.5c-22 0 -40.333 7.83301 -55 23.5s-22 34.167 -22 55.5c0 22 7.33301 40.667 22 56s33 23 55 23c22.667 0 41.5 -7.66699 56.5 -23zM47 283v98h368v-98h-368z" />
    <glyph glyph-name="oslash" unicode="&#xf8;" horiz-adv-x="532" 
d="M466.5 414c17.667 -41.333 26.5 -90.999 26.5 -148.999c0 -86.667 -20.167 -155 -60.5 -205s-95.833 -75 -166.5 -75c-8 0 -19.333 0.666992 -34 2l-35 -119l-93 26l38 126c-33.333 22 -59 53.833 -77 95.5s-27 91.5 -27 149.5c0 87.333 20.167 155.666 60.5 204.999
s96.166 74 167.499 74c8 0 20 -0.666992 36 -2l34 119l93 -27l-38 -125c32.667 -22 57.834 -53.667 75.501 -95zM185.5 406.501c-17.667 -29 -26.5 -76.168 -26.5 -141.501c0 -77.333 10.333 -128.666 31 -153.999l97 338c-4 0.666992 -11 1 -21 1
c-36 0 -62.833 -14.5 -80.5 -43.5zM346.5 123c17.667 29.333 26.5 76.667 26.5 142c0 39.333 -2.5 71.5 -7.5 96.5s-12.833 44.167 -23.5 57.5l-95 -339c4 -0.666992 10.333 -1 19 -1c36 0 62.833 14.667 80.5 44z" />
    <glyph glyph-name="ugrave" unicode="&#xf9;" horiz-adv-x="521" 
d="M455 0h-107.999l-7 70c-18 -28.667 -38.5 -50 -61.5 -64s-50.167 -21 -81.5 -21c-42.667 0 -75.834 14 -99.501 42s-35.5 65.667 -35.5 113v389h125v-378c0 -24.667 4.16699 -42.667 12.5 -54s21.5 -17 39.5 -17c34.667 0 65 24 91 72v377h125v-529zM198.001 815
l190 -122l-35 -63l-206 90z" />
    <glyph glyph-name="uacute" unicode="&#xfa;" horiz-adv-x="521" 
d="M455 0h-107.999l-7 70c-18 -28.667 -38.5 -50 -61.5 -64s-50.167 -21 -81.5 -21c-42.667 0 -75.834 14 -99.501 42s-35.5 65.667 -35.5 113v389h125v-378c0 -24.667 4.16699 -42.667 12.5 -54s21.5 -17 39.5 -17c34.667 0 65 24 91 72v377h125v-529zM324.001 815l51 -95
l-206 -90l-35 63z" />
    <glyph glyph-name="ucircumflex" unicode="&#xfb;" horiz-adv-x="521" 
d="M455 0h-107.999l-7 70c-18 -28.667 -38.5 -50 -61.5 -64s-50.167 -21 -81.5 -21c-42.667 0 -75.834 14 -99.501 42s-35.5 65.667 -35.5 113v389h125v-378c0 -24.667 4.16699 -42.667 12.5 -54s21.5 -17 39.5 -17c34.667 0 65 24 91 72v377h125v-529zM141.001 629l-46 51
l126 127h77l126 -127l-47 -51l-118 88z" />
    <glyph glyph-name="udieresis" unicode="&#xfc;" horiz-adv-x="521" 
d="M455 0h-107.999l-7 70c-18 -28.667 -38.5 -50 -61.5 -64s-50.167 -21 -81.5 -21c-42.667 0 -75.834 14 -99.501 42s-35.5 65.667 -35.5 113v389h125v-378c0 -24.667 4.16699 -42.667 12.5 -54s21.5 -17 39.5 -17c34.667 0 65 24 91 72v377h125v-529zM205.001 763.5
c12.667 -13 19 -28.833 19 -47.5c0 -19.333 -6.33301 -35.5 -19 -48.5s-28.667 -19.5 -48 -19.5s-35.333 6.5 -48 19.5s-19 29.167 -19 48.5c0 18.667 6.5 34.5 19.5 47.5s28.833 19.5 47.5 19.5c19.333 0 35.333 -6.5 48 -19.5zM408.001 763.5
c12.667 -13 19 -28.833 19 -47.5c0 -19.333 -6.33301 -35.5 -19 -48.5s-28.667 -19.5 -48 -19.5s-35.5 6.5 -48.5 19.5s-19.5 29.167 -19.5 48.5c0 18.667 6.66699 34.5 20 47.5s29.333 19.5 48 19.5c19.333 0 35.333 -6.5 48 -19.5z" />
    <glyph glyph-name="yacute" unicode="&#xfd;" horiz-adv-x="465" 
d="M309 -2c-18.667 -64.667 -48.5 -115.333 -89.5 -152s-96.167 -58 -165.5 -64l-13 91c45.333 7.33301 79 20.333 101 39s40 48 54 88h-45l-149 529h129l101 -446l105 446h126zM297 815.001l51 -95l-206 -90l-35 63z" />
    <glyph glyph-name="thorn" unicode="&#xfe;" horiz-adv-x="539" 
d="M454 471.5c29.333 -48.333 44 -116.833 44 -205.5c0 -85.333 -16.667 -153.5 -50 -204.5s-79.333 -76.5 -138 -76.5c-49.333 0 -89 20 -119 60v-246l-125 -16v958l125 13v-280c34 46.667 77.667 70 131 70c58.667 0 102.667 -24.167 132 -72.5zM344 124.5
c16 29 24 75.833 24 140.5c0 67.333 -7 114.833 -21 142.5s-35.333 41.5 -64 41.5c-35.333 0 -66 -23 -92 -69v-246c22.667 -35.333 50.667 -53 84 -53c30 0 53 14.5 69 43.5z" />
    <glyph glyph-name="ydieresis" unicode="&#xff;" horiz-adv-x="465" 
d="M309 -2c-18.667 -64.667 -48.5 -115.333 -89.5 -152s-96.167 -58 -165.5 -64l-13 91c45.333 7.33301 79 20.333 101 39s40 48 54 88h-45l-149 529h129l101 -446l105 446h126zM178 763.501c12.667 -13 19 -28.833 19 -47.5c0 -19.333 -6.33301 -35.5 -19 -48.5
s-28.667 -19.5 -48 -19.5s-35.333 6.5 -48 19.5s-19 29.167 -19 48.5c0 18.667 6.5 34.5 19.5 47.5s28.833 19.5 47.5 19.5c19.333 0 35.333 -6.5 48 -19.5zM381 763.501c12.667 -13 19 -28.833 19 -47.5c0 -19.333 -6.33301 -35.5 -19 -48.5s-28.667 -19.5 -48 -19.5
s-35.5 6.5 -48.5 19.5s-19.5 29.167 -19.5 48.5c0 18.667 6.66699 34.5 20 47.5s29.333 19.5 48 19.5c19.333 0 35.333 -6.5 48 -19.5z" />
    <glyph glyph-name="Amacron" unicode="&#x100;" horiz-adv-x="535" 
d="M404 0l-38 161h-200l-38 -161h-131l192 691h158l191 -691h-134zM188 259h156l-78 333zM401 788h-266v88h266v-88z" />
    <glyph glyph-name="amacron" unicode="&#x101;" horiz-adv-x="495" 
d="M436 91.5c5.33301 -9 14.0029 -16.165 26.0029 -21.498l-26 -83c-28.667 3.33301 -51.834 10.666 -69.501 21.999s-30.834 29 -39.501 53c-32.667 -51.333 -80 -77 -142 -77c-47.333 0 -85 15 -113 45s-42 69.333 -42 118c0 57.333 19 101.166 57 131.499
s93 45.5 165 45.5h53v33c0 33.333 -6.66699 57 -20 71s-35 21 -65 21c-34.667 0 -77.334 -9 -128.001 -27l-29 83c60.667 25.333 119.667 38 177 38c125.333 0 188 -59.667 188 -179v-232c0 -18.667 2.66699 -32.5 8 -41.5zM305.003 141.002l-0.000976562 110.001h-40
c-73.333 0 -110 -31.333 -110 -94c0 -26.667 5.66699 -46.834 17 -60.501s27 -20.5 47 -20.5c36.667 0 65.334 21.667 86.001 65zM374.002 662.003h-266v88h266v-88z" />
    <glyph glyph-name="Abreve" unicode="&#x102;" horiz-adv-x="535" 
d="M404 0l-38 161h-200l-38 -161h-131l192 691h158l191 -691h-134zM188 259h156l-78 333zM163.5 793.5c-26.333 26.333 -41.166 60.833 -44.499 103.5l71 14c12 -44.667 38 -67 78 -67c20 0 36.667 5.83301 50 17.5s22.666 28.167 27.999 49.5l71 -14
c-3.33301 -42.667 -18.333 -77.167 -45 -103.5s-61.334 -39.5 -104.001 -39.5c-43.333 0 -78.166 13.167 -104.499 39.5z" />
    <glyph glyph-name="abreve" unicode="&#x103;" horiz-adv-x="495" 
d="M436 91.5c5.33301 -9 14.0029 -16.165 26.0029 -21.498l-26 -83c-28.667 3.33301 -51.834 10.666 -69.501 21.999s-30.834 29 -39.501 53c-32.667 -51.333 -80 -77 -142 -77c-47.333 0 -85 15 -113 45s-42 69.333 -42 118c0 57.333 19 101.166 57 131.499
s93 45.5 165 45.5h53v33c0 33.333 -6.66699 57 -20 71s-35 21 -65 21c-34.667 0 -77.334 -9 -128.001 -27l-29 83c60.667 25.333 119.667 38 177 38c125.333 0 188 -59.667 188 -179v-232c0 -18.667 2.66699 -32.5 8 -41.5zM305.003 141.002l-0.000976562 110.001h-40
c-73.333 0 -110 -31.333 -110 -94c0 -26.667 5.66699 -46.834 17 -60.501s27 -20.5 47 -20.5c36.667 0 65.334 21.667 86.001 65zM136.502 679.003c-26.333 27.333 -41.1699 64.666 -44.5029 111.999l71 13c12 -51.333 38 -77 78 -77c40.667 0 66.667 25.667 78 77l71 -13
c-3.33301 -47.333 -18.166 -84.666 -44.499 -111.999s-61.166 -41 -104.499 -41s-78.166 13.667 -104.499 41z" />
    <glyph glyph-name="Aogonek" unicode="&#x104;" horiz-adv-x="535" 
d="M389.5 -54c-15 -17.333 -22.499 -35.666 -22.499 -54.999c0 -31.333 16.333 -47 49 -47c11.333 0 29.333 2.33301 54 7l-9 -82c-22 -4.66699 -42.333 -7 -61 -7c-38 0 -68.667 9.66699 -92 29s-35 45.666 -35 78.999s10.667 62.333 32 87s52.666 46 93.999 64l-33 140
h-200l-38 -161h-131l192 691h158l191 -691h-64c-41.333 -18.667 -69.5 -36.667 -84.5 -54zM188.001 259h156l-78 333z" />
    <glyph glyph-name="aogonek" unicode="&#x105;" horiz-adv-x="495" 
d="M351.5 -67c-15 -17.333 -22.499 -35.6641 -22.499 -54.9971c0 -31.333 16.333 -47 49 -47c11.333 0 29.333 2.33301 54 7l-9 -82c-22 -4.66699 -42.333 -7 -61 -7c-38 0 -68.667 9.66699 -92 29s-35 45.666 -35 78.999c0 64.667 43.667 115.667 131 153
c-17.333 11.333 -30.333 28.666 -39 51.999c-32.667 -51.333 -80 -77 -142 -77c-47.333 0 -85 15 -113 45s-42 69.333 -42 118c0 57.333 19 101.166 57 131.499s93 45.5 165 45.5h53v33c0 33.333 -6.66699 57 -20 71s-35 21 -65 21c-34.667 0 -77.334 -9 -128.001 -27
l-29 83c60.667 25.333 119.667 38 177 38c125.333 0 188 -59.667 188 -179v-232c0 -18.667 2.66699 -32.5 8 -41.5s14 -16.167 26 -21.5l-26 -83c-41.333 -18.667 -69.5 -36.667 -84.5 -54zM305.001 141.002l-0.000976562 110.001h-40c-73.333 0 -110 -31.333 -110 -94
c0 -26.667 5.66699 -46.834 17 -60.501s27 -20.5 47 -20.5c36.667 0 65.334 21.667 86.001 65z" />
    <glyph glyph-name="Cacute" unicode="&#x106;" horiz-adv-x="517" 
d="M414.5 688c29 -12 57.499 -30.001 85.499 -54.001l-64 -75c-37.333 31.333 -75.666 47 -114.999 47c-45.333 0 -81 -20.333 -107 -61s-39 -106.667 -39 -198c0 -89.333 13 -154.666 39 -195.999s62 -62 108 -62c24 0 45 4.5 63 13.5s38 22.167 60 39.5l62 -74
c-23.333 -24 -51 -43.833 -83 -59.5s-68 -23.5 -108 -23.5c-55.333 0 -103.833 13.5 -145.5 40.5s-74 67.667 -97 122s-34.5 120.833 -34.5 199.5c0 77.333 12 143 36 197s56.667 94.5 98 121.5s88.333 40.5 141 40.5c38 0 71.5 -6 100.5 -18zM390.999 931.999l49 -96
l-209 -83l-32 64z" />
    <glyph glyph-name="cacute" unicode="&#x107;" horiz-adv-x="433" 
d="M351 529c25.333 -10 49.334 -25.333 72.001 -46l-55 -73c-30 24 -61.333 36 -94 36c-34 0 -59.833 -14.5 -77.5 -43.5s-26.5 -75.833 -26.5 -140.5c0 -64 8.83301 -109.333 26.5 -136s43.5 -40 77.5 -40c16.667 0 32 2.83301 46 8.5s29.667 14.5 47 26.5l56 -75
c-46 -40.667 -97.667 -61 -155 -61c-72 0 -128.333 23.833 -169 71.5s-61 115.5 -61 203.5c0 57.333 9.33301 107.5 28 150.5s45.167 76 79.5 99s74.5 34.5 120.5 34.5c31.333 0 59.666 -5 84.999 -15zM331.001 815l51 -95l-206 -90l-35 63z" />
    <glyph glyph-name="Ccircumflex" unicode="&#x108;" horiz-adv-x="517" 
d="M414.5 688c29 -12 57.499 -30.001 85.499 -54.001l-64 -75c-37.333 31.333 -75.666 47 -114.999 47c-45.333 0 -81 -20.333 -107 -61s-39 -106.667 -39 -198c0 -89.333 13 -154.666 39 -195.999s62 -62 108 -62c24 0 45 4.5 63 13.5s38 22.167 60 39.5l62 -74
c-23.333 -24 -51 -43.833 -83 -59.5s-68 -23.5 -108 -23.5c-55.333 0 -103.833 13.5 -145.5 40.5s-74 67.667 -97 122s-34.5 120.833 -34.5 199.5c0 77.333 12 143 36 197s56.667 94.5 98 121.5s88.333 40.5 141 40.5c38 0 71.5 -6 100.5 -18zM200.999 758.999l-46 51
l126 121h77l126 -121l-47 -51l-118 82z" />
    <glyph glyph-name="ccircumflex" unicode="&#x109;" horiz-adv-x="433" 
d="M351 529c25.333 -10 49.334 -25.333 72.001 -46l-55 -73c-30 24 -61.333 36 -94 36c-34 0 -59.833 -14.5 -77.5 -43.5s-26.5 -75.833 -26.5 -140.5c0 -64 8.83301 -109.333 26.5 -136s43.5 -40 77.5 -40c16.667 0 32 2.83301 46 8.5s29.667 14.5 47 26.5l56 -75
c-46 -40.667 -97.667 -61 -155 -61c-72 0 -128.333 23.833 -169 71.5s-61 115.5 -61 203.5c0 57.333 9.33301 107.5 28 150.5s45.167 76 79.5 99s74.5 34.5 120.5 34.5c31.333 0 59.666 -5 84.999 -15zM148.001 629l-46 51l126 127h77l126 -127l-47 -51l-118 88z" />
    <glyph glyph-name="Cdotaccent" unicode="&#x10a;" horiz-adv-x="517" 
d="M414.5 688c29 -12 57.499 -30.001 85.499 -54.001l-64 -75c-37.333 31.333 -75.666 47 -114.999 47c-45.333 0 -81 -20.333 -107 -61s-39 -106.667 -39 -198c0 -89.333 13 -154.666 39 -195.999s62 -62 108 -62c24 0 45 4.5 63 13.5s38 22.167 60 39.5l62 -74
c-23.333 -24 -51 -43.833 -83 -59.5s-68 -23.5 -108 -23.5c-55.333 0 -103.833 13.5 -145.5 40.5s-74 67.667 -97 122s-34.5 120.833 -34.5 199.5c0 77.333 12 143 36 197s56.667 94.5 98 121.5s88.333 40.5 141 40.5c38 0 71.5 -6 100.5 -18zM375.499 899.499
c14.333 -14.333 21.5 -32.5 21.5 -54.5s-7.16699 -40.167 -21.5 -54.5s-32.833 -21.5 -55.5 -21.5s-41.167 7.16699 -55.5 21.5s-21.5 32.5 -21.5 54.5s7.16699 40.167 21.5 54.5s32.833 21.5 55.5 21.5s41.167 -7.16699 55.5 -21.5z" />
    <glyph glyph-name="cdotaccent" unicode="&#x10b;" horiz-adv-x="433" 
d="M351 529c25.333 -10 49.334 -25.333 72.001 -46l-55 -73c-30 24 -61.333 36 -94 36c-34 0 -59.833 -14.5 -77.5 -43.5s-26.5 -75.833 -26.5 -140.5c0 -64 8.83301 -109.333 26.5 -136s43.5 -40 77.5 -40c16.667 0 32 2.83301 46 8.5s29.667 14.5 47 26.5l56 -75
c-46 -40.667 -97.667 -61 -155 -61c-72 0 -128.333 23.833 -169 71.5s-61 115.5 -61 203.5c0 57.333 9.33301 107.5 28 150.5s45.167 76 79.5 99s74.5 34.5 120.5 34.5c31.333 0 59.666 -5 84.999 -15zM321.501 773.5c14.333 -14.333 21.5 -32.5 21.5 -54.5
s-7.16699 -40.167 -21.5 -54.5s-32.833 -21.5 -55.5 -21.5s-41.167 7.16699 -55.5 21.5s-21.5 32.5 -21.5 54.5s7.16699 40.167 21.5 54.5s32.833 21.5 55.5 21.5s41.167 -7.16699 55.5 -21.5z" />
    <glyph glyph-name="Ccaron" unicode="&#x10c;" horiz-adv-x="517" 
d="M414.5 688c29 -12 57.499 -30.001 85.499 -54.001l-64 -75c-37.333 31.333 -75.666 47 -114.999 47c-45.333 0 -81 -20.333 -107 -61s-39 -106.667 -39 -198c0 -89.333 13 -154.666 39 -195.999s62 -62 108 -62c24 0 45 4.5 63 13.5s38 22.167 60 39.5l62 -74
c-23.333 -24 -51 -43.833 -83 -59.5s-68 -23.5 -108 -23.5c-55.333 0 -103.833 13.5 -145.5 40.5s-74 67.667 -97 122s-34.5 120.833 -34.5 199.5c0 77.333 12 143 36 197s56.667 94.5 98 121.5s88.333 40.5 141 40.5c38 0 71.5 -6 100.5 -18zM437.999 923.999l47 -51
l-126 -121h-77l-126 121l47 51l117 -82z" />
    <glyph glyph-name="ccaron" unicode="&#x10d;" horiz-adv-x="433" 
d="M351 529c25.333 -10 49.334 -25.333 72.001 -46l-55 -73c-30 24 -61.333 36 -94 36c-34 0 -59.833 -14.5 -77.5 -43.5s-26.5 -75.833 -26.5 -140.5c0 -64 8.83301 -109.333 26.5 -136s43.5 -40 77.5 -40c16.667 0 32 2.83301 46 8.5s29.667 14.5 47 26.5l56 -75
c-46 -40.667 -97.667 -61 -155 -61c-72 0 -128.333 23.833 -169 71.5s-61 115.5 -61 203.5c0 57.333 9.33301 107.5 28 150.5s45.167 76 79.5 99s74.5 34.5 120.5 34.5c31.333 0 59.666 -5 84.999 -15zM384.001 798l47 -52l-126 -127h-77l-126 127l46 52l118 -90z" />
    <glyph glyph-name="Dcaron" unicode="&#x10e;" horiz-adv-x="589" 
d="M393.5 664c46.333 -18 84 -52.168 113 -102.501s43.5 -121.166 43.5 -212.499c0 -129.333 -28.5 -219.833 -85.5 -271.5s-130.167 -77.5 -219.5 -77.5h-176v691h161c62.667 0 117.167 -9 163.5 -27zM199 593.999l0.000976562 -497h55c51.333 0 91.166 18 119.499 54
s42.5 102 42.5 198c0 66.667 -7.16699 118 -21.5 154s-33.333 60.167 -57 72.5s-52.5 18.5 -86.5 18.5h-52zM388.001 923.999l47 -51l-126 -121h-77l-126 121l47 51l117 -82z" />
    <glyph glyph-name="dcaron" unicode="&#x10f;" horiz-adv-x="597" 
d="M476 741v-740.997h-111l-7 64c-34.667 -52.667 -79.667 -79 -135 -79c-58.667 0 -103.667 24.667 -135 74s-47 117.666 -47 204.999c0 55.333 8 104.166 24 146.499s38.5 75.166 67.5 98.499s62.5 35 100.5 35c46.667 0 86 -18.667 118 -56v266zM309 95.5029
c14.667 11 28.668 27.5 42.001 49.5v249c-12.667 18.667 -25.834 32.667 -39.501 42s-29.167 14 -46.5 14c-29.333 0 -52.333 -14.833 -69 -44.5s-25 -76.5 -25 -140.5c0 -66 7.5 -113.5 22.5 -142.5s36.5 -43.5 64.5 -43.5c19.333 0 36.333 5.5 51 16.5zM582.001 541.003
l48 200l-98 13l-20 -202z" />
    <glyph glyph-name="Dcroat" unicode="&#x110;" horiz-adv-x="604" 
d="M408.5 664c46.333 -18 84 -52.168 113 -102.501s43.5 -121.166 43.5 -212.499c0 -129.333 -28.5 -219.833 -85.5 -271.5s-130.167 -77.5 -219.5 -77.5h-176v311h-67v84h67v296h161c62.667 0 117.167 -9 163.5 -27zM388.5 150.999c28.333 36 42.501 102 42.501 198
c0 66.667 -7.16699 118 -21.5 154s-33.333 60.167 -57 72.5s-52.5 18.5 -86.5 18.5h-52v-199h118v-84h-118v-214h55c51.333 0 91.166 18 119.499 54z" />
    <glyph glyph-name="dcroat" unicode="&#x111;" horiz-adv-x="547" 
d="M535 682v-80.9971h-59v-601h-111l-7 64c-34.667 -52.667 -79.667 -79 -135 -79c-58.667 0 -103.667 24.667 -135 74s-47 117.666 -47 204.999c0 55.333 8 104.166 24 146.499s38.5 75.166 67.5 98.499s62.5 35 100.5 35c46.667 0 86 -18.667 118 -56v113h-129v81h129v72
l125 -13v-59h59zM309 95.5029c14.667 11 28.668 27.5 42.001 49.5v249c-12.667 18.667 -25.834 32.667 -39.501 42s-29.167 14 -46.5 14c-29.333 0 -52.333 -14.833 -69 -44.5s-25 -76.5 -25 -140.5c0 -66 7.5 -113.5 22.5 -142.5s36.5 -43.5 64.5 -43.5
c19.333 0 36.333 5.5 51 16.5z" />
    <glyph glyph-name="Emacron" unicode="&#x112;" horiz-adv-x="476" 
d="M438 691l-14 -96h-225v-196h197v-95h-197v-207h241v-97h-371v691h369zM388 788h-266v88h266v-88z" />
    <glyph glyph-name="emacron" unicode="&#x113;" horiz-adv-x="501" 
d="M465 226h-299c4 -53.333 15.333 -91 34 -113s44.667 -33 78 -33c21.333 0 41.333 3.66699 60 11s38.667 18.666 60 33.999l52 -71c-52.667 -46 -113 -69 -181 -69c-74 0 -131 24.333 -171 73s-60 116.334 -60 203.001c0 85.333 19.167 153.833 57.5 205.5
s91.833 77.5 160.5 77.5c66.667 0 118.667 -23 156 -69s56 -112 56 -198c0 -6 -1 -23 -3 -51zM345 313c0 48 -7 83.833 -21 107.5s-36.333 35.5 -67 35.5c-28 0 -49.5 -11.5 -64.5 -34.5s-23.833 -61.167 -26.5 -114.5h179v6zM390 662h-266v88h266v-88z" />
    <glyph glyph-name="Ebreve" unicode="&#x114;" horiz-adv-x="476" 
d="M438 691l-14 -96h-225v-196h197v-95h-197v-207h241v-97h-371v691h369zM150.5 793.5c-26.333 26.333 -41.166 60.833 -44.499 103.5l71 14c12 -44.667 38 -67 78 -67c20 0 36.667 5.83301 50 17.5s22.666 28.167 27.999 49.5l71 -14
c-3.33301 -42.667 -18.333 -77.167 -45 -103.5s-61.334 -39.5 -104.001 -39.5c-43.333 0 -78.166 13.167 -104.499 39.5z" />
    <glyph glyph-name="ebreve" unicode="&#x115;" horiz-adv-x="501" 
d="M465 226h-299c4 -53.333 15.333 -91 34 -113s44.667 -33 78 -33c21.333 0 41.333 3.66699 60 11s38.667 18.666 60 33.999l52 -71c-52.667 -46 -113 -69 -181 -69c-74 0 -131 24.333 -171 73s-60 116.334 -60 203.001c0 85.333 19.167 153.833 57.5 205.5
s91.833 77.5 160.5 77.5c66.667 0 118.667 -23 156 -69s56 -112 56 -198c0 -6 -1 -23 -3 -51zM345 313c0 48 -7 83.833 -21 107.5s-36.333 35.5 -67 35.5c-28 0 -49.5 -11.5 -64.5 -34.5s-23.833 -61.167 -26.5 -114.5h179v6zM152.5 679
c-26.333 27.333 -41.1699 64.666 -44.5029 111.999l71 13c12 -51.333 38 -77 78 -77c40.667 0 66.667 25.667 78 77l71 -13c-3.33301 -47.333 -18.166 -84.666 -44.499 -111.999s-61.166 -41 -104.499 -41s-78.166 13.667 -104.499 41z" />
    <glyph glyph-name="Edotaccent" unicode="&#x116;" horiz-adv-x="476" 
d="M438 691l-14 -96h-225v-196h197v-95h-197v-207h241v-97h-371v691h369zM310.5 899.5c14.333 -14.333 21.5 -32.5 21.5 -54.5s-7.16699 -40.167 -21.5 -54.5s-32.833 -21.5 -55.5 -21.5s-41.167 7.16699 -55.5 21.5s-21.5 32.5 -21.5 54.5s7.16699 40.167 21.5 54.5
s32.833 21.5 55.5 21.5s41.167 -7.16699 55.5 -21.5z" />
    <glyph glyph-name="edotaccent" unicode="&#x117;" horiz-adv-x="501" 
d="M465 226h-299c4 -53.333 15.333 -91 34 -113s44.667 -33 78 -33c21.333 0 41.333 3.66699 60 11s38.667 18.666 60 33.999l52 -71c-52.667 -46 -113 -69 -181 -69c-74 0 -131 24.333 -171 73s-60 116.334 -60 203.001c0 85.333 19.167 153.833 57.5 205.5
s91.833 77.5 160.5 77.5c66.667 0 118.667 -23 156 -69s56 -112 56 -198c0 -6 -1 -23 -3 -51zM345 313c0 48 -7 83.833 -21 107.5s-36.333 35.5 -67 35.5c-28 0 -49.5 -11.5 -64.5 -34.5s-23.833 -61.167 -26.5 -114.5h179v6zM312.5 773.5
c14.333 -14.333 21.5 -32.5 21.5 -54.5s-7.16699 -40.167 -21.5 -54.5s-32.833 -21.5 -55.5 -21.5s-41.167 7.16699 -55.5 21.5s-21.5 32.5 -21.5 54.5s7.16699 40.167 21.5 54.5s32.833 21.5 55.5 21.5s41.167 -7.16699 55.5 -21.5z" />
    <glyph glyph-name="Eogonek" unicode="&#x118;" horiz-adv-x="476" 
d="M440 97v-96.999h-36c-41.333 -18.667 -69.5 -36.667 -84.5 -54s-22.5 -35.666 -22.5 -54.999c0 -31.333 16.333 -47 49 -47c11.333 0 29.333 2.33301 54 7l-9 -82c-22 -4.66699 -42.333 -7 -61 -7c-38 0 -68.667 9.66699 -92 29s-35 45.666 -35 78.999
c0 53.333 28.667 96.666 86 129.999h-220v691h369l-14 -96h-225v-196h197v-95h-197v-207h241z" />
    <glyph glyph-name="eogonek" unicode="&#x119;" horiz-adv-x="501" 
d="M465 226l-299 0.00292969c4 -53.333 15.333 -91 34 -113s44.667 -33 78 -33c21.333 0 41.333 3.66699 60 11s38.667 18.666 60 33.999l52 -71c-27.333 -24 -57.666 -42 -90.999 -54c-34.667 -17.333 -58.5 -34 -71.5 -50s-19.5 -32.667 -19.5 -50
c0 -31.333 16.333 -47 49 -47c17.333 0 35.666 2.33301 54.999 7l-9 -83c-22 -4.66699 -42.667 -7 -62 -7c-37.333 0 -67.666 10 -90.999 30s-35 46 -35 78c0 44.667 23.333 80.667 70 108c-66.667 5.33301 -117.834 32.166 -153.501 80.499s-53.5 113.166 -53.5 194.499
c0 85.333 19.167 153.833 57.5 205.5s91.833 77.5 160.5 77.5c66.667 0 118.667 -23 156 -69s56 -112 56 -198c0 -6 -1 -23 -3 -51zM345 313.003c0 48 -7 83.833 -21 107.5s-36.333 35.5 -67 35.5c-28 0 -49.5 -11.5 -64.5 -34.5s-23.833 -61.167 -26.5 -114.5h179v6z" />
    <glyph glyph-name="Ecaron" unicode="&#x11a;" horiz-adv-x="476" 
d="M438 691l-14 -96h-225v-196h197v-95h-197v-207h241v-97h-371v691h369zM373 924l47 -51l-126 -121h-77l-126 121l47 51l117 -82z" />
    <glyph glyph-name="ecaron" unicode="&#x11b;" horiz-adv-x="501" 
d="M465 226h-299c4 -53.333 15.333 -91 34 -113s44.667 -33 78 -33c21.333 0 41.333 3.66699 60 11s38.667 18.666 60 33.999l52 -71c-52.667 -46 -113 -69 -181 -69c-74 0 -131 24.333 -171 73s-60 116.334 -60 203.001c0 85.333 19.167 153.833 57.5 205.5
s91.833 77.5 160.5 77.5c66.667 0 118.667 -23 156 -69s56 -112 56 -198c0 -6 -1 -23 -3 -51zM345 313c0 48 -7 83.833 -21 107.5s-36.333 35.5 -67 35.5c-28 0 -49.5 -11.5 -64.5 -34.5s-23.833 -61.167 -26.5 -114.5h179v6zM375 798l47 -52l-126 -127h-77l-126 127l46 52
l118 -90z" />
    <glyph glyph-name="Gcircumflex" unicode="&#x11c;" horiz-adv-x="582" 
d="M439.5 685.5c32.333 -13.667 62.832 -33.835 91.499 -60.502l-67 -69c-22.667 18.667 -43.834 32 -63.501 40s-42.167 12 -67.5 12c-48 0 -86.5 -20.5 -115.5 -61.5s-43.5 -107.833 -43.5 -200.5c0 -65.333 5.16699 -117.166 15.5 -155.499s25.833 -65.666 46.5 -81.999
s47 -24.5 79 -24.5c34.667 0 66.334 8.66699 95.001 26v184h-90l-13 96h228v-337c-32 -21.333 -66.667 -38 -104 -50s-75.333 -18 -114 -18c-185.333 0 -278 120.333 -278 361c0 78 12.833 144 38.5 198s60.334 94.5 104.001 121.5s92.834 40.5 147.501 40.5
c41.333 0 78.166 -6.83301 110.499 -20.5zM200.999 758.999l-46 51l126 121h77l126 -121l-47 -51l-118 82z" />
    <glyph glyph-name="gcircumflex" unicode="&#x11d;" horiz-adv-x="486" 
d="M487 502c-30.667 -12.667 -76.3311 -19 -136.998 -19c30 -13.333 52.333 -31.166 67 -53.499s22 -49.5 22 -81.5c0 -53.333 -17.667 -96.333 -53 -129s-83 -49 -143 -49c-22 0 -40.667 2.66699 -56 8c-6 -4.66699 -10.833 -10.5 -14.5 -17.5s-5.5 -14.5 -5.5 -22.5
c0 -12 4.16699 -21.5 12.5 -28.5s23.166 -10.5 44.499 -10.5h67c56 0 100.333 -14 133 -42s49 -63.667 49 -107c0 -51.333 -20.667 -92 -62 -122s-101 -45 -179 -45c-82 0 -139.5 13.833 -172.5 41.5s-49.5 68.834 -49.5 123.501h112c0 -28 7.66699 -48 23 -60
s44.666 -18 87.999 -18c42 0 71.667 6.16699 89 18.5s26 30.166 26 53.499c0 43.333 -27.667 65 -83 65h-56c-50.667 0 -88 9.33301 -112 28s-36 43 -36 73c0 18.667 5 36.334 15 53.001s24 31 42 43c-29.333 17.333 -50.833 38 -64.5 62s-20.5 53.333 -20.5 88
c0 57.333 18.5 103.166 55.5 137.499s85.833 51.5 146.5 51.5c50 0 90.5 4.66699 121.5 14s63.833 23.666 98.5 42.999zM177.503 433c-13.667 -17.333 -20.499 -43.001 -20.499 -77.001c0 -33.333 7 -59.166 21 -77.499s33.667 -27.5 59 -27.5
c27.333 0 47.666 8.5 60.999 25.5s20 43.833 20 80.5c0 68 -27 102 -81 102c-26 0 -45.833 -8.66699 -59.5 -26zM126.004 628.999l-46 51l126 127h77l126 -127l-47 -51l-118 88z" />
    <glyph glyph-name="Gbreve" unicode="&#x11e;" horiz-adv-x="582" 
d="M439.5 685.5c32.333 -13.667 62.832 -33.835 91.499 -60.502l-67 -69c-22.667 18.667 -43.834 32 -63.501 40s-42.167 12 -67.5 12c-48 0 -86.5 -20.5 -115.5 -61.5s-43.5 -107.833 -43.5 -200.5c0 -65.333 5.16699 -117.166 15.5 -155.499s25.833 -65.666 46.5 -81.999
s47 -24.5 79 -24.5c34.667 0 66.334 8.66699 95.001 26v184h-90l-13 96h228v-337c-32 -21.333 -66.667 -38 -104 -50s-75.333 -18 -114 -18c-185.333 0 -278 120.333 -278 361c0 78 12.833 144 38.5 198s60.334 94.5 104.001 121.5s92.834 40.5 147.501 40.5
c41.333 0 78.166 -6.83301 110.499 -20.5zM215.499 793.499c-26.333 26.333 -41.166 60.833 -44.499 103.5l71 14c12 -44.667 38 -67 78 -67c20 0 36.667 5.83301 50 17.5s22.666 28.167 27.999 49.5l71 -14c-3.33301 -42.667 -18.333 -77.167 -45 -103.5
s-61.334 -39.5 -104.001 -39.5c-43.333 0 -78.166 13.167 -104.499 39.5z" />
    <glyph glyph-name="gbreve" unicode="&#x11f;" horiz-adv-x="486" 
d="M487 502c-30.667 -12.667 -76.3311 -19 -136.998 -19c30 -13.333 52.333 -31.166 67 -53.499s22 -49.5 22 -81.5c0 -53.333 -17.667 -96.333 -53 -129s-83 -49 -143 -49c-22 0 -40.667 2.66699 -56 8c-6 -4.66699 -10.833 -10.5 -14.5 -17.5s-5.5 -14.5 -5.5 -22.5
c0 -12 4.16699 -21.5 12.5 -28.5s23.166 -10.5 44.499 -10.5h67c56 0 100.333 -14 133 -42s49 -63.667 49 -107c0 -51.333 -20.667 -92 -62 -122s-101 -45 -179 -45c-82 0 -139.5 13.833 -172.5 41.5s-49.5 68.834 -49.5 123.501h112c0 -28 7.66699 -48 23 -60
s44.666 -18 87.999 -18c42 0 71.667 6.16699 89 18.5s26 30.166 26 53.499c0 43.333 -27.667 65 -83 65h-56c-50.667 0 -88 9.33301 -112 28s-36 43 -36 73c0 18.667 5 36.334 15 53.001s24 31 42 43c-29.333 17.333 -50.833 38 -64.5 62s-20.5 53.333 -20.5 88
c0 57.333 18.5 103.166 55.5 137.499s85.833 51.5 146.5 51.5c50 0 90.5 4.66699 121.5 14s63.833 23.666 98.5 42.999zM177.503 433c-13.667 -17.333 -20.499 -43.001 -20.499 -77.001c0 -33.333 7 -59.166 21 -77.499s33.667 -27.5 59 -27.5
c27.333 0 47.666 8.5 60.999 25.5s20 43.833 20 80.5c0 68 -27 102 -81 102c-26 0 -45.833 -8.66699 -59.5 -26zM139.504 678.999c-26.333 27.333 -41.1699 64.666 -44.5029 111.999l71 13c12 -51.333 38 -77 78 -77c40.667 0 66.667 25.667 78 77l71 -13
c-3.33301 -47.333 -18.166 -84.666 -44.499 -111.999s-61.166 -41 -104.499 -41s-78.166 13.667 -104.499 41z" />
    <glyph glyph-name="Gdotaccent" unicode="&#x120;" horiz-adv-x="582" 
d="M439.5 685.5c32.333 -13.667 62.832 -33.835 91.499 -60.502l-67 -69c-22.667 18.667 -43.834 32 -63.501 40s-42.167 12 -67.5 12c-48 0 -86.5 -20.5 -115.5 -61.5s-43.5 -107.833 -43.5 -200.5c0 -65.333 5.16699 -117.166 15.5 -155.499s25.833 -65.666 46.5 -81.999
s47 -24.5 79 -24.5c34.667 0 66.334 8.66699 95.001 26v184h-90l-13 96h228v-337c-32 -21.333 -66.667 -38 -104 -50s-75.333 -18 -114 -18c-185.333 0 -278 120.333 -278 361c0 78 12.833 144 38.5 198s60.334 94.5 104.001 121.5s92.834 40.5 147.501 40.5
c41.333 0 78.166 -6.83301 110.499 -20.5zM375.499 899.499c14.333 -14.333 21.5 -32.5 21.5 -54.5s-7.16699 -40.167 -21.5 -54.5s-32.833 -21.5 -55.5 -21.5s-41.167 7.16699 -55.5 21.5s-21.5 32.5 -21.5 54.5s7.16699 40.167 21.5 54.5s32.833 21.5 55.5 21.5
s41.167 -7.16699 55.5 -21.5z" />
    <glyph glyph-name="gdotaccent" unicode="&#x121;" horiz-adv-x="486" 
d="M487 502c-30.667 -12.667 -76.3311 -19 -136.998 -19c30 -13.333 52.333 -31.166 67 -53.499s22 -49.5 22 -81.5c0 -53.333 -17.667 -96.333 -53 -129s-83 -49 -143 -49c-22 0 -40.667 2.66699 -56 8c-6 -4.66699 -10.833 -10.5 -14.5 -17.5s-5.5 -14.5 -5.5 -22.5
c0 -12 4.16699 -21.5 12.5 -28.5s23.166 -10.5 44.499 -10.5h67c56 0 100.333 -14 133 -42s49 -63.667 49 -107c0 -51.333 -20.667 -92 -62 -122s-101 -45 -179 -45c-82 0 -139.5 13.833 -172.5 41.5s-49.5 68.834 -49.5 123.501h112c0 -28 7.66699 -48 23 -60
s44.666 -18 87.999 -18c42 0 71.667 6.16699 89 18.5s26 30.166 26 53.499c0 43.333 -27.667 65 -83 65h-56c-50.667 0 -88 9.33301 -112 28s-36 43 -36 73c0 18.667 5 36.334 15 53.001s24 31 42 43c-29.333 17.333 -50.833 38 -64.5 62s-20.5 53.333 -20.5 88
c0 57.333 18.5 103.166 55.5 137.499s85.833 51.5 146.5 51.5c50 0 90.5 4.66699 121.5 14s63.833 23.666 98.5 42.999zM177.503 433c-13.667 -17.333 -20.499 -43.001 -20.499 -77.001c0 -33.333 7 -59.166 21 -77.499s33.667 -27.5 59 -27.5
c27.333 0 47.666 8.5 60.999 25.5s20 43.833 20 80.5c0 68 -27 102 -81 102c-26 0 -45.833 -8.66699 -59.5 -26zM299.504 773.499c14.333 -14.333 21.5 -32.5 21.5 -54.5s-7.16699 -40.167 -21.5 -54.5s-32.833 -21.5 -55.5 -21.5s-41.167 7.16699 -55.5 21.5
s-21.5 32.5 -21.5 54.5s7.16699 40.167 21.5 54.5s32.833 21.5 55.5 21.5s41.167 -7.16699 55.5 -21.5z" />
    <glyph glyph-name="Gcommaaccent" unicode="&#x122;" horiz-adv-x="582" 
d="M439.5 685.5c32.333 -13.667 62.832 -33.835 91.499 -60.502l-67 -69c-22.667 18.667 -43.834 32 -63.501 40s-42.167 12 -67.5 12c-48 0 -86.5 -20.5 -115.5 -61.5s-43.5 -107.833 -43.5 -200.5c0 -65.333 5.16699 -117.166 15.5 -155.499s25.833 -65.666 46.5 -81.999
s47 -24.5 79 -24.5c34.667 0 66.334 8.66699 95.001 26v184h-90l-13 96h228v-337c-32 -21.333 -66.667 -38 -104 -50s-75.333 -18 -114 -18c-185.333 0 -278 120.333 -278 361c0 78 12.833 144 38.5 198s60.334 94.5 104.001 121.5s92.834 40.5 147.501 40.5
c41.333 0 78.166 -6.83301 110.499 -20.5zM362.499 -91.001c12.333 -12.667 18.5 -28.667 18.5 -48c0 -10.667 -1.66699 -21.5 -5 -32.5s-9.66602 -26.833 -18.999 -47.5l-40 -91h-64l27 115c-20 14 -30 32.667 -30 56c0 18.667 6.16699 34.5 18.5 47.5
s28.166 19.5 47.499 19.5c18.667 0 34.167 -6.33301 46.5 -19z" />
    <glyph glyph-name="gcommaaccent" unicode="&#x123;" horiz-adv-x="486" 
d="M487 502c-30.667 -12.667 -76.3311 -19 -136.998 -19c30 -13.333 52.333 -31.166 67 -53.499s22 -49.5 22 -81.5c0 -53.333 -17.667 -96.333 -53 -129s-83 -49 -143 -49c-22 0 -40.667 2.66699 -56 8c-6 -4.66699 -10.833 -10.5 -14.5 -17.5s-5.5 -14.5 -5.5 -22.5
c0 -12 4.16699 -21.5 12.5 -28.5s23.166 -10.5 44.499 -10.5h67c56 0 100.333 -14 133 -42s49 -63.667 49 -107c0 -51.333 -20.667 -92 -62 -122s-101 -45 -179 -45c-82 0 -139.5 13.833 -172.5 41.5s-49.5 68.834 -49.5 123.501h112c0 -28 7.66699 -48 23 -60
s44.666 -18 87.999 -18c42 0 71.667 6.16699 89 18.5s26 30.166 26 53.499c0 43.333 -27.667 65 -83 65h-56c-50.667 0 -88 9.33301 -112 28s-36 43 -36 73c0 18.667 5 36.334 15 53.001s24 31 42 43c-29.333 17.333 -50.833 38 -64.5 62s-20.5 53.333 -20.5 88
c0 57.333 18.5 103.166 55.5 137.499s85.833 51.5 146.5 51.5c50 0 90.5 4.66699 121.5 14s63.833 23.666 98.5 42.999zM177.503 433c-13.667 -17.333 -20.499 -43.001 -20.499 -77.001c0 -33.333 7 -59.166 21 -77.499s33.667 -27.5 59 -27.5
c27.333 0 47.666 8.5 60.999 25.5s20 43.833 20 80.5c0 68 -27 102 -81 102c-26 0 -45.833 -8.66699 -59.5 -26zM196.504 598.999c-12.333 12.667 -18.5 28.667 -18.5 48c0 10.667 1.66699 21.5 5 32.5s9.66602 26.833 18.999 47.5l40 91h64l-27 -115
c20 -14 30 -32.667 30 -56c0 -18.667 -6.16699 -34.5 -18.5 -47.5s-28.166 -19.5 -47.499 -19.5c-18.667 0 -34.167 6.33301 -46.5 19z" />
    <glyph glyph-name="Hcircumflex" unicode="&#x124;" horiz-adv-x="606" 
d="M407 0v310h-208v-310h-130v691h130v-278h208v278h130v-691h-130zM184 759l-46 51l126 121h77l126 -121l-47 -51l-118 82z" />
    <glyph glyph-name="hcircumflex" unicode="&#x125;" horiz-adv-x="525" 
d="M427.5 502c24.333 -28 36.501 -66 36.501 -114v-388h-125v371c0 28 -4.5 47.833 -13.5 59.5s-22.167 17.5 -39.5 17.5c-33.333 0 -65 -26.333 -95 -79v-369h-125v740l125 13v-287c18.667 26 39 45.5 61 58.5s47.667 19.5 77 19.5c41.333 0 74.166 -14 98.499 -42z
M143.001 809l-46 51l126 121h77l126 -121l-47 -51l-118 82z" />
    <glyph glyph-name="Hbar" unicode="&#x126;" horiz-adv-x="615" 
d="M595 584v-80h-53v-504h-130v310h-208v-310h-130v504h-55v80h55v107h130v-107h208v107h130v-107h53zM412 413v91h-208v-91h208z" />
    <glyph glyph-name="hbar" unicode="&#x127;" horiz-adv-x="531" 
d="M433.5 502c24.333 -28 36.501 -66 36.501 -114v-388h-125v371c0 28 -4.5 47.833 -13.5 59.5s-22.167 17.5 -39.5 17.5c-33.333 0 -65 -26.333 -95 -79v-369h-125v602h-60v81h60v57l125 13v-70h123v-81h-123v-136c18.667 26 39 45.5 61 58.5s47.667 19.5 77 19.5
c41.333 0 74.166 -14 98.499 -42z" />
    <glyph glyph-name="Itilde" unicode="&#x128;" horiz-adv-x="268" 
d="M199 691v-691h-130v691h130zM154.5 780.5c-9 4.33301 -20.1689 10.834 -33.502 19.501c-15.333 12 -28.333 18 -39 18c-10 0 -18.5 -3.5 -25.5 -10.5s-14.5 -18.167 -22.5 -33.5l-64 31c12 30.667 27.333 55.167 46 73.5s40 27.5 64 27.5
c12.667 0 23.834 -2.33301 33.501 -7s20.5 -11 32.5 -19c1.33301 -1.33301 4.83301 -3.83301 10.5 -7.5s11 -6.33398 16 -8.00098s9.5 -2.5 13.5 -2.5c9.33301 0 17.333 3.33301 24 10s14.334 17.667 23.001 33l64 -31c-11.333 -32 -26.5 -56.667 -45.5 -74
s-40.5 -26 -64.5 -26c-12.667 0 -23.5 2.16699 -32.5 6.5z" />
    <glyph glyph-name="itilde" unicode="&#x129;" horiz-adv-x="257" 
d="M191 529v-529h-125v529h125zM149.5 654.5c-9 4.33301 -20.1689 10.834 -33.502 19.501c-15.333 12 -28.333 18 -39 18c-10 0 -18.5 -3.5 -25.5 -10.5s-14.5 -18.167 -22.5 -33.5l-64 31c12 30.667 27.333 55.167 46 73.5s40 27.5 64 27.5
c12.667 0 23.834 -2.33301 33.501 -7s20.5 -11 32.5 -19c1.33301 -1.33301 4.83301 -3.83301 10.5 -7.5s11 -6.33398 16 -8.00098s9.5 -2.5 13.5 -2.5c9.33301 0 17.333 3.33301 24 10s14.334 17.667 23.001 33l64 -31c-11.333 -32 -26.5 -56.667 -45.5 -74
s-40.5 -26 -64.5 -26c-12.667 0 -23.5 2.16699 -32.5 6.5z" />
    <glyph glyph-name="Imacron" unicode="&#x12a;" horiz-adv-x="268" 
d="M199 691v-691h-130v691h130zM266 788h-266v88h266v-88z" />
    <glyph glyph-name="imacron" unicode="&#x12b;" horiz-adv-x="257" 
d="M191 529v-529h-125v529h125zM262 662h-266v88h266v-88z" />
    <glyph glyph-name="Ibreve" unicode="&#x12c;" horiz-adv-x="268" 
d="M199 691v-691h-130v691h130zM28.5 793.5c-26.333 26.333 -41.166 60.833 -44.499 103.5l71 14c12 -44.667 38 -67 78 -67c20 0 36.667 5.83301 50 17.5s22.666 28.167 27.999 49.5l71 -14c-3.33301 -42.667 -18.333 -77.167 -45 -103.5s-61.334 -39.5 -104.001 -39.5
c-43.333 0 -78.166 13.167 -104.499 39.5z" />
    <glyph glyph-name="ibreve" unicode="&#x12d;" horiz-adv-x="257" 
d="M191 529v-529h-125v529h125zM24.5 679c-26.333 27.333 -41.1699 64.666 -44.5029 111.999l71 13c12 -51.333 38 -77 78 -77c40.667 0 66.667 25.667 78 77l71 -13c-3.33301 -47.333 -18.166 -84.666 -44.499 -111.999s-61.166 -41 -104.499 -41
s-78.166 13.667 -104.499 41z" />
    <glyph glyph-name="Iogonek" unicode="&#x12e;" horiz-adv-x="268" 
d="M199 691v-691h-23c-41.333 -18.667 -69.5 -36.667 -84.5 -54s-22.5 -35.666 -22.5 -54.999c0 -31.333 16.333 -47 49 -47c11.333 0 29.333 2.33301 54 7l-9 -82c-22 -4.66699 -42.333 -7 -61 -7c-38 0 -68.667 9.66699 -92 29s-35 45.666 -35 78.999
c0 54.667 31.333 99.667 94 135v686h130z" />
    <glyph glyph-name="iogonek" unicode="&#x12f;" horiz-adv-x="257" 
d="M73.5 664.5c-14.333 14.333 -21.5 32.5 -21.5 54.5s7.16699 40.167 21.5 54.5s32.833 21.5 55.5 21.5s41.167 -7.16699 55.5 -21.5s21.5 -32.5 21.5 -54.5s-7.16699 -40.167 -21.5 -54.5s-32.833 -21.5 -55.5 -21.5s-41.167 7.16699 -55.5 21.5zM66 529l125 -0.000976562
v-529h-16c-41.333 -18.667 -69.5 -36.667 -84.5 -54s-22.5 -35.666 -22.5 -54.999c0 -31.333 16.333 -47 49 -47c11.333 0 29.333 2.33301 54 7l-9 -82c-22 -4.66699 -42.333 -7 -61 -7c-38 0 -68.667 9.66699 -92 29s-35 45.666 -35 78.999
c0 54.667 30.667 99.334 92 134.001v525z" />
    <glyph glyph-name="Idotaccent" unicode="&#x130;" horiz-adv-x="268" 
d="M199 691v-691h-130v691h130zM188.5 899.5c14.333 -14.333 21.5 -32.5 21.5 -54.5s-7.16699 -40.167 -21.5 -54.5s-32.833 -21.5 -55.5 -21.5s-41.167 7.16699 -55.5 21.5s-21.5 32.5 -21.5 54.5s7.16699 40.167 21.5 54.5s32.833 21.5 55.5 21.5
s41.167 -7.16699 55.5 -21.5z" />
    <glyph glyph-name="dotlessi" unicode="&#x131;" horiz-adv-x="257" 
d="M191 529v-529h-125v529h125z" />
    <glyph glyph-name="IJ" unicode="&#x132;" horiz-adv-x="551" 
d="M199 691v-691h-130v691h130zM486 101c0 -73.333 -16.5 -128.668 -49.5 -166.001s-79.833 -66.666 -140.5 -87.999l-34 92c26.667 12 46.667 25 60 39s22.333 30.667 27 50s7 45.333 7 78v585h130v-590z" />
    <glyph glyph-name="ij" unicode="&#x133;" horiz-adv-x="514" 
d="M191 529v-529h-125v529h125zM184.5 773.5c14.333 -14.333 21.5 -32.5 21.5 -54.5s-7.16699 -40.167 -21.5 -54.5s-32.833 -21.5 -55.5 -21.5s-41.167 7.16699 -55.5 21.5s-21.5 32.5 -21.5 54.5s7.16699 40.167 21.5 54.5s32.833 21.5 55.5 21.5
s41.167 -7.16699 55.5 -21.5zM447 35c0 -48 -7.16699 -87.667 -21.5 -119s-34.166 -56.833 -59.499 -76.5s-58.333 -38.5 -99 -56.5l-41 91c23.333 12 41.666 23.833 54.999 35.5s23.5 27 30.5 46s10.5 43.833 10.5 74.5v499h125v-494zM440.5 773.5
c14.333 -14.333 21.5 -32.5 21.5 -54.5s-7.16699 -40.167 -21.5 -54.5s-32.833 -21.5 -55.5 -21.5s-41.167 7.16699 -55.5 21.5s-21.5 32.5 -21.5 54.5s7.16699 40.167 21.5 54.5s32.833 21.5 55.5 21.5s41.167 -7.16699 55.5 -21.5z" />
    <glyph glyph-name="Jcircumflex" unicode="&#x134;" horiz-adv-x="283" 
d="M218 101c0 -73.333 -16.5 -128.668 -49.5 -166.001s-79.833 -66.666 -140.5 -87.999l-34 92c26.667 12 46.667 25 60 39s22.333 30.667 27 50s7 45.333 7 78v585h130v-590zM34 758.998l-46 51l126 121h77l126 -121l-47 -51l-118 82z" />
    <glyph glyph-name="jcircumflex" unicode="&#x135;" horiz-adv-x="257" 
d="M190 35c0 -48 -7.16699 -87.667 -21.5 -119s-34.166 -56.833 -59.499 -76.5s-58.333 -38.5 -99 -56.5l-41 91c23.333 12 41.666 23.833 54.999 35.5s23.5 27 30.5 46s10.5 43.833 10.5 74.5v499h125v-494zM10 629l-46 51l126 127h77l126 -127l-47 -51l-118 88z" />
    <glyph glyph-name="Kcommaaccent" unicode="&#x136;" horiz-adv-x="561" 
d="M199 691v-691h-130v691h130zM551 691l-212 -313l228 -378h-147l-217 369l212 322h136zM338.5 -91c12.333 -12.667 18.5 -28.667 18.5 -48c0 -10.667 -1.66699 -21.5 -5 -32.5s-9.66602 -26.833 -18.999 -47.5l-40 -91h-64l27 115c-20 14 -30 32.667 -30 56
c0 18.667 6.16699 34.5 18.5 47.5s28.166 19.5 47.499 19.5c18.667 0 34.167 -6.33301 46.5 -19z" />
    <glyph glyph-name="kcommaaccent" unicode="&#x137;" horiz-adv-x="489" 
d="M191 754v-754h-125v741zM480 529l-156 -233l170 -296h-138l-160 289l158 240h126zM293.5 -91c12.333 -12.667 18.5 -28.667 18.5 -48c0 -10.667 -1.66699 -21.5 -5 -32.5s-9.66602 -26.833 -18.999 -47.5l-40 -91h-64l27 115c-20 14 -30 32.667 -30 56
c0 18.667 6.16699 34.5 18.5 47.5s28.166 19.5 47.499 19.5c18.667 0 34.167 -6.33301 46.5 -19z" />
    <glyph glyph-name="kgreenlandic" unicode="&#x138;" horiz-adv-x="488" 
d="M191 529v-529h-125v529h125zM479 529l-156 -242l170 -287h-138l-160 281l158 248h126z" />
    <glyph glyph-name="Lacute" unicode="&#x139;" horiz-adv-x="456" 
d="M199 691v-585h246l-14 -106h-362v691h130zM205 932l49 -96l-209 -83l-32 64z" />
    <glyph glyph-name="lacute" unicode="&#x13a;" horiz-adv-x="270" 
d="M93.5 19c-21.667 22.667 -32.499 54.333 -32.499 95v627l125 13v-636c0 -21.333 9 -32 27 -32c8.66699 0 17 1.33301 25 4l25 -86c-22 -12.667 -48.333 -19 -79 -19c-38.667 0 -68.834 11.333 -90.501 34zM195.001 981.999l49 -96l-209 -83l-32 64z" />
    <glyph glyph-name="Lcommaaccent" unicode="&#x13b;" horiz-adv-x="456" 
d="M199 691v-585h246l-14 -106h-362v691h130zM298.5 -91c12.333 -12.667 18.5 -28.667 18.5 -48c0 -10.667 -1.66699 -21.5 -5 -32.5s-9.66602 -26.833 -18.999 -47.5l-40 -91h-64l27 115c-20 14 -30 32.667 -30 56c0 18.667 6.16699 34.5 18.5 47.5
s28.166 19.5 47.499 19.5c18.667 0 34.167 -6.33301 46.5 -19z" />
    <glyph glyph-name="lcommaaccent" unicode="&#x13c;" horiz-adv-x="270" 
d="M93.5 19c-21.667 22.667 -32.499 54.333 -32.499 95v627l125 13v-636c0 -21.333 9 -32 27 -32c8.66699 0 17 1.33301 25 4l25 -86c-22 -12.667 -48.333 -19 -79 -19c-38.667 0 -68.834 11.333 -90.501 34zM213.501 -91.001c12.333 -12.667 18.5 -28.667 18.5 -48
c0 -10.667 -1.66699 -21.5 -5 -32.5s-9.66602 -26.833 -18.999 -47.5l-40 -91h-64l27 115c-20 14 -30 32.667 -30 56c0 18.667 6.16699 34.5 18.5 47.5s28.166 19.5 47.499 19.5c18.667 0 34.167 -6.33301 46.5 -19z" />
    <glyph glyph-name="Lcaron" unicode="&#x13d;" horiz-adv-x="456" 
d="M199 691v-585h246l-14 -106h-362v691h130zM310 491l48 200l-98 13l-20 -202z" />
    <glyph glyph-name="lcaron" unicode="&#x13e;" horiz-adv-x="309" 
d="M93.5 19c-21.667 22.667 -32.499 54.333 -32.499 95v627l125 13v-636c0 -21.333 9 -32 27 -32c8.66699 0 17 1.33301 25 4l25 -86c-22 -12.667 -48.333 -19 -79 -19c-38.667 0 -68.834 11.333 -90.501 34zM293.001 540.999l48 200l-98 13l-20 -202z" />
    <glyph glyph-name="Ldot" unicode="&#x13f;" horiz-adv-x="456" 
d="M199 691v-585h246l-14 -106h-362v691h130zM413.5 447.5c14.333 -14.333 21.5 -32.5 21.5 -54.5s-7.16699 -40.167 -21.5 -54.5s-32.833 -21.5 -55.5 -21.5s-41.167 7.16699 -55.5 21.5s-21.5 32.5 -21.5 54.5s7.16699 40.167 21.5 54.5s32.833 21.5 55.5 21.5
s41.167 -7.16699 55.5 -21.5z" />
    <glyph glyph-name="ldot" unicode="&#x140;" horiz-adv-x="367" 
d="M93.5 19c-21.667 22.667 -32.499 54.333 -32.499 95v627l125 13v-636c0 -21.333 9 -32 27 -32c8.66699 0 17 1.33301 25 4l25 -86c-22 -12.667 -48.333 -19 -79 -19c-38.667 0 -68.834 11.333 -90.501 34zM362.501 431.499c14.333 -14.333 21.5 -32.5 21.5 -54.5
s-7.16699 -40.167 -21.5 -54.5s-32.833 -21.5 -55.5 -21.5s-41.167 7.16699 -55.5 21.5s-21.5 32.5 -21.5 54.5s7.16699 40.167 21.5 54.5s32.833 21.5 55.5 21.5s41.167 -7.16699 55.5 -21.5z" />
    <glyph glyph-name="Lslash" unicode="&#x141;" horiz-adv-x="486" 
d="M229 106h246l-14 -106h-362v240l-44 -30l-44 74l86 58l2 1v348h130v-260l121 81l44 -73l-165 -111v-222z" />
    <glyph glyph-name="lslash" unicode="&#x142;" horiz-adv-x="312" 
d="M259 90l25.001 -86.001c-22 -12.667 -48.333 -19 -79 -19c-38.667 0 -68.834 11.333 -90.501 34s-32.5 54.334 -32.5 95.001v170l-40 -26l-42 70l82 56v357l125 13v-290l66 43l42 -71l-108 -70v-248c0 -21.333 9 -32 27 -32c8.66699 0 17 1.33301 25 4z" />
    <glyph glyph-name="Nacute" unicode="&#x143;" horiz-adv-x="605" 
d="M536 0h-166l-202 563l3 -27c9.33301 -93.333 14 -176.333 14 -249v-287h-116v691h164l204 -563c-4 26 -7.83301 60.833 -11.5 104.5s-5.5 87.167 -5.5 130.5v328h116v-691zM379 932l49 -96l-209 -83l-32 64z" />
    <glyph glyph-name="nacute" unicode="&#x144;" horiz-adv-x="525" 
d="M428 502c24 -28 36 -65.999 36 -113.999v-388h-125v371c0 28 -4.5 47.833 -13.5 59.5s-22.167 17.5 -39.5 17.5c-18 0 -34.667 -6.66699 -50 -20s-30.333 -33 -45 -59v-369h-125v529h109l9 -69c19.333 27.333 40.833 48.166 64.5 62.499s50.5 21.5 80.5 21.5
c42 0 75 -14 99 -42zM332 815.001l51 -95l-206 -90l-35 63z" />
    <glyph glyph-name="Ncommaaccent" unicode="&#x145;" horiz-adv-x="605" 
d="M536 0h-166l-202 563l3 -27c9.33301 -93.333 14 -176.333 14 -249v-287h-116v691h164l204 -563c-4 26 -7.83301 60.833 -11.5 104.5s-5.5 87.167 -5.5 130.5v328h116v-691zM350.5 -91c12.333 -12.667 18.5 -28.667 18.5 -48c0 -10.667 -1.66699 -21.5 -5 -32.5
s-9.66602 -26.833 -18.999 -47.5l-40 -91h-64l27 115c-20 14 -30 32.667 -30 56c0 18.667 6.16699 34.5 18.5 47.5s28.166 19.5 47.499 19.5c18.667 0 34.167 -6.33301 46.5 -19z" />
    <glyph glyph-name="ncommaaccent" unicode="&#x146;" horiz-adv-x="525" 
d="M428 502c24 -28 36 -65.999 36 -113.999v-388h-125v371c0 28 -4.5 47.833 -13.5 59.5s-22.167 17.5 -39.5 17.5c-18 0 -34.667 -6.66699 -50 -20s-30.333 -33 -45 -59v-369h-125v529h109l9 -69c19.333 27.333 40.833 48.166 64.5 62.499s50.5 21.5 80.5 21.5
c42 0 75 -14 99 -42zM311.5 -90.999c12.333 -12.667 18.5 -28.667 18.5 -48c0 -10.667 -1.66699 -21.5 -5 -32.5s-9.66602 -26.833 -18.999 -47.5l-40 -91h-64l27 115c-20 14 -30 32.667 -30 56c0 18.667 6.16699 34.5 18.5 47.5s28.166 19.5 47.499 19.5
c18.667 0 34.167 -6.33301 46.5 -19z" />
    <glyph glyph-name="Ncaron" unicode="&#x147;" horiz-adv-x="605" 
d="M536 0h-166l-202 563l3 -27c9.33301 -93.333 14 -176.333 14 -249v-287h-116v691h164l204 -563c-4 26 -7.83301 60.833 -11.5 104.5s-5.5 87.167 -5.5 130.5v328h116v-691zM426 924l47 -51l-126 -121h-77l-126 121l47 51l117 -82z" />
    <glyph glyph-name="ncaron" unicode="&#x148;" horiz-adv-x="525" 
d="M428 502c24 -28 36 -65.999 36 -113.999v-388h-125v371c0 28 -4.5 47.833 -13.5 59.5s-22.167 17.5 -39.5 17.5c-18 0 -34.667 -6.66699 -50 -20s-30.333 -33 -45 -59v-369h-125v529h109l9 -69c19.333 27.333 40.833 48.166 64.5 62.499s50.5 21.5 80.5 21.5
c42 0 75 -14 99 -42zM385 798.001l47 -52l-126 -127h-77l-126 127l46 52l118 -90z" />
    <glyph glyph-name="napostrophe" unicode="&#x149;" horiz-adv-x="637" 
d="M139.5 739c11 -11.333 16.5 -26 16.5 -44c0 -9.33301 -1.5 -19.166 -4.5 -29.499s-8.83301 -25.833 -17.5 -46.5l-36 -84h-58l23 108c-18.667 13.333 -28 30.666 -28 51.999c0 17.333 5.66699 31.833 17 43.5s26 17.5 44 17.5s32.5 -5.66699 43.5 -17zM539 502
c24 -28 36 -65.999 36 -113.999v-388h-125v371c0 28 -4.5 47.833 -13.5 59.5s-22.167 17.5 -39.5 17.5c-18 0 -34.667 -6.66699 -50 -20s-30.333 -33 -45 -59v-369h-125v529h109l9 -69c19.333 27.333 40.833 48.166 64.5 62.499s50.5 21.5 80.5 21.5c42 0 75 -14 99 -42z
" />
    <glyph glyph-name="Eng" unicode="&#x14a;" horiz-adv-x="605" 
d="M536 691v-745c0 -53.333 -15 -93.833 -45 -121.5s-70.333 -41.5 -121 -41.5c-48.667 0 -89.334 13.333 -122.001 40l46 76c12 -6.66699 22.333 -11.5 31 -14.5s19.334 -4.5 32.001 -4.5c32.667 0 49 19.667 49 59v61h-36l-202 563l3 -27
c9.33301 -93.333 14 -176.333 14 -249v-287h-116v691h164l204 -563c-4 26 -7.83301 60.833 -11.5 104.5s-5.5 87.167 -5.5 130.5v328h116z" />
    <glyph glyph-name="eng" unicode="&#x14b;" horiz-adv-x="525" 
d="M428 502c24 -28 36 -65.999 36 -113.999v-444c0 -52 -14.833 -91.833 -44.5 -119.5s-69.167 -41.5 -118.5 -41.5c-48 0 -89 13.333 -123 40l46 73c12 -6.66699 22.5 -11.5 31.5 -14.5s19.5 -4.5 31.5 -4.5c34.667 0 52 19.667 52 59v435c0 28 -4.5 47.833 -13.5 59.5
s-22.167 17.5 -39.5 17.5c-18 0 -34.667 -6.66699 -50 -20s-30.333 -33 -45 -59v-369h-125v529h109l9 -69c19.333 27.333 40.833 48.166 64.5 62.499s50.5 21.5 80.5 21.5c42 0 75 -14 99 -42z" />
    <glyph glyph-name="Omacron" unicode="&#x14c;" horiz-adv-x="628" 
d="M517 614.5c48.667 -61 73 -150.499 73 -268.499c0 -116.667 -24.333 -206 -73 -268s-116.334 -93 -203.001 -93c-86 0 -153.333 30.667 -202 92s-73 150.666 -73 267.999c0 116 24.333 205.167 73 267.5s116 93.5 202 93.5c86.667 0 154.334 -30.5 203.001 -91.5z
M210 546.001c-23.333 -40.667 -35 -107.667 -35 -201c0 -92.667 11.833 -159.334 35.5 -200.001s58.167 -61 103.5 -61c47.333 0 82.5 20.167 105.5 60.5s34.5 107.5 34.5 201.5c0 92.667 -11.5 159.334 -34.5 200.001s-58.167 61 -105.5 61c-46 0 -80.667 -20.333 -104 -61
zM447 788.001h-266v88h266v-88z" />
    <glyph glyph-name="omacron" unicode="&#x14d;" horiz-adv-x="532" 
d="M433 472c40 -48 60 -116.999 60 -206.999c0 -86.667 -20.167 -155 -60.5 -205s-95.833 -75 -166.5 -75c-71.333 0 -127.166 24.5 -167.499 73.5s-60.5 117.833 -60.5 206.5c0 87.333 20.167 155.666 60.5 204.999s96.166 74 167.499 74s127 -24 167 -72zM193 405.501
c-16 -29 -24 -75.833 -24 -140.5c0 -65.333 8 -112.5 24 -141.5s40.333 -43.5 73 -43.5s57 14.667 73 44s24 76.333 24 141c0 65.333 -8 112.333 -24 141s-40.333 43 -73 43s-57 -14.5 -73 -43.5zM399 662.001h-266v88h266v-88z" />
    <glyph glyph-name="Obreve" unicode="&#x14e;" horiz-adv-x="628" 
d="M517 614.5c48.667 -61 73 -150.499 73 -268.499c0 -116.667 -24.333 -206 -73 -268s-116.334 -93 -203.001 -93c-86 0 -153.333 30.667 -202 92s-73 150.666 -73 267.999c0 116 24.333 205.167 73 267.5s116 93.5 202 93.5c86.667 0 154.334 -30.5 203.001 -91.5z
M210 546.001c-23.333 -40.667 -35 -107.667 -35 -201c0 -92.667 11.833 -159.334 35.5 -200.001s58.167 -61 103.5 -61c47.333 0 82.5 20.167 105.5 60.5s34.5 107.5 34.5 201.5c0 92.667 -11.5 159.334 -34.5 200.001s-58.167 61 -105.5 61c-46 0 -80.667 -20.333 -104 -61
zM209.5 793.501c-26.333 26.333 -41.166 60.833 -44.499 103.5l71 14c12 -44.667 38 -67 78 -67c20 0 36.667 5.83301 50 17.5s22.666 28.167 27.999 49.5l71 -14c-3.33301 -42.667 -18.333 -77.167 -45 -103.5s-61.334 -39.5 -104.001 -39.5
c-43.333 0 -78.166 13.167 -104.499 39.5z" />
    <glyph glyph-name="obreve" unicode="&#x14f;" horiz-adv-x="532" 
d="M433 472c40 -48 60 -116.999 60 -206.999c0 -86.667 -20.167 -155 -60.5 -205s-95.833 -75 -166.5 -75c-71.333 0 -127.166 24.5 -167.499 73.5s-60.5 117.833 -60.5 206.5c0 87.333 20.167 155.666 60.5 204.999s96.166 74 167.499 74s127 -24 167 -72zM193 405.501
c-16 -29 -24 -75.833 -24 -140.5c0 -65.333 8 -112.5 24 -141.5s40.333 -43.5 73 -43.5s57 14.667 73 44s24 76.333 24 141c0 65.333 -8 112.333 -24 141s-40.333 43 -73 43s-57 -14.5 -73 -43.5zM161.5 679.001c-26.333 27.333 -41.1699 64.666 -44.5029 111.999l71 13
c12 -51.333 38 -77 78 -77c40.667 0 66.667 25.667 78 77l71 -13c-3.33301 -47.333 -18.166 -84.666 -44.499 -111.999s-61.166 -41 -104.499 -41s-78.166 13.667 -104.499 41z" />
    <glyph glyph-name="Ohungarumlaut" unicode="&#x150;" horiz-adv-x="628" 
d="M517 614.5c48.667 -61 73 -150.499 73 -268.499c0 -116.667 -24.333 -206 -73 -268s-116.334 -93 -203.001 -93c-86 0 -153.333 30.667 -202 92s-73 150.666 -73 267.999c0 116 24.333 205.167 73 267.5s116 93.5 202 93.5c86.667 0 154.334 -30.5 203.001 -91.5z
M210 546.001c-23.333 -40.667 -35 -107.667 -35 -201c0 -92.667 11.833 -159.334 35.5 -200.001s58.167 -61 103.5 -61c47.333 0 82.5 20.167 105.5 60.5s34.5 107.5 34.5 201.5c0 92.667 -11.5 159.334 -34.5 200.001s-58.167 61 -105.5 61c-46 0 -80.667 -20.333 -104 -61
zM277 970.001l88 -44l-97 -166l-66 29zM429 970.001l87 -45l-105 -169l-66 30z" />
    <glyph glyph-name="ohungarumlaut" unicode="&#x151;" horiz-adv-x="532" 
d="M433 472c40 -48 60 -116.999 60 -206.999c0 -86.667 -20.167 -155 -60.5 -205s-95.833 -75 -166.5 -75c-71.333 0 -127.166 24.5 -167.499 73.5s-60.5 117.833 -60.5 206.5c0 87.333 20.167 155.666 60.5 204.999s96.166 74 167.499 74s127 -24 167 -72zM193 405.501
c-16 -29 -24 -75.833 -24 -140.5c0 -65.333 8 -112.5 24 -141.5s40.333 -43.5 73 -43.5s57 14.667 73 44s24 76.333 24 141c0 65.333 -8 112.333 -24 141s-40.333 43 -73 43s-57 -14.5 -73 -43.5zM227 844.001l88 -44l-97 -166l-66 29zM379 844.001l87 -45l-105 -169l-66 30
z" />
    <glyph glyph-name="OE" unicode="&#x152;" horiz-adv-x="815" 
d="M778 0l-398 0.00195312c-24 -10 -50.667 -15 -80 -15c-52 0 -97.667 13.833 -137 41.5s-69.833 68.5 -91.5 122.5s-32.5 119.333 -32.5 196c0 75.333 10.833 140.166 32.5 194.499s52.167 95.666 91.5 123.999s85 42.5 137 42.5c30.667 0 58.334 -5 83.001 -15h394
l-14 -96h-264c39.333 -49.333 62.666 -114.666 69.999 -195.999h165v-96h-165c-6 -84.667 -30.333 -153.334 -73 -206.001h282v-97zM305 84.002c42.667 0 75.167 20.501 97.5 61.501s33.5 107.833 33.5 200.5c0 91.333 -11.167 157.666 -33.5 198.999s-54.833 62 -97.5 62
c-42 0 -74.167 -20.667 -96.5 -62s-33.5 -108 -33.5 -200c0 -174 43.333 -261 130 -261z" />
    <glyph glyph-name="oe" unicode="&#x153;" horiz-adv-x="825" 
d="M789 226l-299.001 0.00195312c4 -52 15.667 -89.333 35 -112s45.333 -34 78 -34c21.333 0 41.333 3.66699 60 11s38.334 18.666 59.001 33.999l53 -69c-52.667 -47.333 -113 -71 -181 -71c-72.667 0 -128.667 30 -168 90c-40.667 -60 -94.667 -90 -162 -90
c-70.667 0 -126 24.5 -166 73.5s-60 117.833 -60 206.5c0 86 20.167 154 60.5 204s95.833 75 166.5 75c68 0 122 -29 162 -87c38.667 58 90.667 87 156 87s116.333 -23.333 153 -70s55 -112.334 55 -197.001c0 -15.333 -0.666992 -32.333 -2 -51zM668.999 313.002
c0 94.667 -28.668 142 -86.001 142c-28 0 -49.667 -11.667 -65 -35s-24.666 -61 -27.999 -113h179v6zM337.998 125.002c16 30 24 76.667 24 140s-8 109.833 -24 139.5s-40 44.5 -72 44.5c-32.667 0 -57 -14.5 -73 -43.5s-24 -75.833 -24 -140.5
c0 -65.333 8 -112.5 24 -141.5s40 -43.5 72 -43.5c32.667 0 57 15 73 45z" />
    <glyph glyph-name="Racute" unicode="&#x154;" horiz-adv-x="555" 
d="M270 278l-71 0.000976562v-278h-130v691h182c174 0 261 -67.667 261 -203c0 -44 -10.333 -81.833 -31 -113.5s-51.667 -55.834 -93 -72.501l161 -302h-143zM258 371.001c41.333 0 71.667 9.33301 91 28s29 48.334 29 89.001c0 37.333 -10.167 64.666 -30.5 81.999
s-52.833 26 -97.5 26h-51v-225h59zM344.001 932.001l49 -96l-209 -83l-32 64z" />
    <glyph glyph-name="racute" unicode="&#x155;" horiz-adv-x="359" 
d="M358 536l-21 -121c-14 4 -28 6 -42 6c-28 0 -50.167 -11 -66.5 -33s-28.833 -55.333 -37.5 -100v-288h-125v529h109l10 -98c12.667 36.667 29.667 64.5 51 83.5s46.333 28.5 75 28.5c14 0 29.667 -2.33301 47 -7zM278 815l51 -95l-206 -90l-35 63z" />
    <glyph glyph-name="Rcommaaccent" unicode="&#x156;" horiz-adv-x="555" 
d="M270 278l-71 0.000976562v-278h-130v691h182c174 0 261 -67.667 261 -203c0 -44 -10.333 -81.833 -31 -113.5s-51.667 -55.834 -93 -72.501l161 -302h-143zM258 371.001c41.333 0 71.667 9.33301 91 28s29 48.334 29 89.001c0 37.333 -10.167 64.666 -30.5 81.999
s-52.833 26 -97.5 26h-51v-225h59zM328.501 -90.999c12.333 -12.667 18.5 -28.667 18.5 -48c0 -10.667 -1.66699 -21.5 -5 -32.5s-9.66602 -26.833 -18.999 -47.5l-40 -91h-64l27 115c-20 14 -30 32.667 -30 56c0 18.667 6.16699 34.5 18.5 47.5s28.166 19.5 47.499 19.5
c18.667 0 34.167 -6.33301 46.5 -19z" />
    <glyph glyph-name="rcommaaccent" unicode="&#x157;" horiz-adv-x="359" 
d="M358 536l-21 -121c-14 4 -28 6 -42 6c-28 0 -50.167 -11 -66.5 -33s-28.833 -55.333 -37.5 -100v-288h-125v529h109l10 -98c12.667 36.667 29.667 64.5 51 83.5s46.333 28.5 75 28.5c14 0 29.667 -2.33301 47 -7zM177.5 -91c12.333 -12.667 18.5 -28.667 18.5 -48
c0 -10.667 -1.66699 -21.5 -5 -32.5s-9.66602 -26.833 -18.999 -47.5l-40 -91h-64l27 115c-20 14 -30 32.667 -30 56c0 18.667 6.16699 34.5 18.5 47.5s28.166 19.5 47.499 19.5c18.667 0 34.167 -6.33301 46.5 -19z" />
    <glyph glyph-name="Rcaron" unicode="&#x158;" horiz-adv-x="555" 
d="M270 278l-71 0.000976562v-278h-130v691h182c174 0 261 -67.667 261 -203c0 -44 -10.333 -81.833 -31 -113.5s-51.667 -55.834 -93 -72.501l161 -302h-143zM258 371.001c41.333 0 71.667 9.33301 91 28s29 48.334 29 89.001c0 37.333 -10.167 64.666 -30.5 81.999
s-52.833 26 -97.5 26h-51v-225h59zM391.001 924.001l47 -51l-126 -121h-77l-126 121l47 51l117 -82z" />
    <glyph glyph-name="rcaron" unicode="&#x159;" horiz-adv-x="359" 
d="M358 536l-21 -121c-14 4 -28 6 -42 6c-28 0 -50.167 -11 -66.5 -33s-28.833 -55.333 -37.5 -100v-288h-125v529h109l10 -98c12.667 36.667 29.667 64.5 51 83.5s46.333 28.5 75 28.5c14 0 29.667 -2.33301 47 -7zM331 798l47 -52l-126 -127h-77l-126 127l46 52l118 -90z
" />
    <glyph glyph-name="Sacute" unicode="&#x15a;" horiz-adv-x="507" 
d="M370.5 685c33 -14 63.5 -35.333 91.5 -64l-62 -71c-22 19.333 -44 33.666 -66 42.999s-45.667 14 -71 14c-28 0 -50.5 -7.33301 -67.5 -22s-25.5 -35 -25.5 -61c0 -17.333 3.5 -32 10.5 -44s19.5 -23.167 37.5 -33.5s44 -21.5 78 -33.5
c62 -22.667 108.167 -49.667 138.5 -81s45.5 -76.333 45.5 -135c0 -40.667 -9.66699 -77 -29 -109s-47.166 -57.167 -83.499 -75.5s-78.833 -27.5 -127.5 -27.5c-91.333 0 -167.666 31.333 -228.999 94l66 73c25.333 -22 50.5 -38.667 75.5 -50s52.5 -17 82.5 -17
c34 0 60.833 9.33301 80.5 28s29.5 44.334 29.5 77.001c0 29.333 -8.33301 52.5 -25 69.5s-48.334 33.5 -95.001 49.5c-66.667 23.333 -114.667 51 -144 83s-44 73 -44 123c0 36.667 9.33301 69.5 28 98.5s44.667 51.667 78 68s70.666 24.5 111.999 24.5
c44 0 82.5 -7 115.5 -21zM330 932l49 -96l-209 -83l-32 64z" />
    <glyph glyph-name="sacute" unicode="&#x15b;" horiz-adv-x="433" 
d="M394 481l-48.999 -70.9971c-39.333 28 -78.333 42 -117 42c-22 0 -39 -5 -51 -15s-18 -23.667 -18 -41c0 -12.667 2.83301 -23 8.5 -31s15.5 -15.833 29.5 -23.5s35 -16.167 63 -25.5c50.667 -16.667 88.334 -37.334 113.001 -62.001s37 -58.667 37 -102
c0 -52 -19.5 -92.833 -58.5 -122.5s-88.167 -44.5 -147.5 -44.5c-39.333 0 -75.333 6.5 -108 19.5s-61 31.167 -85 54.5l62 69c41.333 -33.333 83.666 -50 126.999 -50c25.333 0 45.166 5.66699 59.499 17s21.5 27.333 21.5 48c0 15.333 -2.83301 27.666 -8.5 36.999
s-15.834 18 -30.501 26s-37 16.667 -67 26c-49.333 16.667 -85.166 37.667 -107.499 63s-33.5 56.666 -33.5 93.999c0 29.333 7.66699 55.833 23 79.5s37.333 42.167 66 55.5s61.667 20 99 20c66 0 123.333 -21 172 -63zM288.001 815.003l51 -95l-206 -90l-35 63z" />
    <glyph glyph-name="Scircumflex" unicode="&#x15c;" horiz-adv-x="507" 
d="M370.5 685c33 -14 63.5 -35.333 91.5 -64l-62 -71c-22 19.333 -44 33.666 -66 42.999s-45.667 14 -71 14c-28 0 -50.5 -7.33301 -67.5 -22s-25.5 -35 -25.5 -61c0 -17.333 3.5 -32 10.5 -44s19.5 -23.167 37.5 -33.5s44 -21.5 78 -33.5
c62 -22.667 108.167 -49.667 138.5 -81s45.5 -76.333 45.5 -135c0 -40.667 -9.66699 -77 -29 -109s-47.166 -57.167 -83.499 -75.5s-78.833 -27.5 -127.5 -27.5c-91.333 0 -167.666 31.333 -228.999 94l66 73c25.333 -22 50.5 -38.667 75.5 -50s52.5 -17 82.5 -17
c34 0 60.833 9.33301 80.5 28s29.5 44.334 29.5 77.001c0 29.333 -8.33301 52.5 -25 69.5s-48.334 33.5 -95.001 49.5c-66.667 23.333 -114.667 51 -144 83s-44 73 -44 123c0 36.667 9.33301 69.5 28 98.5s44.667 51.667 78 68s70.666 24.5 111.999 24.5
c44 0 82.5 -7 115.5 -21zM140 759l-46 51l126 121h77l126 -121l-47 -51l-118 82z" />
    <glyph glyph-name="scircumflex" unicode="&#x15d;" horiz-adv-x="433" 
d="M394 481l-48.999 -70.9971c-39.333 28 -78.333 42 -117 42c-22 0 -39 -5 -51 -15s-18 -23.667 -18 -41c0 -12.667 2.83301 -23 8.5 -31s15.5 -15.833 29.5 -23.5s35 -16.167 63 -25.5c50.667 -16.667 88.334 -37.334 113.001 -62.001s37 -58.667 37 -102
c0 -52 -19.5 -92.833 -58.5 -122.5s-88.167 -44.5 -147.5 -44.5c-39.333 0 -75.333 6.5 -108 19.5s-61 31.167 -85 54.5l62 69c41.333 -33.333 83.666 -50 126.999 -50c25.333 0 45.166 5.66699 59.499 17s21.5 27.333 21.5 48c0 15.333 -2.83301 27.666 -8.5 36.999
s-15.834 18 -30.501 26s-37 16.667 -67 26c-49.333 16.667 -85.166 37.667 -107.499 63s-33.5 56.666 -33.5 93.999c0 29.333 7.66699 55.833 23 79.5s37.333 42.167 66 55.5s61.667 20 99 20c66 0 123.333 -21 172 -63zM105.001 629.003l-46 51l126 127h77l126 -127
l-47 -51l-118 88z" />
    <glyph glyph-name="Scedilla" unicode="&#x15e;" horiz-adv-x="507" 
d="M427.5 57c-35 -38 -82.8301 -60.999 -143.497 -68.999v-42c30 -4 52.667 -13.833 68 -29.5s23 -36.167 23 -61.5c0 -32.667 -11.667 -58.5 -35 -77.5s-54 -28.5 -92 -28.5s-70 9 -96 27l30 59c21.333 -9.33301 40.333 -14 57 -14c13.333 0 23.833 2.83301 31.5 8.5
s11.5 14.167 11.5 25.5c0 13.333 -6.5 23.166 -19.5 29.499s-33.833 9.5 -62.5 9.5l11 92c-78.667 6 -145.334 37 -200.001 93l66 73c25.333 -22 50.5 -38.667 75.5 -50s52.5 -17 82.5 -17c34 0 60.833 9.33301 80.5 28s29.5 44.334 29.5 77.001
c0 29.333 -8.33301 52.5 -25 69.5s-48.334 33.5 -95.001 49.5c-66.667 23.333 -114.667 51 -144 83s-44 73 -44 123c0 36.667 9.33301 69.5 28 98.5s44.667 51.667 78 68s70.666 24.5 111.999 24.5c44 0 82.5 -7 115.5 -21s63.5 -35.333 91.5 -64l-62 -71
c-22 19.333 -44 33.666 -66 42.999s-45.667 14 -71 14c-28 0 -50.5 -7.33301 -67.5 -22s-25.5 -35 -25.5 -61c0 -17.333 3.5 -32 10.5 -44s19.5 -23.167 37.5 -33.5s44 -21.5 78 -33.5c62 -22.667 108.167 -49.667 138.5 -81s45.5 -76.333 45.5 -135
c0 -55.333 -17.5 -102 -52.5 -140z" />
    <glyph glyph-name="scedilla" unicode="&#x15f;" horiz-adv-x="433" 
d="M366 42.5c-29.333 -28.333 -67.668 -46.1631 -115.001 -53.4961v-43c30 -4 52.667 -13.833 68 -29.5s23 -36.167 23 -61.5c0 -32.667 -11.667 -58.5 -35 -77.5s-54 -28.5 -92 -28.5s-70 9 -96 27l30 59c21.333 -9.33301 40.333 -14 57 -14
c13.333 0 23.833 2.83301 31.5 8.5s11.5 14.167 11.5 25.5c0 13.333 -6.5 23.166 -19.5 29.499s-33.833 9.5 -62.5 9.5l11 92c-33.333 2.66699 -64.166 10.5 -92.499 23.5s-53.166 29.5 -74.499 49.5l62 69c41.333 -33.333 83.666 -50 126.999 -50
c25.333 0 45.166 5.66699 59.499 17s21.5 27.333 21.5 48c0 15.333 -2.83301 27.666 -8.5 36.999s-15.834 18 -30.501 26s-37 16.667 -67 26c-49.333 16.667 -85.166 37.667 -107.499 63s-33.5 56.666 -33.5 93.999c0 29.333 7.66699 55.833 23 79.5s37.333 42.167 66 55.5
s61.667 20 99 20c66 0 123.333 -21 172 -63l-49 -71c-39.333 28 -78.333 42 -117 42c-22 0 -39 -5 -51 -15s-18 -23.667 -18 -41c0 -12.667 2.83301 -23 8.5 -31s15.5 -15.833 29.5 -23.5s35 -16.167 63 -25.5c50.667 -16.667 88.334 -37.334 113.001 -62.001
s37 -58.667 37 -102c0 -44.667 -14.667 -81.167 -44 -109.5z" />
    <glyph glyph-name="Scaron" unicode="&#x160;" horiz-adv-x="507" 
d="M370.5 685c33 -14 63.5 -35.333 91.5 -64l-62 -71c-22 19.333 -44 33.666 -66 42.999s-45.667 14 -71 14c-28 0 -50.5 -7.33301 -67.5 -22s-25.5 -35 -25.5 -61c0 -17.333 3.5 -32 10.5 -44s19.5 -23.167 37.5 -33.5s44 -21.5 78 -33.5
c62 -22.667 108.167 -49.667 138.5 -81s45.5 -76.333 45.5 -135c0 -40.667 -9.66699 -77 -29 -109s-47.166 -57.167 -83.499 -75.5s-78.833 -27.5 -127.5 -27.5c-91.333 0 -167.666 31.333 -228.999 94l66 73c25.333 -22 50.5 -38.667 75.5 -50s52.5 -17 82.5 -17
c34 0 60.833 9.33301 80.5 28s29.5 44.334 29.5 77.001c0 29.333 -8.33301 52.5 -25 69.5s-48.334 33.5 -95.001 49.5c-66.667 23.333 -114.667 51 -144 83s-44 73 -44 123c0 36.667 9.33301 69.5 28 98.5s44.667 51.667 78 68s70.666 24.5 111.999 24.5
c44 0 82.5 -7 115.5 -21zM377 924l47 -51l-126 -121h-77l-126 121l47 51l117 -82z" />
    <glyph glyph-name="scaron" unicode="&#x161;" horiz-adv-x="433" 
d="M394 481l-48.999 -70.9971c-39.333 28 -78.333 42 -117 42c-22 0 -39 -5 -51 -15s-18 -23.667 -18 -41c0 -12.667 2.83301 -23 8.5 -31s15.5 -15.833 29.5 -23.5s35 -16.167 63 -25.5c50.667 -16.667 88.334 -37.334 113.001 -62.001s37 -58.667 37 -102
c0 -52 -19.5 -92.833 -58.5 -122.5s-88.167 -44.5 -147.5 -44.5c-39.333 0 -75.333 6.5 -108 19.5s-61 31.167 -85 54.5l62 69c41.333 -33.333 83.666 -50 126.999 -50c25.333 0 45.166 5.66699 59.499 17s21.5 27.333 21.5 48c0 15.333 -2.83301 27.666 -8.5 36.999
s-15.834 18 -30.501 26s-37 16.667 -67 26c-49.333 16.667 -85.166 37.667 -107.499 63s-33.5 56.666 -33.5 93.999c0 29.333 7.66699 55.833 23 79.5s37.333 42.167 66 55.5s61.667 20 99 20c66 0 123.333 -21 172 -63zM341.001 798.003l47 -52l-126 -127h-77l-126 127
l46 52l118 -90z" />
    <glyph glyph-name="uni0162" unicode="&#x162;" horiz-adv-x="480" 
d="M304 589l0.00292969 -573.002h1v-68c30.667 -3.33301 53.667 -13.166 69 -29.499s23 -37.166 23 -62.499c0 -33.333 -11.833 -59.5 -35.5 -78.5s-54.834 -28.5 -93.501 -28.5c-18.667 0 -36.334 2.5 -53.001 7.5s-30.334 11.5 -41.001 19.5l30 62
c19.333 -11.333 37.333 -17 54 -17c30.667 0 46 12 46 36c0 12.667 -6.5 22 -19.5 28s-33.833 9 -62.5 9l12 106h-59v589h-166v102h468l-14 -102h-159z" />
    <glyph glyph-name="uni0163" unicode="&#x163;" horiz-adv-x="342" 
d="M313 -83.5c15.333 -15.667 22.998 -36.166 22.998 -61.499c0 -32.667 -11.667 -58.5 -35 -77.5s-54 -28.5 -92 -28.5s-70 9 -96 27l30 59c21.333 -9.33301 40.333 -14 57 -14c13.333 0 23.833 2.83301 31.5 8.5s11.5 14.167 11.5 25.5c0 13.333 -6.5 23.166 -19.5 29.499
s-33.833 9.5 -62.5 9.5l11 98c-31.333 9.33301 -55.166 27 -71.499 53s-24.5 59 -24.5 99v295h-71v90h71v117l125 15v-132h111l-13 -90h-98v-294c0 -20 3.83301 -34.833 11.5 -44.5s19.834 -14.5 36.501 -14.5c18 0 36.333 5.66699 55 17l44 -78
c-30 -22.667 -64.333 -35.667 -103 -39v-40c30 -4 52.667 -13.833 68 -29.5z" />
    <glyph glyph-name="Tcaron" unicode="&#x164;" horiz-adv-x="480" 
d="M477 691l-14 -102h-159v-589h-129v589h-166v102h468zM358 924l47 -51l-126 -121h-77l-126 121l47 51l117 -82z" />
    <glyph glyph-name="tcaron" unicode="&#x165;" horiz-adv-x="342" 
d="M342 764l-48 -200l-70 11l20 202zM348 25c-17.333 -13.333 -36.5 -23.333 -57.5 -30s-42.5 -10 -64.5 -10c-48.667 0 -85.834 14 -111.501 42s-38.5 67 -38.5 117v295h-71v90h71v117l125 15v-132h111l-13 -90h-98v-294c0 -20 3.83301 -34.833 11.5 -44.5
s19.834 -14.5 36.501 -14.5c18 0 36.333 5.66699 55 17z" />
    <glyph glyph-name="Tbar" unicode="&#x166;" horiz-adv-x="480" 
d="M463 588h-159v-200h106v-81h-106v-308h-129v308h-106v81h106v200h-166v102h468z" />
    <glyph glyph-name="tbar" unicode="&#x167;" horiz-adv-x="342" 
d="M348 25c-17.333 -13.333 -36.5 -23.333 -57.5 -30s-42.5 -10 -64.5 -10c-48.667 0 -85.834 14 -111.501 42s-38.5 67 -38.5 117v128h-64v87h64v80h-71v90h71v117l125 15v-132h111l-13 -90h-98v-80h94v-87h-94v-127c0 -20 3.83301 -34.833 11.5 -44.5
s19.834 -14.5 36.501 -14.5c18 0 36.333 5.66699 55 17z" />
    <glyph glyph-name="Utilde" unicode="&#x168;" horiz-adv-x="590" 
d="M531 208c0 -42.667 -9 -80.833 -27 -114.5s-44.667 -60.167 -80 -79.5s-78.333 -29 -129 -29c-76.667 0 -135.167 20.333 -175.5 61s-60.5 94.667 -60.5 162v483h130v-477c0 -43.333 8.5 -75.5 25.5 -96.5s43.833 -31.5 80.5 -31.5c36 0 62.667 10.667 80 32
s26 53.333 26 96v477h130v-483zM316.5 780.501c-9 4.33301 -20.1689 10.834 -33.502 19.501c-15.333 12 -28.333 18 -39 18c-10 0 -18.5 -3.5 -25.5 -10.5s-14.5 -18.167 -22.5 -33.5l-64 31c12 30.667 27.333 55.167 46 73.5s40 27.5 64 27.5
c12.667 0 23.834 -2.33301 33.501 -7s20.5 -11 32.5 -19c1.33301 -1.33301 4.83301 -3.83301 10.5 -7.5s11 -6.33398 16 -8.00098s9.5 -2.5 13.5 -2.5c9.33301 0 17.333 3.33301 24 10s14.334 17.667 23.001 33l64 -31c-11.333 -32 -26.5 -56.667 -45.5 -74
s-40.5 -26 -64.5 -26c-12.667 0 -23.5 2.16699 -32.5 6.5z" />
    <glyph glyph-name="utilde" unicode="&#x169;" horiz-adv-x="521" 
d="M455 0h-107.999l-7 70c-18 -28.667 -38.5 -50 -61.5 -64s-50.167 -21 -81.5 -21c-42.667 0 -75.834 14 -99.501 42s-35.5 65.667 -35.5 113v389h125v-378c0 -24.667 4.16699 -42.667 12.5 -54s21.5 -17 39.5 -17c34.667 0 65 24 91 72v377h125v-529zM279.501 654.5
c-9 4.33301 -20.1689 10.834 -33.502 19.501c-15.333 12 -28.333 18 -39 18c-10 0 -18.5 -3.5 -25.5 -10.5s-14.5 -18.167 -22.5 -33.5l-64 31c12 30.667 27.333 55.167 46 73.5s40 27.5 64 27.5c12.667 0 23.834 -2.33301 33.501 -7s20.5 -11 32.5 -19
c1.33301 -1.33301 4.83301 -3.83301 10.5 -7.5s11 -6.33398 16 -8.00098s9.5 -2.5 13.5 -2.5c9.33301 0 17.333 3.33301 24 10s14.334 17.667 23.001 33l64 -31c-11.333 -32 -26.5 -56.667 -45.5 -74s-40.5 -26 -64.5 -26c-12.667 0 -23.5 2.16699 -32.5 6.5z" />
    <glyph glyph-name="Umacron" unicode="&#x16a;" horiz-adv-x="590" 
d="M531 208c0 -42.667 -9 -80.833 -27 -114.5s-44.667 -60.167 -80 -79.5s-78.333 -29 -129 -29c-76.667 0 -135.167 20.333 -175.5 61s-60.5 94.667 -60.5 162v483h130v-477c0 -43.333 8.5 -75.5 25.5 -96.5s43.833 -31.5 80.5 -31.5c36 0 62.667 10.667 80 32
s26 53.333 26 96v477h130v-483zM428 788.001h-266v88h266v-88z" />
    <glyph glyph-name="umacron" unicode="&#x16b;" horiz-adv-x="521" 
d="M455 0h-107.999l-7 70c-18 -28.667 -38.5 -50 -61.5 -64s-50.167 -21 -81.5 -21c-42.667 0 -75.834 14 -99.501 42s-35.5 65.667 -35.5 113v389h125v-378c0 -24.667 4.16699 -42.667 12.5 -54s21.5 -17 39.5 -17c34.667 0 65 24 91 72v377h125v-529zM392.001 662h-266v88
h266v-88z" />
    <glyph glyph-name="Ubreve" unicode="&#x16c;" horiz-adv-x="590" 
d="M531 208c0 -42.667 -9 -80.833 -27 -114.5s-44.667 -60.167 -80 -79.5s-78.333 -29 -129 -29c-76.667 0 -135.167 20.333 -175.5 61s-60.5 94.667 -60.5 162v483h130v-477c0 -43.333 8.5 -75.5 25.5 -96.5s43.833 -31.5 80.5 -31.5c36 0 62.667 10.667 80 32
s26 53.333 26 96v477h130v-483zM190.5 793.501c-26.333 26.333 -41.166 60.833 -44.499 103.5l71 14c12 -44.667 38 -67 78 -67c20 0 36.667 5.83301 50 17.5s22.666 28.167 27.999 49.5l71 -14c-3.33301 -42.667 -18.333 -77.167 -45 -103.5s-61.334 -39.5 -104.001 -39.5
c-43.333 0 -78.166 13.167 -104.499 39.5z" />
    <glyph glyph-name="ubreve" unicode="&#x16d;" horiz-adv-x="521" 
d="M455 0h-107.999l-7 70c-18 -28.667 -38.5 -50 -61.5 -64s-50.167 -21 -81.5 -21c-42.667 0 -75.834 14 -99.501 42s-35.5 65.667 -35.5 113v389h125v-378c0 -24.667 4.16699 -42.667 12.5 -54s21.5 -17 39.5 -17c34.667 0 65 24 91 72v377h125v-529zM154.501 679
c-26.333 27.333 -41.1699 64.666 -44.5029 111.999l71 13c12 -51.333 38 -77 78 -77c40.667 0 66.667 25.667 78 77l71 -13c-3.33301 -47.333 -18.166 -84.666 -44.499 -111.999s-61.166 -41 -104.499 -41s-78.166 13.667 -104.499 41z" />
    <glyph glyph-name="Uring" unicode="&#x16e;" horiz-adv-x="590" 
d="M531 208c0 -42.667 -9 -80.833 -27 -114.5s-44.667 -60.167 -80 -79.5s-78.333 -29 -129 -29c-76.667 0 -135.167 20.333 -175.5 61s-60.5 94.667 -60.5 162v483h130v-477c0 -43.333 8.5 -75.5 25.5 -96.5s43.833 -31.5 80.5 -31.5c36 0 62.667 10.667 80 32
s26 53.333 26 96v477h130v-483zM381.5 944.001c21.667 -22 32.5 -50.333 32.5 -85s-10.833 -63.167 -32.5 -85.5s-50.5 -33.5 -86.5 -33.5c-35.333 0 -63.833 11.167 -85.5 33.5s-32.5 50.833 -32.5 85.5s10.833 63 32.5 85s50.167 33 85.5 33c36 0 64.833 -11 86.5 -33z
M252 859.001c0 -36 14.333 -54 43 -54c13.333 0 24 4.5 32 13.5s12 22.5 12 40.5c0 36 -14.667 54 -44 54c-28.667 0 -43 -18 -43 -54z" />
    <glyph glyph-name="uring" unicode="&#x16f;" horiz-adv-x="521" 
d="M455 0h-107.999l-7 70c-18 -28.667 -38.5 -50 -61.5 -64s-50.167 -21 -81.5 -21c-42.667 0 -75.834 14 -99.501 42s-35.5 65.667 -35.5 113v389h125v-378c0 -24.667 4.16699 -42.667 12.5 -54s21.5 -17 39.5 -17c34.667 0 65 24 91 72v377h125v-529zM345.501 818
c21.667 -22 32.5 -50.333 32.5 -85s-10.833 -63.167 -32.5 -85.5s-50.5 -33.5 -86.5 -33.5c-35.333 0 -63.833 11.167 -85.5 33.5s-32.5 50.833 -32.5 85.5s10.833 63 32.5 85s50.167 33 85.5 33c36 0 64.833 -11 86.5 -33zM216.001 733c0 -36 14.333 -54 43 -54
c13.333 0 24 4.5 32 13.5s12 22.5 12 40.5c0 36 -14.667 54 -44 54c-28.667 0 -43 -18 -43 -54z" />
    <glyph glyph-name="Uhungarumlaut" unicode="&#x170;" horiz-adv-x="590" 
d="M531 208c0 -42.667 -9 -80.833 -27 -114.5s-44.667 -60.167 -80 -79.5s-78.333 -29 -129 -29c-76.667 0 -135.167 20.333 -175.5 61s-60.5 94.667 -60.5 162v483h130v-477c0 -43.333 8.5 -75.5 25.5 -96.5s43.833 -31.5 80.5 -31.5c36 0 62.667 10.667 80 32
s26 53.333 26 96v477h130v-483zM258 970.001l88 -44l-97 -166l-66 29zM410 970.001l87 -45l-105 -169l-66 30z" />
    <glyph glyph-name="uhungarumlaut" unicode="&#x171;" horiz-adv-x="521" 
d="M455 0h-107.999l-7 70c-18 -28.667 -38.5 -50 -61.5 -64s-50.167 -21 -81.5 -21c-42.667 0 -75.834 14 -99.501 42s-35.5 65.667 -35.5 113v389h125v-378c0 -24.667 4.16699 -42.667 12.5 -54s21.5 -17 39.5 -17c34.667 0 65 24 91 72v377h125v-529zM220.001 844l88 -44
l-97 -166l-66 29zM372.001 844l87 -45l-105 -169l-66 30z" />
    <glyph glyph-name="Uogonek" unicode="&#x172;" horiz-adv-x="590" 
d="M531 691v-483.001c0 -50.667 -12.5 -94.667 -37.5 -132s-61.167 -63.333 -108.5 -78c-39.333 -18 -66.333 -35.5 -81 -52.5s-22 -34.833 -22 -53.5c0 -31.333 16.333 -47 49 -47c17.333 0 35.666 2.33301 54.999 7l-9 -83c-22 -4.66699 -42.667 -7 -62 -7
c-37.333 0 -67.666 10 -90.999 30s-35 46 -35 78c0 48.667 28 87.334 84 116.001c-69.333 4 -122.333 26 -159 66s-55 92 -55 156v483h130v-477c0 -43.333 8.5 -75.5 25.5 -96.5s43.833 -31.5 80.5 -31.5c36 0 62.667 10.667 80 32s26 53.333 26 96v477h130z" />
    <glyph glyph-name="uogonek" unicode="&#x173;" horiz-adv-x="521" 
d="M370.5 -54c-15 -17.333 -22.5 -35.667 -22.5 -55c0 -31.333 16.333 -47 49 -47c11.333 0 29.333 2.33301 54 7l-9 -82c-22 -4.66699 -42.333 -7 -61 -7c-38 0 -68.667 9.66699 -92 29s-35 45.666 -35 78.999c0 28.667 7.83301 53.834 23.5 75.501
s38.834 41.167 69.501 58.5l-7 66c-18 -28.667 -38.5 -50 -61.5 -64s-50.167 -21 -81.5 -21c-42.667 0 -75.834 14 -99.501 42s-35.5 65.667 -35.5 113v389h125v-378c0 -24.667 4.16699 -42.667 12.5 -54s21.5 -17 39.5 -17c34.667 0 65 24 91 72v377h125v-529
c-41.333 -18.667 -69.5 -36.667 -84.5 -54z" />
    <glyph glyph-name="Wcircumflex" unicode="&#x174;" horiz-adv-x="762" 
d="M747 691l-111 -691h-168l-88 554l-91 -554h-165l-109 691h127l75 -588l96 588h137l94 -588l82 588h121zM263 759l-46 51l126 121h77l126 -121l-47 -51l-118 82z" />
    <glyph glyph-name="wcircumflex" unicode="&#x175;" horiz-adv-x="673" 
d="M661 529l-101 -529h-155l-68 416l-69 -416h-152l-104 529h123l63 -436l78 436h128l73 -436l66 436h118zM220 629l-46 51l126 127h77l126 -127l-47 -51l-118 88z" />
    <glyph glyph-name="Ycircumflex" unicode="&#x176;" horiz-adv-x="523" 
d="M526 691l-200 -429v-262h-130v261l-199 430h139l128 -323l128 323h134zM142 759l-46 51l126 121h77l126 -121l-47 -51l-118 82z" />
    <glyph glyph-name="ycircumflex" unicode="&#x177;" horiz-adv-x="465" 
d="M309 -2c-18.667 -64.667 -48.5 -115.333 -89.5 -152s-96.167 -58 -165.5 -64l-13 91c45.333 7.33301 79 20.333 101 39s40 48 54 88h-45l-149 529h129l101 -446l105 446h126zM114 629.001l-46 51l126 127h77l126 -127l-47 -51l-118 88z" />
    <glyph glyph-name="Ydieresis" unicode="&#x178;" horiz-adv-x="523" 
d="M526 691l-200 -429v-262h-130v261l-199 430h139l128 -323l128 323h134zM210 889.5c12.667 -13 19 -28.833 19 -47.5c0 -19.333 -6.33301 -35.5 -19 -48.5s-28.667 -19.5 -48 -19.5s-35.333 6.5 -48 19.5s-19 29.167 -19 48.5c0 18.667 6.5 34.5 19.5 47.5
s28.833 19.5 47.5 19.5c19.333 0 35.333 -6.5 48 -19.5zM413 889.5c12.667 -13 19 -28.833 19 -47.5c0 -19.333 -6.33301 -35.5 -19 -48.5s-28.667 -19.5 -48 -19.5s-35.5 6.5 -48.5 19.5s-19.5 29.167 -19.5 48.5c0 18.667 6.66699 34.5 20 47.5s29.333 19.5 48 19.5
c19.333 0 35.333 -6.5 48 -19.5z" />
    <glyph glyph-name="Zacute" unicode="&#x179;" horiz-adv-x="481" 
d="M452 691v-100l-289 -485h292l-13 -106h-423v99l291 489h-262v103h404zM318 932l49 -96l-209 -83l-32 64z" />
    <glyph glyph-name="zacute" unicode="&#x17a;" horiz-adv-x="408" 
d="M385 529v-91l-231 -340h235l-12 -98h-362v90l231 341h-211v98h350zM272 815l51 -95l-206 -90l-35 63z" />
    <glyph glyph-name="Zdotaccent" unicode="&#x17b;" horiz-adv-x="481" 
d="M452 691v-100l-289 -485h292l-13 -106h-423v99l291 489h-262v103h404zM302.5 899.5c14.333 -14.333 21.5 -32.5 21.5 -54.5s-7.16699 -40.167 -21.5 -54.5s-32.833 -21.5 -55.5 -21.5s-41.167 7.16699 -55.5 21.5s-21.5 32.5 -21.5 54.5s7.16699 40.167 21.5 54.5
s32.833 21.5 55.5 21.5s41.167 -7.16699 55.5 -21.5z" />
    <glyph glyph-name="zdotaccent" unicode="&#x17c;" horiz-adv-x="408" 
d="M385 529v-91l-231 -340h235l-12 -98h-362v90l231 341h-211v98h350zM262.5 773.5c14.333 -14.333 21.5 -32.5 21.5 -54.5s-7.16699 -40.167 -21.5 -54.5s-32.833 -21.5 -55.5 -21.5s-41.167 7.16699 -55.5 21.5s-21.5 32.5 -21.5 54.5s7.16699 40.167 21.5 54.5
s32.833 21.5 55.5 21.5s41.167 -7.16699 55.5 -21.5z" />
    <glyph glyph-name="Zcaron" unicode="&#x17d;" horiz-adv-x="481" 
d="M452 691v-100l-289 -485h292l-13 -106h-423v99l291 489h-262v103h404zM365 924l47 -51l-126 -121h-77l-126 121l47 51l117 -82z" />
    <glyph glyph-name="zcaron" unicode="&#x17e;" horiz-adv-x="408" 
d="M385 529v-91l-231 -340h235l-12 -98h-362v90l231 341h-211v98h350zM325 798l47 -52l-126 -127h-77l-126 127l46 52l118 -90z" />
    <glyph glyph-name="longs" unicode="&#x17f;" horiz-adv-x="318" 
d="M380 724l-35 -83.002c-26 12 -51.667 18 -77 18c-22 0 -37.667 -5.16699 -47 -15.5s-14 -27.166 -14 -50.499v-593h-125v439h-76v90h76v63c0 48.667 14.833 87.834 44.5 117.501s72.167 44.5 127.5 44.5c44 0 86 -10 126 -30z" />
    <glyph glyph-name="uni0180" unicode="&#x180;" horiz-adv-x="545" 
d="M458 472c30.667 -48 45.998 -117 45.998 -207c0 -56 -7.66699 -105.167 -23 -147.5s-37.166 -75 -65.499 -98s-61.5 -34.5 -99.5 -34.5c-51.333 0 -93.333 22.333 -126 67l-7 -52h-111v601h-60v81h60v58l125 14v-72h123v-81h-123v-130c15.333 22.667 34.333 40.5 57 53.5
s47.334 19.5 74.001 19.5c56 0 99.333 -24 130 -72zM373.998 265c0 69.333 -7.33496 117.333 -22.002 144s-35.667 40 -63 40c-35.333 0 -66 -23.333 -92 -70v-242c10.667 -18 23.334 -32.167 38.001 -42.5s30.334 -15.5 47.001 -15.5c61.333 0 92 62 92 186z" />
    <glyph glyph-name="uni0181" unicode="&#x181;" horiz-adv-x="665" 
d="M596 314c27.333 -25.333 41.001 -63.6689 41.001 -115.002c0 -69.333 -23.833 -119.833 -71.5 -151.5s-113.167 -47.5 -196.5 -47.5h-189v595h-24c-16 0 -27.667 -3.83301 -35 -11.5s-11 -19.167 -11 -34.5c0 -19.333 6 -42.666 18 -69.999l-82 -38
c-12.667 20 -22.667 39 -30 57s-11 38.333 -11 61c0 40 13.5 72 40.5 96s65.5 36 115.5 36h184c85.333 0 150.833 -14.5 196.5 -43.5s68.5 -73.167 68.5 -132.5c0 -40 -11.5 -72.5 -34.5 -97.5s-52.5 -42.167 -88.5 -51.5c45.333 -9.33301 81.666 -26.666 108.999 -51.999z
M310.001 595.997v-190h59c36 0 63.333 8.33301 82 25s28 41 28 73c0 32.667 -9.83301 56.167 -29.5 70.5s-50.5 21.5 -92.5 21.5h-47zM469.001 120.997c22.667 16 34 43.667 34 83c0 74.667 -41.667 112 -125 112h-68v-219h60c43.333 0 76.333 8 99 24z" />
    <glyph glyph-name="uni0182" unicode="&#x182;" horiz-adv-x="535" 
d="M450 384.5c42.667 -35.667 63.999 -88.833 63.999 -159.5c0 -76 -22.167 -132.5 -66.5 -169.5s-105.833 -55.5 -184.5 -55.5h-194v691h375l-14 -101h-231v-152h69c78.667 0 139.334 -17.833 182.001 -53.5zM348.999 125.501c19.333 19 29.001 51.5 29.001 97.5
c0 42 -9.83301 72.667 -29.5 92s-49.834 29 -90.501 29h-59v-247h61c40 0 69.667 9.5 89 28.5z" />
    <glyph glyph-name="uni0183" unicode="&#x183;" horiz-adv-x="539" 
d="M452 469c30.667 -47.333 45.999 -116 45.999 -206c0 -56 -7.66699 -104.833 -23 -146.5s-37.166 -74 -65.499 -97s-61.5 -34.5 -99.5 -34.5c-51.333 0 -93.333 22.333 -126 67l-7 -52h-111v741h323l-14 -92h-184v-182c15.333 22.667 34.166 40.5 56.499 53.5
s46.833 19.5 73.5 19.5c56.667 0 100.334 -23.667 131.001 -71zM367.999 263c0 68.667 -7.33496 116.333 -22.002 143s-35.667 40 -63 40c-35.333 0 -66 -23.333 -92 -70v-239c10.667 -18 23.334 -32.167 38.001 -42.5s30.334 -15.5 47.001 -15.5c61.333 0 92 61.333 92 184
z" />
    <glyph glyph-name="uni0184" unicode="&#x184;" horiz-adv-x="542" 
d="M460 391.5c43.333 -36.333 65 -90.5 65 -162.5c0 -78 -22 -135.667 -66 -173s-105.333 -56 -184 -56h-195v508l-65 46c32 35.333 60 81 84 137h110v-245h66c80 0 141.667 -18.167 185 -54.5zM359.5 126.5c19.667 19.667 29.5 53.167 29.5 100.5
c0 44 -9.83301 75.833 -29.5 95.5s-50.5 29.5 -92.5 29.5h-58v-255h62c39.333 0 68.833 9.83301 88.5 29.5z" />
    <glyph glyph-name="uni0185" unicode="&#x185;" horiz-adv-x="481" 
d="M409 315c35.333 -30.667 53.001 -75.333 53.001 -134c0 -60.667 -18.667 -106 -56 -136s-87 -45 -149 -45h-180v356l-65 46c31.333 34.667 59.666 77 84.999 127h105v-168h39c76.667 0 132.667 -15.333 168 -46zM311.501 109.501c14.333 15 21.499 39.5 21.499 73.5
c0 32.667 -6.66699 56.5 -20 71.5s-36.666 22.5 -69.999 22.5h-41v-190h46c28 0 49.167 7.5 63.5 22.5z" />
    <glyph glyph-name="uni0186" unicode="&#x186;" horiz-adv-x="517" 
d="M408 615c46.667 -60.667 70 -149.999 70 -267.999c0 -78.667 -11.5 -145 -34.5 -199s-55.167 -94.667 -96.5 -122s-89.666 -41 -144.999 -41c-73.333 0 -137.333 28 -192 84l62 73c22 -17.333 42.167 -30.5 60.5 -39.5s39.833 -13.5 64.5 -13.5c96.667 0 145 86 145 258
c0 93.333 -11.667 159.833 -35 199.5s-56 59.5 -98 59.5c-24 0 -46.333 -4 -67 -12s-41.334 -20 -62.001 -36l-62 76c28 23.333 58 41.166 90 53.499s67.667 18.5 107 18.5c82 0 146.333 -30.333 193 -91z" />
    <glyph glyph-name="uni0187" unicode="&#x187;" horiz-adv-x="517" 
d="M651 805l-40.001 -77.001c-10.667 6.66699 -20.667 11.5 -30 14.5s-20 4.5 -32 4.5c-16.667 0 -29 -4.83301 -37 -14.5s-12 -25.167 -12 -46.5v-52l-58 -69c-20.667 14 -40.667 24.333 -60 31s-39.666 10 -60.999 10c-45.333 0 -81 -20.333 -107 -61
s-39 -106.667 -39 -198c0 -90 13.167 -155.5 39.5 -196.5s62.5 -61.5 108.5 -61.5c23.333 0 44 4.5 62 13.5s38 22.5 60 40.5l62 -75c-22.667 -24 -50.167 -43.833 -82.5 -59.5s-68.5 -23.5 -108.5 -23.5c-55.333 0 -103.833 13.5 -145.5 40.5s-74 67.667 -97 122
s-34.5 120.833 -34.5 199.5c0 76.667 11.833 142 35.5 196s55.5 94.667 95.5 122s84.333 41 133 41c30.667 0 58.667 -6 84 -18v2c0 48.667 12.667 86.334 38 113.001s61.333 40 108 40c42.667 0 82 -12.667 118 -38z" />
    <glyph glyph-name="uni0188" unicode="&#x188;" horiz-adv-x="433" 
d="M573 717l-38.999 -77.001c-10.667 6.66699 -20.667 11.5 -30 14.5s-20 4.5 -32 4.5c-16.667 0 -29 -4.83301 -37 -14.5s-12 -25.167 -12 -46.5v-115l-50 -67c-17.333 10 -33.5 17.5 -48.5 22.5s-31.5 7.5 -49.5 7.5c-34.667 0 -60.834 -14.5 -78.501 -43.5
s-26.5 -75.833 -26.5 -140.5c0 -64 8.83301 -109.333 26.5 -136s43.5 -40 77.5 -40c16.667 0 32 2.83301 46 8.5s29.667 14.5 47 26.5l56 -75c-46 -40.667 -97.667 -61 -155 -61c-72 0 -128.333 23.833 -169 71.5s-61 115.5 -61 203.5c0 57.333 9.16699 107.333 27.5 150
s44 75.667 77 99s70.833 35 113.5 35c18.667 0 36.667 -3 54 -9v66c0 48.667 12.833 86.334 38.5 113.001s61.5 40 107.5 40c44 0 83 -12.333 117 -37z" />
    <glyph glyph-name="uni0189" unicode="&#x189;" horiz-adv-x="604" 
d="M408.5 664c46.333 -18 84 -52.168 113 -102.501s43.5 -121.166 43.5 -212.499c0 -129.333 -28.5 -219.833 -85.5 -271.5s-130.167 -77.5 -219.5 -77.5h-176v311h-67v84h67v296h161c62.667 0 117.167 -9 163.5 -27zM388.5 150.999c28.333 36 42.501 102 42.501 198
c0 66.667 -7.16699 118 -21.5 154s-33.333 60.167 -57 72.5s-52.5 18.5 -86.5 18.5h-52v-199h118v-84h-118v-214h55c51.333 0 91.166 18 119.499 54z" />
    <glyph glyph-name="uni018A" unicode="&#x18a;" horiz-adv-x="700" 
d="M504.5 664c46.333 -18 84 -52.1689 113 -102.502s43.5 -121.166 43.5 -212.499c0 -129.333 -28.5 -219.833 -85.5 -271.5s-130.167 -77.5 -219.5 -77.5h-176v595h-24c-16 0 -27.667 -3.83301 -35 -11.5s-11 -19.167 -11 -34.5c0 -19.333 6 -42.666 18 -69.999l-82 -38
c-12.667 20 -22.667 39 -30 57s-11 38.333 -11 61c0 40 13.5 72 40.5 96s65.5 36 115.5 36h180c62.667 0 117.167 -9 163.5 -27zM484.5 150.998c28.333 36 42.501 102 42.501 198c0 66.667 -7.16699 118 -21.5 154s-33.333 60.167 -57 72.5s-52.5 18.5 -86.5 18.5h-52v-497
h55c51.333 0 91.166 18 119.499 54z" />
    <glyph glyph-name="uni018B" unicode="&#x18b;" horiz-adv-x="535" 
d="M466 0h-196c-78.667 -0 -140 17.833 -184 53.5s-66 90.5 -66 164.5c0 71.333 21.833 125.833 65.5 163.5s105.5 56.5 185.5 56.5h65v152h-239v101h369v-691zM336 97l0.000976562 247h-56c-42.667 0 -74 -10 -94 -30s-30 -52 -30 -96s10.167 -75.167 30.5 -93.5
s51.166 -27.5 92.499 -27.5h57z" />
    <glyph glyph-name="uni018C" unicode="&#x18c;" horiz-adv-x="542" 
d="M476 0h-111l-7 64c-34.667 -52.667 -79.334 -79 -134.001 -79c-59.333 0 -104.666 24.333 -135.999 73s-47 116 -47 202c0 54.667 8 103 24 145s38.5 74.5 67.5 97.5s62.833 34.5 101.5 34.5c46 0 85 -18.667 117 -56v168h-191v92h316v-741zM309 95.5
c14.667 11 28.667 27.5 42 49.5v242c-12.667 18.667 -25.834 32.667 -39.501 42s-29.167 14 -46.5 14c-29.333 0 -52.333 -14.667 -69 -44s-25 -75.333 -25 -138c0 -64.667 7.66699 -111.167 23 -139.5s37 -42.5 65 -42.5c18.667 0 35.334 5.5 50.001 16.5z" />
    <glyph glyph-name="uni018D" unicode="&#x18d;" horiz-adv-x="526" 
d="M350 68c33.333 -19.333 56.334 -39.8301 69.001 -61.4971s19 -47.167 19 -76.5c0 -42.667 -15.667 -78.334 -47 -107.001s-77 -43 -137 -43c-64 0 -119.667 19 -167 57l56 69c17.333 -12 34 -20.833 50 -26.5s33.667 -8.5 53 -8.5c24 0 41.833 5.33301 53.5 16
s17.5 25 17.5 43c0 14 -2.33301 25.5 -7 34.5s-13.667 18 -27 27s-34 19.833 -62 32.5c-64.667 30 -111.334 64.333 -140.001 103s-43 91 -43 157c0.666992 80 21 143.333 61 190s94.667 70 164 70c70 0 124.833 -21.333 164.5 -64s59.5 -105.334 59.5 -188.001
c0 -102.667 -45.667 -177.334 -137 -224.001zM340.001 178.003c12 29.333 18 65.667 18 109c0 58 -7.66699 99.5 -23 124.5s-39.333 37.5 -72 37.5c-31.333 0 -54.833 -12.667 -70.5 -38s-23.5 -67 -23.5 -125c0 -34 3 -61.667 9 -83s17 -39.833 33 -55.5
s39.667 -31.5 71 -47.5c26.667 22.667 46 48.667 58 78z" />
    <glyph glyph-name="uni018E" unicode="&#x18e;" horiz-adv-x="476" 
d="M41 691h366v-691h-371v97h241v207h-197v95h197v196h-236v96z" />
    <glyph glyph-name="uni018F" unicode="&#x18f;" horiz-adv-x="583" 
d="M477 619.5c45.333 -57.667 68.002 -146.166 68.002 -265.499c0 -124 -23.167 -216.5 -69.5 -277.5s-109.833 -91.5 -190.5 -91.5c-170.667 0 -256 117.333 -256 352c0 22 1.33301 41.333 4 58h380c-2 76 -14.833 130.333 -38.5 163s-57.834 49 -102.501 49
c-28.667 0 -54.667 -5.16699 -78 -15.5s-46.666 -24.833 -69.999 -43.5l-60 71c31.333 29.333 64.666 51.166 99.999 65.499s74.666 21.5 117.999 21.5c84.667 0 149.667 -28.833 195 -86.5zM376.002 132.501c21.333 33 33.333 89.167 36 168.5h-258
c0.666992 -78.667 12 -134.667 34 -168s53.667 -50 95 -50c40.667 0 71.667 16.5 93 49.5z" />
    <glyph glyph-name="uni0190" unicode="&#x190;" horiz-adv-x="482" 
d="M369 684c33.333 -14.667 64.666 -36.667 93.999 -66l-64 -69c-41.333 39.333 -83.333 59 -126 59c-31.333 0 -54.5 -8.83301 -69.5 -26.5s-22.5 -40.167 -22.5 -67.5c0 -31.333 9 -56 27 -74s43.333 -27 76 -27h63l-16 -97h-47c-39.333 0 -69 -9.83301 -89 -29.5
s-30 -47.834 -30 -84.501c0 -38 9.83301 -66.833 29.5 -86.5s47.5 -29.5 83.5 -29.5c26 0 49.5 5.16699 70.5 15.5s41.5 25.833 61.5 46.5l71 -67c-54 -64 -125 -96 -213 -96c-46 0 -87.167 8.66699 -123.5 26s-64.833 41.833 -85.5 73.5s-31 68.834 -31 111.501
c0 50.667 14 90.5 42 119.5s65.333 46.5 112 52.5c-43.333 10 -76.5 28.5 -99.5 55.5s-34.5 61.167 -34.5 102.5c0 34 8.66699 64.667 26 92s41.833 48.833 73.5 64.5s68.834 23.5 111.501 23.5c40 0 76.667 -7.33301 110 -22z" />
    <glyph glyph-name="uni0191" unicode="&#x191;" horiz-adv-x="441" 
d="M199 595v-210h188v-96h-188v-343c0 -53.333 -15 -93.833 -45 -121.5s-70.333 -41.5 -121 -41.5c-48.667 0 -89.334 13.333 -122.001 40l46 76c12 -6.66699 22.333 -11.5 31 -14.5s19.334 -4.5 32.001 -4.5c32.667 0 49 19.667 49 59v752h359l-13 -96h-216z" />
    <glyph glyph-name="florin" unicode="&#x192;" horiz-adv-x="329" 
d="M225 643.5c-10 -10.333 -15.001 -27.168 -15.001 -50.501v-64h115l-14 -90h-101v-393c0 -51.333 -7.16699 -93.5 -21.5 -126.5s-34.166 -59.5 -59.499 -79.5s-58.333 -39 -99 -57l-40 91c23.333 12 41.5 24 54.5 36s23 28 30 48s10.5 46.667 10.5 80v401h-73v90h73v63
c0 48.667 15 87.834 45 117.501s73 44.5 129 44.5c46.667 0 90.667 -10 132 -30l-35 -83c-28 12 -55 18 -81 18c-23.333 0 -40 -5.16699 -50 -15.5z" />
    <glyph glyph-name="uni0193" unicode="&#x193;" horiz-adv-x="548" 
d="M682 805l-40.001 -77.002c-10.667 6.66699 -20.667 11.5 -30 14.5s-20 4.5 -32 4.5c-16.667 0 -29 -4.83301 -37 -14.5s-12 -25.167 -12 -46.5v-61l-61 -64c-23.333 16 -45.666 27.833 -66.999 35.5s-44.666 11.5 -69.999 11.5c-48 0 -86.5 -20.5 -115.5 -61.5
s-43.5 -107.833 -43.5 -200.5c0 -65.333 5.16699 -117.166 15.5 -155.499s25.833 -65.666 46.5 -81.999s47 -24.5 79 -24.5c34.667 0 66.334 8.66699 95.001 26v184h-90l-13 96h228v-337c-32 -21.333 -66.667 -38 -104 -50s-76 -18 -116 -18
c-90.667 0 -159.334 30 -206.001 90s-70 150.333 -70 271c0 77.333 12.667 143.166 38 197.499s59.166 95 101.499 122s88.833 40.5 139.5 40.5c36.667 0 70 -7 100 -21v5c0 48.667 12.667 86.334 38 113.001s61.333 40 108 40c42.667 0 82 -12.667 118 -38z" />
    <glyph glyph-name="uni0194" unicode="&#x194;" horiz-adv-x="517" 
d="M329 81c21.333 -41.333 36.5 -75.5 45.5 -102.5s13.5 -54.5 13.5 -82.5c0 -36 -10.5 -63.833 -31.5 -83.5s-53.167 -29.5 -96.5 -29.5c-42.667 0 -74.5 9.83301 -95.5 29.5s-31.5 47.167 -31.5 82.5c0 24.667 4.5 50.667 13.5 78s24.167 63.333 45.5 108l-195 610h134
l130 -525l130 525h129zM280.5 -53c-4.33301 15.333 -11.167 35.334 -20.5 60.001c-18 -46 -27 -80.667 -27 -104c0 -22 9 -33 27 -33s27 11.333 27 34c0 13.333 -2.16699 27.666 -6.5 42.999z" />
    <glyph glyph-name="uni0195" unicode="&#x195;" horiz-adv-x="791" 
d="M737 390c4.66699 -43.333 7 -88.335 7 -135.002c0 -62.667 -10.667 -114.167 -32 -154.5s-49 -69.666 -83 -87.999s-71 -27.5 -111 -27.5c-52.667 0 -95.667 15.167 -129 45.5s-50 73.833 -50 130.5v210c0 28 -4.5 47.833 -13.5 59.5s-22.167 17.5 -39.5 17.5
c-33.333 0 -65 -26.333 -95 -79v-369h-125v740l125 13v-287c18.667 26 39 45.5 61 58.5s47.667 19.5 77 19.5c41.333 0 74.166 -14 98.499 -42s36.5 -66 36.5 -114v-225c0 -28.667 5 -49.667 15 -63s25.333 -20 46 -20c26.667 0 48.834 13.667 66.501 41
s26.5 74.333 26.5 141c0 80.667 -7.66699 169.667 -23 267h123c8 -49.333 14.333 -95.666 19 -138.999z" />
    <glyph glyph-name="uni0196" unicode="&#x196;" horiz-adv-x="346" 
d="M347 26c-32.667 -26.667 -73.334 -40 -122.001 -40c-50.667 0 -91 13.833 -121 41.5s-45 68.167 -45 121.5v542h130v-549c0 -39.333 16.333 -59 49 -59c12.667 0 23.334 1.5 32.001 4.5s19 7.83301 31 14.5z" />
    <glyph glyph-name="uni0197" unicode="&#x197;" horiz-adv-x="294" 
d="M285 408v-97h-73v-311h-130v311h-74v97h74v283h130v-283h73z" />
    <glyph glyph-name="uni0198" unicode="&#x198;" horiz-adv-x="580" 
d="M203 369l126.001 223c22 40.667 44.333 69.834 67 87.501s52 26.5 88 26.5c21.333 0 40 -3.33301 56 -10s31.667 -15.667 47 -27l-38 -74c-8.66699 5.33301 -16.334 9.33301 -23.001 12s-14.667 4 -24 4c-13.333 0 -24.5 -3.83301 -33.5 -11.5
s-19.5 -21.834 -31.5 -42.501l-100 -179l230 -378h-147zM199.001 691v-691h-130v691h130z" />
    <glyph glyph-name="uni0199" unicode="&#x199;" horiz-adv-x="489" 
d="M205.5 643c-9.66699 -10.667 -14.501 -27.667 -14.501 -51v-592h-125v594c0 47.333 15 85.833 45 115.5s72.667 44.5 128 44.5c46 0 88 -10 126 -30l-36 -82c-25.333 11.333 -50.666 17 -75.999 17c-22 0 -37.833 -5.33301 -47.5 -16zM323.999 296l170 -296h-138
l-160 289l158 240h126z" />
    <glyph glyph-name="uni019A" unicode="&#x19a;" horiz-adv-x="297" 
d="M287 4c-22 -12.667 -48.332 -19.001 -78.999 -19.001c-38.667 0 -68.834 11.333 -90.501 34s-32.5 54.334 -32.5 95.001v213h-77v90h77v324l125 13v-337h75v-90h-75v-209c0 -21.333 9 -32 27 -32c8.66699 0 17 1.33301 25 4z" />
    <glyph glyph-name="uni019B" unicode="&#x19b;" horiz-adv-x="466" 
d="M381 261c14.667 -54 29.6689 -98.499 45.002 -133.499s34 -68.167 56 -99.5l-118 -43c-30.667 52.667 -55.334 108.5 -74.001 167.5s-37.334 143.833 -56.001 254.5l-101 -422l-122 28l147 485h59c-8.66699 40 -17.667 69.333 -27 88l-55 -58l-68 43l70 74
c-18.667 11.333 -44.667 20 -78 26l15 84c57.333 -10.667 102 -26.334 134 -47.001l64 64l56 -57l-62 -63c28.667 -40 50.667 -98 66 -174c18 -90.667 34.333 -163 49 -217z" />
    <glyph glyph-name="uni019C" unicode="&#x19c;" horiz-adv-x="830" 
d="M761 691l-0.000976562 -690.999h-113l-9 67c-20 -28 -41.5 -48.667 -64.5 -62s-48.833 -20 -77.5 -20c-31.333 0 -58.5 8.33301 -81.5 25s-40.5 39.334 -52.5 68.001c-23.333 -32.667 -47 -56.334 -71 -71.001s-51 -22 -81 -22c-47.333 0 -84.5 17.167 -111.5 51.5
s-40.5 79.166 -40.5 134.499v520h130v-515c0 -29.333 5.16699 -51.833 15.5 -67.5s25.166 -23.5 44.499 -23.5c18.667 0 35.334 6 50.001 18s30 31 46 57v11v520h130v-515c0 -28 5.33301 -50.167 16 -66.5s25.667 -24.5 45 -24.5c18.667 0 35.334 6 50.001 18
s30 31.333 46 58v530h129z" />
    <glyph glyph-name="uni019D" unicode="&#x19d;" horiz-adv-x="605" 
d="M536 691v-691h-166l-202 563l3 -27c9.33301 -93.333 14 -176.333 14 -249v-341c0 -52.667 -14.333 -93 -43 -121s-66.667 -42 -114 -42s-87.333 13.333 -120 40l46 73c12 -7.33301 22.5 -12.5 31.5 -15.5s19.833 -4.5 32.5 -4.5c34 0 51 20.333 51 61v754h164l204 -563
c-4 26 -7.83301 60.833 -11.5 104.5s-5.5 87.167 -5.5 130.5v328h116z" />
    <glyph glyph-name="uni019E" unicode="&#x19e;" horiz-adv-x="525" 
d="M428 502c24 -28 36 -65.999 36 -113.999v-605l-125 14v574c0 28 -4.5 47.833 -13.5 59.5s-22.167 17.5 -39.5 17.5c-18 0 -34.667 -6.66699 -50 -20s-30.333 -33 -45 -59v-369h-125v529h109l9 -69c19.333 27.333 40.833 48.166 64.5 62.499s50.5 21.5 80.5 21.5
c42 0 75 -14 99 -42z" />
    <glyph glyph-name="uni019F" unicode="&#x19f;" horiz-adv-x="628" 
d="M517 614.5c48.667 -61 73 -150.499 73 -268.499c0 -116.667 -24.333 -206 -73 -268s-116.334 -93 -203.001 -93c-86 0 -153.333 30.667 -202 92s-73 150.666 -73 267.999c0 116 24.333 205.167 73 267.5s116 93.5 202 93.5c86.667 0 154.334 -30.5 203.001 -91.5z
M213 556.501c-24 -33.667 -38.333 -88.5 -43 -164.5h288c-4 76 -18 130.833 -42 164.5s-58 50.5 -102 50.5c-43.333 0 -77 -16.833 -101 -50.5zM418 136.501c24 35 37.332 92.833 39.999 173.5h-288c2.66699 -80 16.334 -137.667 41.001 -173s59 -53 103 -53
c45.333 0 80 17.5 104 52.5z" />
    <glyph glyph-name="Ohorn" unicode="&#x1a0;" horiz-adv-x="654" 
d="M609 612c-15.333 -18.667 -37.332 -30.998 -65.999 -36.998c31.333 -60.667 47 -137 47 -229c0 -116.667 -24.333 -206 -73 -268s-116.334 -93 -203.001 -93c-86 0 -153.333 30.667 -202 92s-73 150.666 -73 267.999c0 116 24.333 205.167 73 267.5s116 93.5 202 93.5
c77.333 0 139 -24 185 -72c16 2.66699 27.333 8 34 16s10 20 10 36c0 25.333 -4 49.333 -12 72l84 15c11.333 -25.333 17 -54.333 17 -87c0 -30.667 -7.66699 -55.334 -23 -74.001zM419.501 144.502c23 40.333 34.5 107.5 34.5 201.5c0 92.667 -11.5 159.334 -34.5 200.001
s-58.167 61 -105.5 61c-46 0 -80.667 -20.333 -104 -61s-35 -107.667 -35 -201c0 -92.667 11.833 -159.334 35.5 -200.001s58.167 -61 103.5 -61c47.333 0 82.5 20.167 105.5 60.5z" />
    <glyph glyph-name="ohorn" unicode="&#x1a1;" horiz-adv-x="559" 
d="M538.5 446c-16.333 -18.667 -39.501 -30.666 -69.501 -35.999c16 -40 24 -88.333 24 -145c0 -86.667 -20.167 -155 -60.5 -205s-95.833 -75 -166.5 -75c-71.333 0 -127.166 24.5 -167.499 73.5s-60.5 117.833 -60.5 206.5c0 87.333 20.167 155.666 60.5 204.999
s96.166 74 167.499 74c72 0 127.667 -23.667 167 -71c14.667 2 25.334 7 32.001 15s10 19.667 10 35c0 14.667 -1 27 -3 37s-5.33301 21.333 -10 34l84 15c11.333 -25.333 17 -54.333 17 -87c0 -32 -8.16699 -57.333 -24.5 -76zM338.999 124.001c16 29.333 24 76.333 24 141
c0 65.333 -8 112.333 -24 141s-40.333 43 -73 43s-57 -14.5 -73 -43.5s-24 -75.833 -24 -140.5c0 -65.333 8 -112.5 24 -141.5s40.333 -43.5 73 -43.5s57 14.667 73 44z" />
    <glyph glyph-name="uni01A2" unicode="&#x1a2;" horiz-adv-x="857" 
d="M742.5 662.5c30.333 -29.667 45.502 -71.5 45.502 -125.5v-743h-130v748c0 47.333 -19 71 -57 71c-24.667 0 -48 -6.66699 -70 -20c39.333 -61.333 59 -143.666 59 -246.999c0 -116.667 -24.333 -206 -73 -268s-116.334 -93 -203.001 -93c-86 0 -153.333 30.667 -202 92
s-73 150.666 -73 267.999c0 116 24.333 205.167 73 267.5s116 93.5 202 93.5c62 0 114.667 -16 158 -48c22 16.667 44.667 29 68 37s49 12 77 12c53.333 0 95.166 -14.833 125.499 -44.5zM419.502 144.5c23 40.333 34.5 107.5 34.5 201.5
c0 92.667 -11.5 159.334 -34.5 200.001s-58.167 61 -105.5 61c-46 0 -80.667 -20.333 -104 -61s-35 -107.667 -35 -201c0 -92.667 11.833 -159.334 35.5 -200.001s58.167 -61 103.5 -61c47.333 0 82.5 20.167 105.5 60.5z" />
    <glyph glyph-name="uni01A3" unicode="&#x1a3;" horiz-adv-x="739" 
d="M630 500c28.667 -29.333 43.002 -71.666 43.002 -126.999v-590l-125 14v585c0 44.667 -18.333 67 -55 67c-14 0 -28 -2.33301 -42 -7c27.333 -45.333 41 -104.333 41 -177c0 -56.667 -9.16699 -106.167 -27.5 -148.5s-44.5 -74.833 -78.5 -97.5s-74.333 -34 -121 -34
c-70.667 0 -126.167 24.5 -166.5 73.5s-60.5 117.833 -60.5 206.5c0 87.333 20 155.666 60 204.999s95.667 74 167 74c48.667 0 89.667 -11.333 123 -34c19.333 12 38.666 20.667 57.999 26s40.666 8 63.999 8c51.333 0 91.333 -14.667 120 -44zM337.002 124
c16 29.333 24 76.333 24 141s-7.83301 111.5 -23.5 140.5s-39.834 43.5 -72.501 43.5c-32 0 -56 -14.5 -72 -43.5s-24 -75.833 -24 -140.5c0 -65.333 7.83301 -112.5 23.5 -141.5s39.834 -43.5 72.501 -43.5c32 0 56 14.667 72 44z" />
    <glyph glyph-name="uni01A4" unicode="&#x1a4;" horiz-adv-x="645" 
d="M556.5 635.5c45.667 -37 68.5 -91.834 68.5 -164.501c0 -76 -22.833 -133.167 -68.5 -171.5s-108.5 -57.5 -188.5 -57.5h-58v-242h-130v595h-24c-16 0 -27.667 -3.83301 -35 -11.5s-11 -19.167 -11 -34.5c0 -19.333 6 -42.666 18 -69.999l-82 -38
c-12.667 20 -22.667 39 -30 57s-11 38.333 -11 61c0 40 13.5 72 40.5 96s65.5 36 115.5 36h198c86 0 151.833 -18.5 197.5 -55.5zM459 368.499c21.333 19.667 32 53.833 32 102.5c0 43.333 -10.667 75 -32 95s-54.333 30 -99 30h-50v-257h50
c44.667 0 77.667 9.83301 99 29.5z" />
    <glyph glyph-name="uni01A5" unicode="&#x1a5;" horiz-adv-x="539" 
d="M454 471.5c29.333 -48.333 43.999 -116.833 43.999 -205.5c0 -85.333 -16.667 -153.5 -50 -204.5s-79.333 -76.5 -138 -76.5c-48.667 0 -88.334 19 -119.001 57v-245l-125 -14v811c0 47.333 15 85.833 45 115.5s72.667 44.5 128 44.5c46 0 88 -10 126 -30l-36 -82
c-25.333 11.333 -50.666 17 -75.999 17c-22 0 -37.833 -5.33301 -47.5 -16s-14.5 -27.667 -14.5 -51v-117c34.667 46 78.334 69 131.001 69c58.667 0 102.667 -24.167 132 -72.5zM343.999 124.5c16 29 24 75.833 24 140.5c0 66.667 -7 114 -21 142s-35 42 -63 42
c-36 0 -67 -23 -93 -69v-246c22.667 -35.333 50.667 -53 84 -53c30 0 53 14.5 69 43.5z" />
    <glyph glyph-name="uni01A6" unicode="&#x1a6;" horiz-adv-x="557" 
d="M271 160h-72v-160h-130v691h130v-118h54c174 0 261 -68 261 -204c0 -90 -41.333 -151.667 -124 -185l161 -303h-143zM260 253c41.333 0 71.667 9.33398 91 28.001s29 48 29 88c0 37.333 -10.167 64.666 -30.5 81.999s-52.833 26.333 -97.5 27h-53v-225h61z" />
    <glyph glyph-name="uni01A7" unicode="&#x1a7;" horiz-adv-x="499" 
d="M413.5 655.5c39 -33.667 58.498 -78.499 58.498 -134.499c0 -51.333 -14.833 -92.5 -44.5 -123.5s-78.167 -58.167 -145.5 -81.5c-46 -16 -77.5 -33.667 -94.5 -53s-25.5 -44.666 -25.5 -75.999c0 -32 9.33301 -56.833 28 -74.5s44 -26.5 76 -26.5
c28.667 0 55.667 5.66699 81 17s50.333 27.333 75 48l66 -71c-62 -63.333 -138.667 -95 -230 -95c-46 0 -86.5 8.83301 -121.5 26.5s-62 42.167 -81 73.5s-28.5 67 -28.5 107c0 58 15.167 102.667 45.5 134s76.5 58 138.5 80c34 12 60 23.5 78 34.5s30.667 23.167 38 36.5
s11 29.666 11 48.999c0 27.333 -7.66699 47.666 -23 60.999s-36.666 20 -63.999 20s-52.333 -4.5 -75 -13.5s-45 -23.167 -67 -42.5l-62 70c30 28 62.333 49.167 97 63.5s73.334 21.5 116.001 21.5c63.333 0 114.5 -16.833 153.5 -50.5z" />
    <glyph glyph-name="uni01A8" unicode="&#x1a8;" horiz-adv-x="424" 
d="M350 501c32.667 -28.667 48.9971 -65.332 48.9971 -109.999c0 -40.667 -11.333 -72.834 -34 -96.501s-59 -43.167 -109 -58.5c-29.333 -9.33301 -51.333 -18.166 -66 -26.499s-24.667 -17.333 -30 -27s-8 -22.167 -8 -37.5c0 -21.333 7 -37.833 21 -49.5
s32.333 -17.5 55 -17.5c42.667 0 84 16.333 124 49l61 -67c-23.333 -23.333 -51.666 -41.666 -84.999 -54.999s-69.666 -20 -108.999 -20c-56 0 -102.667 14.667 -140 44s-56 69.666 -56 120.999c0 43.333 12.5 77.166 37.5 101.499s63.167 44.166 114.5 59.499
c39.333 12 65.5 24 78.5 36s19.5 28.667 19.5 50c0 16.667 -5.66699 29.834 -17 39.501s-27.666 14.5 -48.999 14.5c-39.333 0 -79 -13.333 -119 -40l-49 70c54 42 113.667 63 179 63c55.333 0 99.333 -14.333 132 -43z" />
    <glyph glyph-name="uni01A9" unicode="&#x1a9;" horiz-adv-x="453" 
d="M429 691v-98h-266l164 -220v-63l-167 -210h269v-100h-405v98l188 242l-188 253v98h405z" />
    <glyph glyph-name="uni01AA" unicode="&#x1aa;" horiz-adv-x="341" 
d="M436 -177c-34 -26.667 -74.999 -40.001 -122.999 -40.001c-49.333 0 -88.833 13.833 -118.5 41.5s-44.5 67.5 -44.5 119.5v513c-16.667 -6.66699 -34.334 -10 -53.001 -10c-40 0 -72.833 13.667 -98.5 41s-38.5 64.333 -38.5 111c0 47.333 14 85 42 113s65.333 42 112 42
c49.333 0 88.5 -14.167 117.5 -42.5s43.5 -67.166 43.5 -116.499v-659c0 -39.333 17.333 -59 52 -59c12 0 22.5 1.5 31.5 4.5s19.5 7.83301 31.5 14.5zM150.001 541.999v64c0 38.667 -12.667 58 -38 58c-26.667 0 -40 -20.667 -40 -62c0 -22.667 3.83301 -39.167 11.5 -49.5
s19.167 -15.5 34.5 -15.5c9.33301 0 20 1.66699 32 5z" />
    <glyph glyph-name="uni01AB" unicode="&#x1ab;" horiz-adv-x="342" 
d="M348 25l-0.000976562 -81.001c0 -52 -14.667 -91.833 -44 -119.5s-68.666 -41.5 -117.999 -41.5c-48.667 0 -90 13.333 -124 40l46 74c12 -7.33301 23.167 -12.666 33.5 -15.999s22.166 -5 35.499 -5c18.667 0 33.334 5.16699 44.001 15.5s16 25.833 16 46.5v49
c-8 -1.33301 -14.333 -2 -19 -2c-45.333 0 -80.333 13.833 -105 41.5s-37 66.5 -37 116.5v296h-71v90h71v117l125 15v-132h111l-13 -90h-98v-299c0 -20 4 -34.833 12 -44.5s20.667 -14.5 38 -14.5s37 3.66699 59 11z" />
    <glyph glyph-name="uni01AC" unicode="&#x1ac;" horiz-adv-x="525" 
d="M509 588l-159.001 -0.000976562v-588h-130v588h-64c-30 0 -45 -14.667 -45 -44c0 -11.333 1.33301 -21.666 4 -30.999s6.66699 -20 12 -32l-86 -40c-24 39.333 -36 77 -36 113c0 42.667 14.333 76.167 43 100.5s68.334 36.5 119.001 36.5h355z" />
    <glyph glyph-name="uni01AD" unicode="&#x1ad;" horiz-adv-x="342" 
d="M348 25c-17.333 -13.333 -36.5 -23.334 -57.5 -30.001s-42.5 -10 -64.5 -10c-48.667 0 -85.834 14 -111.501 42s-38.5 67 -38.5 117v295h-71v90h71v66c0 48.667 13.833 87.334 41.5 116.001s66.167 43 115.5 43c40.667 0 78.667 -12.333 114 -37l-39 -74
c-12.667 7.33301 -23 12.5 -31 15.5s-17.333 4.5 -28 4.5c-15.333 0 -27.166 -4.83301 -35.499 -14.5s-12.5 -24.167 -12.5 -43.5v-76h111l-13 -90h-98v-294c0 -20 4 -34.833 12 -44.5s20.333 -14.5 37 -14.5c17.333 0 35.333 5.66699 54 17z" />
    <glyph glyph-name="uni01AE" unicode="&#x1ae;" horiz-adv-x="482" 
d="M304 589v-588h1v-62c0 -39.333 16.333 -59 49 -59c12.667 0 23.334 1.5 32.001 4.5s19 7.83301 31 14.5l46 -76c-32.667 -26.667 -73.334 -40 -122.001 -40c-50.667 0 -91 13.833 -121 41.5s-45 68.167 -45 121.5v643h-166v102h468l-14 -102h-159z" />
    <glyph glyph-name="Uhorn" unicode="&#x1af;" horiz-adv-x="643" 
d="M624 601c-22 -19.333 -53 -29.667 -93 -31v-362c0 -42.667 -9 -80.834 -27 -114.501s-44.667 -60.167 -80 -79.5s-78.333 -29 -129 -29c-76.667 0 -135.167 20.333 -175.5 61s-60.5 94.667 -60.5 162v483h130v-477c0 -43.333 8.5 -75.5 25.5 -96.5
s43.833 -31.5 80.5 -31.5c36 0 62.667 10.667 80 32s26 53.333 26 96v477h130v-55c13.333 2.66699 22.833 8 28.5 16s8.5 19.333 8.5 34c0 25.333 -4 49.333 -12 72l84 15c11.333 -25.333 17 -54.333 17 -87c0 -37.333 -11 -65.666 -33 -84.999z" />
    <glyph glyph-name="uhorn" unicode="&#x1b0;" horiz-adv-x="568" 
d="M582 522c0 -37.333 -10.998 -65.668 -32.998 -85.001s-53.333 -29.666 -94 -30.999v-406h-108l-7 70c-18 -28.667 -38.5 -50 -61.5 -64s-50.167 -21 -81.5 -21c-42.667 0 -75.834 14 -99.501 42s-35.5 65.667 -35.5 113v389h125v-378c0 -24.667 4.16699 -42.667 12.5 -54
s21.5 -17 39.5 -17c34.667 0 65 24 91 72v377h125v-56c13.333 2.66699 23.166 8 29.499 16s9.5 19.333 9.5 34s-1 27 -3 37s-5.33301 21.333 -10 34l84 15c11.333 -25.333 17 -54.333 17 -87z" />
    <glyph glyph-name="uni01B1" unicode="&#x1b1;" horiz-adv-x="622" 
d="M164 23.5c-41.333 25.667 -73.001 62.498 -95.001 110.498s-33 104.667 -33 170c0 72 10.167 130.333 30.5 175s49.166 83 86.499 115h-98v97h203v-94c-30 -34 -52 -72.833 -66 -116.5s-21 -102.5 -21 -176.5c0 -76 11.833 -131.667 35.5 -167s58.5 -53 104.5 -53
s80.833 17.833 104.5 53.5s35.5 91.5 35.5 167.5c0 72 -7.16699 130 -21.5 174s-36.166 83.333 -65.499 118v94h204v-97h-100c37.333 -28.667 66.333 -65.667 87 -111s31 -104.666 31 -177.999c0 -64 -11.167 -120.167 -33.5 -168.5s-54.166 -85.666 -95.499 -111.999
s-90 -39.5 -146 -39.5c-56.667 0 -105.667 12.833 -147 38.5z" />
    <glyph glyph-name="uni01B2" unicode="&#x1b2;" horiz-adv-x="590" 
d="M497.5 670.5c22.333 -23.667 33.499 -58.165 33.499 -103.498v-286c0 -60.667 -10.5 -113.334 -31.5 -158.001s-50.667 -78.834 -89 -102.501s-82.833 -35.5 -133.5 -35.5c-44.667 0 -83.5 9.16699 -116.5 27.5s-58.167 43.5 -75.5 75.5s-26 68.333 -26 109v494h130v-493
c0 -36 7.83301 -63.667 23.5 -83s37.834 -29 66.501 -29c38 0 67.833 16.333 89.5 49s32.5 80.667 32.5 144v289c0 26.667 -10 40 -30 40c-9.33301 0 -18.333 -1.66699 -27 -5l-22 86c24.667 11.333 51.334 17 80.001 17c41.333 0 73.166 -11.833 95.499 -35.5z" />
    <glyph glyph-name="uni01B3" unicode="&#x1b3;" horiz-adv-x="555" 
d="M196 261l-199.002 429.998h139l128 -323l77 212c15.333 44.667 34.5 76.834 57.5 96.501s53.5 29.5 91.5 29.5c21.333 0 40.333 -3.33301 57 -10s33 -16 49 -28l-39 -73c-16.667 11.333 -33.667 17 -51 17c-13.333 0 -24.166 -4.16699 -32.499 -12.5
s-17.166 -23.166 -26.499 -44.499l-121 -293v-262h-130v261z" />
    <glyph glyph-name="uni01B4" unicode="&#x1b4;" horiz-adv-x="465" 
d="M41 -127c45.333 7.33301 79.001 20.333 101.001 39s40 48 54 88h-45l-149 529h129l101 -446l79 375c8 42.667 21.333 73.5 40 92.5s45.667 28.5 81 28.5c25.333 0 49.333 -5.33301 72 -16l-24 -81c-8 3.33301 -16.667 5 -26 5c-10 0 -17.833 -2.83301 -23.5 -8.5
s-9.83398 -15.167 -12.501 -28.5l-106 -443c-32 -137.333 -118 -212.333 -258 -225z" />
    <glyph glyph-name="uni01B5" unicode="&#x1b5;" horiz-adv-x="481" 
d="M155 106h300l-13 -106h-423v96l125 205h-77v90h131l120 197h-270v103h404v-97l-124 -203h81v-90h-135z" />
    <glyph glyph-name="uni01B6" unicode="&#x1b6;" horiz-adv-x="408" 
d="M147 95h242l-12 -95h-362v87l95 138h-65v83h122l86 126h-218v95h350v-87l-92 -134h66v-83h-123z" />
    <glyph glyph-name="uni01B7" unicode="&#x1b7;" horiz-adv-x="481" 
d="M402 346.5c34.667 -33.667 52 -81.833 52 -144.5c0 -42 -9.5 -79.5 -28.5 -112.5s-46.5 -58.667 -82.5 -77s-78.667 -27.5 -128 -27.5c-47.333 0 -88 8.16699 -122 24.5s-63.667 40.5 -89 72.5l71 64c20.667 -21.333 41 -36.833 61 -46.5s43.667 -14.5 71 -14.5
c36.667 0 64.667 10.333 84 31s29 50.667 29 90c0 40 -10 68.667 -30 86s-50.667 26 -92 26h-85v79l174 196h-249v98h387v-96l-176 -195c67.333 -2 118.333 -19.833 153 -53.5z" />
    <glyph glyph-name="uni01B8" unicode="&#x1b8;" horiz-adv-x="481" 
d="M476 82c-26 -32 -56.1689 -56.165 -90.502 -72.498s-75.5 -24.5 -123.5 -24.5s-89.833 9 -125.5 27s-63 43.167 -82 75.5s-28.5 69.166 -28.5 110.499c0 61.333 17.667 109.666 53 144.999s86 54.333 152 57l-176 195v96h388v-98h-249l173 -196v-79h-84
c-41.333 0 -72.166 -9.5 -92.499 -28.5s-30.5 -48.833 -30.5 -89.5c0 -36.667 9.33301 -65 28 -85s45.334 -30 80.001 -30c28.667 0 53.5 4.83301 74.5 14.5s42.167 25.167 63.5 46.5z" />
    <glyph glyph-name="uni01B9" unicode="&#x1b9;" horiz-adv-x="450" 
d="M459 -121c-24.667 -31.333 -53.999 -55.166 -87.999 -71.499s-74 -24.5 -120 -24.5c-46.667 0 -87.5 9.33301 -122.5 28s-62 44.5 -81 77.5s-28.5 70.833 -28.5 113.5c0 64 17.667 113.667 53 149s85.666 54.666 150.999 57.999l-177 231v89h379v-96h-244l168 -226v-78
h-77c-42 0 -73 -9.83301 -93 -29.5s-30 -50.834 -30 -93.501c0 -41.333 9.5 -72.666 28.5 -93.999s45.833 -32 80.5 -32c26 0 49 4.83301 69 14.5s41.333 25.5 64 47.5z" />
    <glyph glyph-name="uni01BA" unicode="&#x1ba;" horiz-adv-x="448" 
d="M25 -73c0 34.667 12.335 61.832 37.002 81.499s63 34.167 115 43.5c44.667 7.33301 76 17 94 29s27 31 27 57c0 20 -6.16699 34.833 -18.5 44.5s-30.833 14.5 -55.5 14.5h-124v76l158 163h-237v93h377v-86l-167 -167h30c51.333 0 91.833 -12.167 121.5 -36.5
s44.5 -58.5 44.5 -102.5c0 -92.667 -59.667 -149 -179 -169c-29.333 -5.33301 -51.333 -10.333 -66 -15s-24.834 -10 -30.501 -16s-8.5 -13.667 -8.5 -23c0 -10.667 4.16699 -20.667 12.5 -30s21.166 -19 38.499 -29l-32 -74c-91.333 36.667 -137 85.334 -137 146.001z" />
    <glyph glyph-name="uni01BB" unicode="&#x1bb;" horiz-adv-x="459" 
d="M422 99l-13.001 -98.999h-384v92l132 153h-98v90h166c20.667 30 35 57 43 81s12 49 12 75c0 30.667 -7.5 54.167 -22.5 70.5s-35.5 24.5 -61.5 24.5c-22 0 -41.5 -5.33301 -58.5 -16s-35.5 -28 -55.5 -52l-75 58c51.333 72.667 118 109 200 109
c42 0 78.167 -8.16699 108.5 -24.5s53.5 -38.5 69.5 -66.5s24 -59.667 24 -95c0 -28.667 -4 -55.834 -12 -81.501s-21 -53.167 -39 -82.5h61v-90h-127c-31.333 -38 -74.666 -86.667 -129.999 -146h260z" />
    <glyph glyph-name="uni01BC" unicode="&#x1bc;" horiz-adv-x="482" 
d="M408 599h-231.999v-180c30 17.333 62.333 26 97 26c52.667 0 95.167 -19.333 127.5 -58s48.5 -93 48.5 -163c0 -47.333 -9.66699 -89.166 -29 -125.499s-46.666 -64.333 -81.999 -84s-76.333 -29.5 -123 -29.5c-42 0 -79 8.16699 -111 24.5s-61.333 39.5 -88 69.5l71 65
c36 -41.333 77 -62 123 -62c35.333 0 62.666 12 81.999 36s29 59.333 29 106c0 48 -8.33301 82 -25 102s-39.667 30 -69 30c-14.667 0 -28.334 -1.83301 -41.001 -5.5s-26.667 -9.83398 -42 -18.501h-87v359h366z" />
    <glyph glyph-name="uni01BD" unicode="&#x1bd;" horiz-adv-x="425" 
d="M349 434l-180.999 -0.000976562v-105c25.333 12 51.333 18 78 18c28 0 53.333 -6.83301 76 -20.5s40.667 -33.667 54 -60s20 -57.166 20 -92.499c0 -57.333 -18.5 -103.166 -55.5 -137.499s-85.833 -51.5 -146.5 -51.5c-38.667 0 -71.5 6.5 -98.5 19.5
s-52.5 31.833 -76.5 56.5l67 68c20 -16.667 37.167 -28.334 51.5 -35.001s31.833 -10 52.5 -10c24.667 0 44.167 7.66699 58.5 23s21.5 38 21.5 68c0 28 -6 48.667 -18 62s-27.667 20 -47 20c-12 0 -22.833 -1.5 -32.5 -4.5s-20.834 -7.5 -33.501 -13.5h-83v290h311z" />
    <glyph glyph-name="uni01BE" unicode="&#x1be;" horiz-adv-x="463" 
d="M386 359c26 -33.333 38.998 -80.6689 38.998 -142.002c0 -71.333 -19.833 -127.666 -59.5 -168.999s-93.167 -62 -160.5 -62c-38.667 0 -73.667 7.16699 -105 21.5s-61.333 36.5 -90 66.5l63 64c20.667 -19.333 40.334 -33.666 59.001 -42.999s39.334 -14 62.001 -14
c32.667 0 57.667 11.5 75 34.5s26 57.167 26 102.5c0 46 -8.83301 81 -26.5 105s-45.5 41.333 -83.5 52l-54 14v148h-64v81h64v122l125 13v-135h91v-81h-91v-100l26 -7c43.333 -14 78 -37.667 104 -71z" />
    <glyph glyph-name="uni01BF" unicode="&#x1bf;" horiz-adv-x="537" 
d="M452.5 493c30.333 -34 45.502 -80.666 45.502 -139.999c0 -54.667 -10.167 -101.834 -30.5 -141.501s-47.833 -73.667 -82.5 -102s-79.334 -57.5 -134.001 -87.5l-60 -33v-192l-125 -14v746h110l6 -64c22 25.333 45.333 44.833 70 58.5s52.667 20.5 84 20.5
c47.333 0 86.166 -17 116.499 -51zM334.002 214.501c22.667 37.667 34 83.167 34 136.5c0 66 -23.333 99 -70 99c-20.667 0 -39.5 -5.16699 -56.5 -15.5s-33.833 -25.5 -50.5 -45.5v-306l40 27c46 32 80.333 66.833 103 104.5z" />
    <glyph glyph-name="uni01C0" unicode="&#x1c0;" horiz-adv-x="248" 
d="M179 753v-753h-110v741z" />
    <glyph glyph-name="uni01C1" unicode="&#x1c1;" horiz-adv-x="426" 
d="M179 753v-753h-110v741zM357 753v-753h-110v741z" />
    <glyph glyph-name="uni01C2" unicode="&#x1c2;" horiz-adv-x="294" 
d="M285 402h-83v-73h83v-77h-83v-252h-110v252h-84v77h84v73h-84v77h84v262l110 12v-274h83v-77z" />
    <glyph glyph-name="uni01C3" unicode="&#x1c3;" horiz-adv-x="294" 
d="M202 753v-530h-109v518zM203 120c14.667 -15.333 22 -34 22 -56c0 -21.333 -7.33301 -39.833 -22 -55.5s-33.334 -23.5 -56.001 -23.5s-41.334 7.83301 -56.001 23.5s-22 34.167 -22 55.5c0 22 7.33301 40.667 22 56s33.334 23 56.001 23s41.334 -7.66699 56.001 -23z
" />
    <glyph glyph-name="uni01C4" unicode="&#x1c4;" horiz-adv-x="1045" 
d="M393.5 664c46.333 -18 84 -52.168 113 -102.501s43.5 -121.166 43.5 -212.499c0 -129.333 -28.5 -219.833 -85.5 -271.5s-130.167 -77.5 -219.5 -77.5h-176v691h161c62.667 0 117.167 -9 163.5 -27zM199 593.999l0.000976562 -497h55c51.333 0 91.166 18 119.499 54
s42.5 102 42.5 198c0 66.667 -7.16699 118 -21.5 154s-33.333 60.167 -57 72.5s-52.5 18.5 -86.5 18.5h-52zM1016 690.999v-100l-289 -485h292l-13 -106h-423v99l291 489h-262v103h404zM929.001 923.999l47 -51l-126 -121h-77l-126 121l47 51l117 -82z" />
    <glyph glyph-name="uni01C5" unicode="&#x1c5;" horiz-adv-x="987" 
d="M393.5 664c46.333 -18 84 -52.168 113 -102.501s43.5 -121.166 43.5 -212.499c0 -129.333 -28.5 -219.833 -85.5 -271.5s-130.167 -77.5 -219.5 -77.5h-176v691h161c62.667 0 117.167 -9 163.5 -27zM199 593.999l0.000976562 -497h55c51.333 0 91.166 18 119.499 54
s42.5 102 42.5 198c0 66.667 -7.16699 118 -21.5 154s-33.333 60.167 -57 72.5s-52.5 18.5 -86.5 18.5h-52zM964.001 528.999v-91l-231 -340h235l-12 -98h-362v90l231 341h-211v98h350zM904.001 797.999l47 -52l-126 -127h-77l-126 127l46 52l118 -90z" />
    <glyph glyph-name="uni01C6" unicode="&#x1c6;" horiz-adv-x="950" 
d="M476 741v-740.997h-111l-7 64c-34.667 -52.667 -79.667 -79 -135 -79c-58.667 0 -103.667 24.667 -135 74s-47 117.666 -47 204.999c0 55.333 8 104.166 24 146.499s38.5 75.166 67.5 98.499s62.5 35 100.5 35c46.667 0 86 -18.667 118 -56v266zM309 95.5029
c14.667 11 28.668 27.5 42.001 49.5v249c-12.667 18.667 -25.834 32.667 -39.501 42s-29.167 14 -46.5 14c-29.333 0 -52.333 -14.833 -69 -44.5s-25 -76.5 -25 -140.5c0 -66 7.5 -113.5 22.5 -142.5s36.5 -43.5 64.5 -43.5c19.333 0 36.333 5.5 51 16.5zM927.001 529.003
v-91l-231 -340h235l-12 -98h-362v90l231 341h-211v98h350zM867.001 798.003l47 -52l-126 -127h-77l-126 127l46 52l118 -90z" />
    <glyph glyph-name="uni01C7" unicode="&#x1c7;" horiz-adv-x="718" 
d="M199 691v-585h246l-14 -106h-362v691h130zM653 101c0 -73.333 -16.5 -128.668 -49.5 -166.001s-79.833 -66.666 -140.5 -87.999l-34 92c26.667 12 46.667 25 60 39s22.333 30.667 27 50s7 45.333 7 78v585h130v-590z" />
    <glyph glyph-name="uni01C8" unicode="&#x1c8;" horiz-adv-x="698" 
d="M199 691v-585h246l-14 -106h-362v691h130zM631 35c0 -48 -7.16699 -87.667 -21.5 -119s-34.166 -56.833 -59.499 -76.5s-58.333 -38.5 -99 -56.5l-41 91c23.333 12 41.666 23.833 54.999 35.5s23.5 27 30.5 46s10.5 43.833 10.5 74.5v499h125v-494zM624.5 773.5
c14.333 -14.333 21.5 -32.5 21.5 -54.5s-7.16699 -40.167 -21.5 -54.5s-32.833 -21.5 -55.5 -21.5s-41.167 7.16699 -55.5 21.5s-21.5 32.5 -21.5 54.5s7.16699 40.167 21.5 54.5s32.833 21.5 55.5 21.5s41.167 -7.16699 55.5 -21.5z" />
    <glyph glyph-name="uni01C9" unicode="&#x1c9;" horiz-adv-x="527" 
d="M93.5 19c-21.667 22.667 -32.499 54.333 -32.499 95v627l125 13v-636c0 -21.333 9 -32 27 -32c8.66699 0 17 1.33301 25 4l25 -86c-22 -12.667 -48.333 -19 -79 -19c-38.667 0 -68.834 11.333 -90.501 34zM460.001 34.999c0 -48 -7.16699 -87.667 -21.5 -119
s-34.166 -56.833 -59.499 -76.5s-58.333 -38.5 -99 -56.5l-41 91c23.333 12 41.666 23.833 54.999 35.5s23.5 27 30.5 46s10.5 43.833 10.5 74.5v499h125v-494zM453.501 773.499c14.333 -14.333 21.5 -32.5 21.5 -54.5s-7.16699 -40.167 -21.5 -54.5
s-32.833 -21.5 -55.5 -21.5s-41.167 7.16699 -55.5 21.5s-21.5 32.5 -21.5 54.5s7.16699 40.167 21.5 54.5s32.833 21.5 55.5 21.5s41.167 -7.16699 55.5 -21.5z" />
    <glyph glyph-name="uni01CA" unicode="&#x1ca;" horiz-adv-x="888" 
d="M536 0h-166l-202 563l3 -27c9.33301 -93.333 14 -176.333 14 -249v-287h-116v691h164l204 -563c-4 26 -7.83301 60.833 -11.5 104.5s-5.5 87.167 -5.5 130.5v328h116v-691zM823 101c0 -73.333 -16.5 -128.668 -49.5 -166.001s-79.833 -66.666 -140.5 -87.999l-34 92
c26.667 12 46.667 25 60 39s22.333 30.667 27 50s7 45.333 7 78v585h130v-590z" />
    <glyph glyph-name="uni01CB" unicode="&#x1cb;" horiz-adv-x="862" 
d="M536 0h-166l-202 563l3 -27c9.33301 -93.333 14 -176.333 14 -249v-287h-116v691h164l204 -563c-4 26 -7.83301 60.833 -11.5 104.5s-5.5 87.167 -5.5 130.5v328h116v-691zM795 35c0 -48 -7.16699 -87.667 -21.5 -119s-34.166 -56.833 -59.499 -76.5
s-58.333 -38.5 -99 -56.5l-41 91c23.333 12 41.666 23.833 54.999 35.5s23.5 27 30.5 46s10.5 43.833 10.5 74.5v499h125v-494zM788.5 773.5c14.333 -14.333 21.5 -32.5 21.5 -54.5s-7.16699 -40.167 -21.5 -54.5s-32.833 -21.5 -55.5 -21.5s-41.167 7.16699 -55.5 21.5
s-21.5 32.5 -21.5 54.5s7.16699 40.167 21.5 54.5s32.833 21.5 55.5 21.5s41.167 -7.16699 55.5 -21.5z" />
    <glyph glyph-name="uni01CC" unicode="&#x1cc;" horiz-adv-x="782" 
d="M428 502c24 -28 36 -65.999 36 -113.999v-388h-125v371c0 28 -4.5 47.833 -13.5 59.5s-22.167 17.5 -39.5 17.5c-18 0 -34.667 -6.66699 -50 -20s-30.333 -33 -45 -59v-369h-125v529h109l9 -69c19.333 27.333 40.833 48.166 64.5 62.499s50.5 21.5 80.5 21.5
c42 0 75 -14 99 -42zM715 35.001c0 -48 -7.16699 -87.667 -21.5 -119s-34.166 -56.833 -59.499 -76.5s-58.333 -38.5 -99 -56.5l-41 91c23.333 12 41.666 23.833 54.999 35.5s23.5 27 30.5 46s10.5 43.833 10.5 74.5v499h125v-494zM708.5 773.501
c14.333 -14.333 21.5 -32.5 21.5 -54.5s-7.16699 -40.167 -21.5 -54.5s-32.833 -21.5 -55.5 -21.5s-41.167 7.16699 -55.5 21.5s-21.5 32.5 -21.5 54.5s7.16699 40.167 21.5 54.5s32.833 21.5 55.5 21.5s41.167 -7.16699 55.5 -21.5z" />
    <glyph glyph-name="uni01CD" unicode="&#x1cd;" horiz-adv-x="535" 
d="M404 0l-38 161h-200l-38 -161h-131l192 691h158l191 -691h-134zM188 259h156l-78 333zM386 924l47 -51l-126 -121h-77l-126 121l47 51l117 -82z" />
    <glyph glyph-name="uni01CE" unicode="&#x1ce;" horiz-adv-x="495" 
d="M436 91.5c5.33301 -9 14.0029 -16.165 26.0029 -21.498l-26 -83c-28.667 3.33301 -51.834 10.666 -69.501 21.999s-30.834 29 -39.501 53c-32.667 -51.333 -80 -77 -142 -77c-47.333 0 -85 15 -113 45s-42 69.333 -42 118c0 57.333 19 101.166 57 131.499
s93 45.5 165 45.5h53v33c0 33.333 -6.66699 57 -20 71s-35 21 -65 21c-34.667 0 -77.334 -9 -128.001 -27l-29 83c60.667 25.333 119.667 38 177 38c125.333 0 188 -59.667 188 -179v-232c0 -18.667 2.66699 -32.5 8 -41.5zM305.003 141.002l-0.000976562 110.001h-40
c-73.333 0 -110 -31.333 -110 -94c0 -26.667 5.66699 -46.834 17 -60.501s27 -20.5 47 -20.5c36.667 0 65.334 21.667 86.001 65zM359.002 798.003l47 -52l-126 -127h-77l-126 127l46 52l118 -90z" />
    <glyph glyph-name="uni01CF" unicode="&#x1cf;" horiz-adv-x="268" 
d="M199 691v-691h-130v691h130zM251 924l47 -51l-126 -121h-77l-126 121l47 51l117 -82z" />
    <glyph glyph-name="uni01D0" unicode="&#x1d0;" horiz-adv-x="257" 
d="M191 529v-529h-125v529h125zM247 798l47 -52l-126 -127h-77l-126 127l46 52l118 -90z" />
    <glyph glyph-name="uni01D1" unicode="&#x1d1;" horiz-adv-x="628" 
d="M517 614.5c48.667 -61 73 -150.499 73 -268.499c0 -116.667 -24.333 -206 -73 -268s-116.334 -93 -203.001 -93c-86 0 -153.333 30.667 -202 92s-73 150.666 -73 267.999c0 116 24.333 205.167 73 267.5s116 93.5 202 93.5c86.667 0 154.334 -30.5 203.001 -91.5z
M210 546.001c-23.333 -40.667 -35 -107.667 -35 -201c0 -92.667 11.833 -159.334 35.5 -200.001s58.167 -61 103.5 -61c47.333 0 82.5 20.167 105.5 60.5s34.5 107.5 34.5 201.5c0 92.667 -11.5 159.334 -34.5 200.001s-58.167 61 -105.5 61c-46 0 -80.667 -20.333 -104 -61
zM432 924.001l47 -51l-126 -121h-77l-126 121l47 51l117 -82z" />
    <glyph glyph-name="uni01D2" unicode="&#x1d2;" horiz-adv-x="532" 
d="M433 472c40 -48 60 -116.999 60 -206.999c0 -86.667 -20.167 -155 -60.5 -205s-95.833 -75 -166.5 -75c-71.333 0 -127.166 24.5 -167.499 73.5s-60.5 117.833 -60.5 206.5c0 87.333 20.167 155.666 60.5 204.999s96.166 74 167.499 74s127 -24 167 -72zM193 405.501
c-16 -29 -24 -75.833 -24 -140.5c0 -65.333 8 -112.5 24 -141.5s40.333 -43.5 73 -43.5s57 14.667 73 44s24 76.333 24 141c0 65.333 -8 112.333 -24 141s-40.333 43 -73 43s-57 -14.5 -73 -43.5zM384 798.001l47 -52l-126 -127h-77l-126 127l46 52l118 -90z" />
    <glyph glyph-name="uni01D3" unicode="&#x1d3;" horiz-adv-x="590" 
d="M531 208c0 -42.667 -9 -80.833 -27 -114.5s-44.667 -60.167 -80 -79.5s-78.333 -29 -129 -29c-76.667 0 -135.167 20.333 -175.5 61s-60.5 94.667 -60.5 162v483h130v-477c0 -43.333 8.5 -75.5 25.5 -96.5s43.833 -31.5 80.5 -31.5c36 0 62.667 10.667 80 32
s26 53.333 26 96v477h130v-483zM413 924.001l47 -51l-126 -121h-77l-126 121l47 51l117 -82z" />
    <glyph glyph-name="uni01D4" unicode="&#x1d4;" horiz-adv-x="521" 
d="M455 0h-107.999l-7 70c-18 -28.667 -38.5 -50 -61.5 -64s-50.167 -21 -81.5 -21c-42.667 0 -75.834 14 -99.501 42s-35.5 65.667 -35.5 113v389h125v-378c0 -24.667 4.16699 -42.667 12.5 -54s21.5 -17 39.5 -17c34.667 0 65 24 91 72v377h125v-529zM377.001 798l47 -52
l-126 -127h-77l-126 127l46 52l118 -90z" />
    <glyph glyph-name="uni01D5" unicode="&#x1d5;" horiz-adv-x="590" 
d="M531 208c0 -42.667 -9 -80.833 -27 -114.5s-44.667 -60.167 -80 -79.5s-78.333 -29 -129 -29c-76.667 0 -135.167 20.333 -175.5 61s-60.5 94.667 -60.5 162v483h130v-477c0 -43.333 8.5 -75.5 25.5 -96.5s43.833 -31.5 80.5 -31.5c36 0 62.667 10.667 80 32
s26 53.333 26 96v477h130v-483zM242 861.501c12.667 -13 19 -28.833 19 -47.5c0 -19.333 -6.33301 -35.5 -19 -48.5s-28.667 -19.5 -48 -19.5s-35.333 6.5 -48 19.5s-19 29.167 -19 48.5c0 18.667 6.5 34.5 19.5 47.5s28.833 19.5 47.5 19.5c19.333 0 35.333 -6.5 48 -19.5z
M445 861.501c12.667 -13 19 -28.833 19 -47.5c0 -19.333 -6.33301 -35.5 -19 -48.5s-28.667 -19.5 -48 -19.5s-35.5 6.5 -48.5 19.5s-19.5 29.167 -19.5 48.5c0 18.667 6.66699 34.5 20 47.5s29.333 19.5 48 19.5c19.333 0 35.333 -6.5 48 -19.5zM430 925.001h-266v88h266
v-88z" />
    <glyph glyph-name="uni01D6" unicode="&#x1d6;" horiz-adv-x="521" 
d="M455 0h-107.999l-7 70c-18 -28.667 -38.5 -50 -61.5 -64s-50.167 -21 -81.5 -21c-42.667 0 -75.834 14 -99.501 42s-35.5 65.667 -35.5 113v389h125v-378c0 -24.667 4.16699 -42.667 12.5 -54s21.5 -17 39.5 -17c34.667 0 65 24 91 72v377h125v-529zM205.001 728.5
c12.667 -13 19 -28.833 19 -47.5c0 -19.333 -6.33301 -35.5 -19 -48.5s-28.667 -19.5 -48 -19.5s-35.333 6.5 -48 19.5s-19 29.167 -19 48.5c0 18.667 6.5 34.5 19.5 47.5s28.833 19.5 47.5 19.5c19.333 0 35.333 -6.5 48 -19.5zM408.001 728.5
c12.667 -13 19 -28.833 19 -47.5c0 -19.333 -6.33301 -35.5 -19 -48.5s-28.667 -19.5 -48 -19.5s-35.5 6.5 -48.5 19.5s-19.5 29.167 -19.5 48.5c0 18.667 6.66699 34.5 20 47.5s29.333 19.5 48 19.5c19.333 0 35.333 -6.5 48 -19.5zM392.001 798h-266v88h266v-88z" />
    <glyph glyph-name="uni01D7" unicode="&#x1d7;" horiz-adv-x="590" 
d="M531 208c0 -42.667 -9 -80.833 -27 -114.5s-44.667 -60.167 -80 -79.5s-78.333 -29 -129 -29c-76.667 0 -135.167 20.333 -175.5 61s-60.5 94.667 -60.5 162v483h130v-477c0 -43.333 8.5 -75.5 25.5 -96.5s43.833 -31.5 80.5 -31.5c36 0 62.667 10.667 80 32
s26 53.333 26 96v477h130v-483zM367 1056l73 -66l-140 -136l-49 42zM238 863.501c12.667 -13 19 -29.167 19 -48.5s-6.33301 -35.5 -19 -48.5s-28.667 -19.5 -48 -19.5c-18.667 0 -34.5 6.5 -47.5 19.5s-19.5 29.167 -19.5 48.5s6.5 35.5 19.5 48.5s28.833 19.5 47.5 19.5
c19.333 0 35.333 -6.5 48 -19.5zM447.5 863.501c13 -13 19.5 -29.167 19.5 -48.5s-6.5 -35.5 -19.5 -48.5s-28.833 -19.5 -47.5 -19.5s-34.5 6.5 -47.5 19.5s-19.5 29.167 -19.5 48.5s6.5 35.5 19.5 48.5s28.833 19.5 47.5 19.5s34.5 -6.5 47.5 -19.5z" />
    <glyph glyph-name="uni01D8" unicode="&#x1d8;" horiz-adv-x="521" 
d="M455 0h-107.999l-7 70c-18 -28.667 -38.5 -50 -61.5 -64s-50.167 -21 -81.5 -21c-42.667 0 -75.834 14 -99.501 42s-35.5 65.667 -35.5 113v389h125v-378c0 -24.667 4.16699 -42.667 12.5 -54s21.5 -17 39.5 -17c34.667 0 65 24 91 72v377h125v-529zM331.001 921l73 -66
l-140 -136l-49 42zM202.001 728.5c12.667 -13 19 -29.167 19 -48.5s-6.33301 -35.5 -19 -48.5s-28.667 -19.5 -48 -19.5c-18.667 0 -34.5 6.5 -47.5 19.5s-19.5 29.167 -19.5 48.5s6.5 35.5 19.5 48.5s28.833 19.5 47.5 19.5c19.333 0 35.333 -6.5 48 -19.5zM411.501 728.5
c13 -13 19.5 -29.167 19.5 -48.5s-6.5 -35.5 -19.5 -48.5s-28.833 -19.5 -47.5 -19.5s-34.5 6.5 -47.5 19.5s-19.5 29.167 -19.5 48.5s6.5 35.5 19.5 48.5s28.833 19.5 47.5 19.5s34.5 -6.5 47.5 -19.5z" />
    <glyph glyph-name="uni01D9" unicode="&#x1d9;" horiz-adv-x="590" 
d="M531 208c0 -42.667 -9 -80.833 -27 -114.5s-44.667 -60.167 -80 -79.5s-78.333 -29 -129 -29c-76.667 0 -135.167 20.333 -175.5 61s-60.5 94.667 -60.5 162v483h130v-477c0 -43.333 8.5 -75.5 25.5 -96.5s43.833 -31.5 80.5 -31.5c36 0 62.667 10.667 80 32
s26 53.333 26 96v477h130v-483zM411 1057l47 -51l-126 -121h-77l-126 121l47 51l117 -82zM237 863.501c12.667 -13 19 -29.167 19 -48.5s-6.33301 -35.5 -19 -48.5s-28.667 -19.5 -48 -19.5c-18.667 0 -34.5 6.5 -47.5 19.5s-19.5 29.167 -19.5 48.5s6.5 35.5 19.5 48.5
s28.833 19.5 47.5 19.5c19.333 0 35.333 -6.5 48 -19.5zM446.5 863.501c13 -13 19.5 -29.167 19.5 -48.5s-6.5 -35.5 -19.5 -48.5s-28.833 -19.5 -47.5 -19.5s-34.5 6.5 -47.5 19.5s-19.5 29.167 -19.5 48.5s6.5 35.5 19.5 48.5s28.833 19.5 47.5 19.5s34.5 -6.5 47.5 -19.5
z" />
    </font>
</defs>
</svg>
